<?xml version="1.0" encoding="UTF-8"?>
<svg id="_图层_2" data-name="图层 2" xmlns="http://www.w3.org/2000/svg" xmlns:xlink="http://www.w3.org/1999/xlink" viewBox="0 0 262.01 243.57">
  <defs>
    <style>
      .cls-1 {
        fill: #8e7cc3;
      }

      .cls-2 {
        fill: #c8b6e2;
      }

      .cls-3 {
        fill: url(#_未命名的渐变_569);
      }

      .cls-4 {
        fill: #f2c6d3;
        stroke: #8e7cc3;
        stroke-miterlimit: 10;
        stroke-width: 6px;
      }

      .cls-5 {
        fill: #7edfe3;
        font-family: ArialRoundedMTBold, 'Arial Rounded MT Bold';
        font-size: 107.44px;
      }
    </style>
    <radialGradient id="_未命名的渐变_569" data-name="未命名的渐变 569" cx="130.3" cy="133.63" fx="130.3" fy="133.63" r="176.05" gradientUnits="userSpaceOnUse">
      <stop offset="0" stop-color="#fff"/>
      <stop offset="0" stop-color="#f6c2d3"/>
      <stop offset="0" stop-color="#fefcfd"/>
      <stop offset=".39" stop-color="#fadfe8"/>
      <stop offset=".75" stop-color="#f7ccda"/>
      <stop offset="1" stop-color="#f7c6d6"/>
      <stop offset="1" stop-color="#fefcfd"/>
    </radialGradient>
  </defs>
  <g id="_图层_1-2" data-name="图层 1">
    <g>
      <path class="cls-1" d="M261.75,55.04v124.34c0,14.89-12.11,27.01-27.01,27.01H27.26c-14.9,0-27.01-12.12-27.01-27.01V55.04c0-14.89,12.11-27.01,27.01-27.01h18.14c.04,2.08.22,4.09.55,6h-18.69c-11.59,0-21.01,9.42-21.01,21.01v124.34c0,11.58,9.42,21.01,21.01,21.01h207.48c11.59,0,21.01-9.43,21.01-21.01V55.04c0-11.59-9.42-21.01-21.01-21.01H76.05c.33-1.91.51-3.92.55-6h158.14c14.9,0,27.01,12.12,27.01,27.01Z"/>
      <path class="cls-2" d="M255.75,55.04v124.34c0,11.58-9.42,21.01-21.01,21.01H27.26c-11.59,0-21.01-9.43-21.01-21.01V55.04c0-11.59,9.42-21.01,21.01-21.01h18.69c1.79,10.71,7.77,18.38,15.05,18.38s13.26-7.67,15.05-18.38h158.69c11.59,0,21.01,9.42,21.01,21.01ZM250.78,183.23v-96.07c0-6.39-5.2-11.59-11.59-11.59H22.81c-6.39,0-11.59,5.2-11.59,11.59v96.07c0,6.39,5.2,11.59,11.59,11.59h216.38c6.39,0,11.59-5.2,11.59-11.59Z"/>
      <path class="cls-1" d="M250.78,87.16v96.07c0,6.39-5.2,11.59-11.59,11.59H22.81c-6.39,0-11.59-5.2-11.59-11.59v-96.07c0-6.39,5.2-11.59,11.59-11.59h216.38c6.39,0,11.59,5.2,11.59,11.59ZM244.78,183.23v-96.07c0-3.09-2.51-5.59-5.59-5.59H22.81c-3.08,0-5.59,2.5-5.59,5.59v96.07c0,3.08,2.51,5.59,5.59,5.59h216.38c3.08,0,5.59-2.51,5.59-5.59Z"/>
      <path class="cls-3" d="M244.78,87.16v96.07c0,3.08-2.51,5.59-5.59,5.59H22.81c-3.08,0-5.59-2.51-5.59-5.59v-96.07c0-3.09,2.51-5.59,5.59-5.59h216.38c3.08,0,5.59,2.5,5.59,5.59Z"/>
      <path class="cls-1" d="M76.61,27.22c0,.27,0,.54,0,.81h-6c0-.27,0-.54,0-.81,0-11.31-5.06-19.19-9.61-19.19s-9.61,7.88-9.61,19.19c0,.27,0,.54,0,.81h-6c0-.27,0-.54,0-.81,0-14.13,6.86-25.19,15.61-25.19s15.61,11.06,15.61,25.19Z"/>
      <path class="cls-1" d="M70.6,28.03h6c-.04,2.08-.22,4.09-.55,6h-6.1c.38-1.85.6-3.86.65-6Z"/>
      <path class="cls-1" d="M69.95,34.03h6.1c-1.79,10.71-7.77,18.38-15.05,18.38s-13.26-7.67-15.05-18.38h6.1c1.5,7.54,5.38,12.38,8.95,12.38s7.45-4.84,8.95-12.38Z"/>
      <path class="cls-1" d="M70.61,27.22c0,.27,0,.54,0,.81h-19.2c0-.27,0-.54,0-.81,0-11.31,5.06-19.19,9.61-19.19s9.61,7.88,9.61,19.19Z"/>
      <path class="cls-1" d="M51.4,28.03h19.2c-.05,2.14-.27,4.15-.65,6h-17.9c-.38-1.85-.6-3.86-.65-6Z"/>
      <path class="cls-1" d="M52.05,34.03h17.9c-1.5,7.54-5.38,12.38-8.95,12.38s-7.45-4.84-8.95-12.38Z"/>
      <path class="cls-1" d="M52.05,34.03h-6.1c-.33-1.91-.51-3.92-.55-6h6c.05,2.14.27,4.15.65,6Z"/>
    </g>
    <text></text>
    <text class="cls-5" transform="translate(65.81 169.57) scale(1.02 1)"><tspan x="0" y="0">26</tspan></text>
    <ellipse class="cls-4" cx="62.54" cy="27.22" rx="15.09" ry="22.94"/>
    <ellipse class="cls-4" cx="128.58" cy="25.94" rx="15.09" ry="22.94"/>
    <ellipse class="cls-4" cx="193.35" cy="28.42" rx="15.09" ry="22.94"/>
  </g>
</svg>