<?xml version="1.0" encoding="UTF-8"?>
<svg id="_图层_2" xmlns="http://www.w3.org/2000/svg" xmlns:xlink="http://www.w3.org/1999/xlink" version="1.1" viewBox="0 0 262 244.2">
  <!-- Generator: Adobe Illustrator 30.2.1, SVG Export Plug-In . SVG Version: 2.1.1 Build 1)  -->
  <defs>
    <style>
      .st0 {
        fill: #8e7cc3;
      }

      .st1 {
        fill: #c8b6e2;
      }

      .st2 {
        fill: url(#_未命名的渐变);
      }

      .st3, .st4 {
        isolation: isolate;
      }

      .st4 {
        fill: #7edfe3;
        font-family: ArialRoundedMTBold, 'Arial Rounded MT Bold';
        font-size: 107.4px;
      }

      .st5 {
        fill: #f2c6d3;
        stroke: #8e7cc3;
        stroke-miterlimit: 10;
        stroke-width: 6px;
      }
    </style>
    <radialGradient id="_未命名的渐变" data-name="未命名的渐变" cx="130.3" cy="190.4" fx="130.3" fy="190.4" r="176.1" gradientTransform="translate(0 324) scale(1 -1)" gradientUnits="userSpaceOnUse">
      <stop offset="0" stop-color="#fff"/>
      <stop offset="0" stop-color="#f6c2d3"/>
      <stop offset="0" stop-color="#fefcfd"/>
      <stop offset=".4" stop-color="#fadfe8"/>
      <stop offset=".8" stop-color="#f7ccda"/>
      <stop offset="1" stop-color="#f7c6d6"/>
      <stop offset="1" stop-color="#fefcfd"/>
    </radialGradient>
  </defs>
  <g id="_图层_1-2">
    <g>
      <path class="st0" d="M261.8,55v124.3c0,14.9-12.1,27-27,27H27.3c-14.9,0-27-12.1-27-27V55c0-14.9,12.1-27,27-27h18.1c0,2.1.2,4.1.5,6h-18.7c-11.6,0-21,9.4-21,21v124.3c0,11.6,9.4,21,21,21h207.5c11.6,0,21-9.4,21-21V55c0-11.6-9.4-21-21-21H76.1c.3-1.9.5-3.9.6-6h158.1c14.9,0,27,12.1,27,27Z"/>
      <path class="st1" d="M255.8,55v124.3c0,11.6-9.4,21-21,21H27.3c-11.6,0-21-9.4-21-21V55c0-11.6,9.4-21,21-21h18.7c1.8,10.7,7.8,18.4,15,18.4s13.3-7.7,15.1-18.4h158.7c11.6,0,21,9.4,21,21ZM250.8,183.2v-96.1c0-6.4-5.2-11.6-11.6-11.6H22.8c-6.4,0-11.6,5.2-11.6,11.6v96.1c0,6.4,5.2,11.6,11.6,11.6h216.4c6.4,0,11.6-5.2,11.6-11.6h0Z"/>
      <path class="st0" d="M250.8,87.2v96.1c0,6.4-5.2,11.6-11.6,11.6H22.8c-6.4,0-11.6-5.2-11.6-11.6v-96.1c0-6.4,5.2-11.6,11.6-11.6h216.4c6.4,0,11.6,5.2,11.6,11.6ZM244.8,183.2v-96.1c0-3.1-2.5-5.6-5.6-5.6H22.8c-3.1,0-5.6,2.5-5.6,5.6v96.1c0,3.1,2.5,5.6,5.6,5.6h216.4c3.1,0,5.6-2.5,5.6-5.6h0Z"/>
      <path class="st2" d="M244.8,87.2v96.1c0,3.1-2.5,5.6-5.6,5.6H22.8c-3.1,0-5.6-2.5-5.6-5.6v-96.1c0-3.1,2.5-5.6,5.6-5.6h216.4c3.1,0,5.6,2.5,5.6,5.6Z"/>
      <path class="st0" d="M76.6,27.2c0,.3,0,.5,0,.8h-6c0-.3,0-.5,0-.8,0-11.3-5.1-19.2-9.6-19.2s-9.6,7.9-9.6,19.2v.8h-6v-.8c0-14.1,6.9-25.2,15.6-25.2s15.6,11.1,15.6,25.2Z"/>
      <path class="st0" d="M70.6,28h6c0,2.1-.2,4.1-.6,6h-6.1c.4-1.8.6-3.9.7-6Z"/>
      <path class="st0" d="M70,34h6.1c-1.8,10.7-7.8,18.4-15.1,18.4s-13.3-7.7-15-18.4h6.1c1.5,7.5,5.4,12.4,9,12.4s7.5-4.8,9-12.4Z"/>
      <path class="st0" d="M70.6,27.2c0,.3,0,.5,0,.8h-19.2v-.8c0-11.3,5.1-19.2,9.6-19.2s9.6,7.9,9.6,19.2h0Z"/>
      <path class="st0" d="M51.4,28h19.2c0,2.1-.3,4.1-.7,6h-17.9c-.4-1.8-.6-3.9-.6-6Z"/>
      <path class="st0" d="M52,34h17.9c-1.5,7.5-5.4,12.4-9,12.4s-7.4-4.8-9-12.4Z"/>
      <path class="st0" d="M52,34h-6.1c-.3-1.9-.5-3.9-.5-6h6c0,2.1.3,4.2.6,6Z"/>
    </g>
    <g class="st3">
      <text class="st4" transform="translate(65.8 169.6) scale(1 1)"><tspan x="0" y="0">27</tspan></text>
    </g>
    <ellipse class="st5" cx="62.5" cy="27.2" rx="15.1" ry="22.9"/>
    <ellipse class="st5" cx="128.6" cy="25.9" rx="15.1" ry="22.9"/>
    <ellipse class="st5" cx="193.4" cy="28.4" rx="15.1" ry="22.9"/>
  </g>
</svg>