<?xml version="1.0" encoding="UTF-8"?>
<svg id="_图层_2" data-name="图层 2" xmlns="http://www.w3.org/2000/svg" xmlns:xlink="http://www.w3.org/1999/xlink" viewBox="0 0 240.78 191.88">
  <defs>
    <style>
      .cls-1 {
        fill: #c8b6e2;
      }

      .cls-2 {
        fill: #7edfe3;
      }

      .cls-3 {
        fill: url(#_未命名的渐变_619);
      }

      .cls-4 {
        stroke-width: 7px;
      }

      .cls-4, .cls-5 {
        fill: none;
        stroke: #8e7cc3;
        stroke-miterlimit: 10;
      }

      .cls-5 {
        stroke-width: 5px;
      }

      .cls-6 {
        fill: #f6c2d3;
      }
    </style>
    <radialGradient id="_未命名的渐变_619" data-name="未命名的渐变 619" cx="121.41" cy="109.96" fx="121.41" fy="109.96" r="105.53" gradientUnits="userSpaceOnUse">
      <stop offset="0" stop-color="#fff"/>
      <stop offset=".29" stop-color="#fdf1f5"/>
      <stop offset=".83" stop-color="#f7cedc"/>
      <stop offset="1" stop-color="#f6c2d3"/>
    </radialGradient>
  </defs>
  <g id="_图层_1-2" data-name="图层 1">
    <g>
      <g>
        <path class="cls-3" d="M237.28,60.31v95.99c0,17.72-14.36,32.08-32.08,32.08H35.58c-17.72,0-32.08-14.36-32.08-32.08V60.31c0-17.72,14.36-32.08,32.08-32.08h169.62c17.72,0,32.08,14.36,32.08,32.08ZM170.9,108.48c0-29.02-23.52-52.54-52.55-52.54s-52.55,23.52-52.55,52.54,23.53,52.55,52.55,52.55,52.55-23.52,52.55-52.55ZM47.2,56.67c0-4.9-3.97-8.88-8.87-8.88s-8.88,3.98-8.88,8.88,3.98,8.87,8.88,8.87,8.87-3.97,8.87-8.87Z"/>
        <path class="cls-1" d="M118.35,55.94c29.03,0,52.55,23.52,52.55,52.54s-23.52,52.55-52.55,52.55-52.55-23.52-52.55-52.55,23.53-52.54,52.55-52.54ZM148.53,108.57c0-16.89-13.7-30.59-30.6-30.59s-30.59,13.7-30.59,30.59,13.7,30.6,30.59,30.6,30.6-13.7,30.6-30.6Z"/>
        <path class="cls-2" d="M117.93,77.98c16.9,0,30.6,13.7,30.6,30.59s-13.7,30.6-30.6,30.6-30.59-13.7-30.59-30.6,13.7-30.59,30.59-30.59Z"/>
        <rect class="cls-6" x="40.07" y="3.5" width="43.13" height="19.93" rx="1.34" ry="1.34"/>
        <path class="cls-2" d="M38.33,47.79c4.9,0,8.87,3.98,8.87,8.88s-3.97,8.87-8.87,8.87-8.88-3.97-8.88-8.87,3.98-8.88,8.88-8.88Z"/>
      </g>
      <g>
        <rect class="cls-4" x="3.5" y="28.23" width="233.78" height="160.15" rx="32.08" ry="32.08"/>
        <path class="cls-5" d="M47.2,56.67c0,4.9-3.97,8.87-8.87,8.87s-8.88-3.97-8.88-8.87,3.98-8.88,8.88-8.88,8.87,3.98,8.87,8.88Z"/>
        <path class="cls-4" d="M170.9,108.48c0,29.03-23.52,52.55-52.55,52.55s-52.55-23.52-52.55-52.55,23.53-52.54,52.55-52.54,52.55,23.52,52.55,52.54Z"/>
        <path class="cls-4" d="M148.53,108.57c0,16.9-13.7,30.6-30.6,30.6s-30.59-13.7-30.59-30.6,13.7-30.59,30.59-30.59,30.6,13.7,30.6,30.59Z"/>
        <rect class="cls-4" x="40.07" y="3.5" width="43.13" height="19.93" rx="1.34" ry="1.34"/>
      </g>
    </g>
  </g>
</svg>