<?xml version="1.0" encoding="UTF-8"?>
<svg id="_图层_2" data-name="图层 2" xmlns="http://www.w3.org/2000/svg" xmlns:xlink="http://www.w3.org/1999/xlink" viewBox="0 0 212.13 206.4">
  <defs>
    <style>
      .cls-1 {
        fill: url(#_未命名的渐变_1054);
      }

      .cls-2 {
        stroke-width: 2px;
      }

      .cls-2, .cls-3 {
        fill: #7edfe3;
      }

      .cls-2, .cls-4, .cls-5 {
        stroke-miterlimit: 10;
      }

      .cls-2, .cls-4, .cls-5, .cls-6 {
        stroke: #8e7cc3;
      }

      .cls-4 {
        stroke-width: 6px;
      }

      .cls-4, .cls-5, .cls-6 {
        fill: none;
      }

      .cls-5, .cls-6 {
        stroke-width: 3px;
      }

      .cls-6 {
        stroke-linecap: round;
        stroke-linejoin: round;
      }
    </style>
    <linearGradient id="_未命名的渐变_1054" data-name="未命名的渐变 1054" x1="3" y1="103.2" x2="209.13" y2="103.2" gradientUnits="userSpaceOnUse">
      <stop offset="0" stop-color="#f6c2d3"/>
      <stop offset=".28" stop-color="#efc0d5"/>
      <stop offset=".67" stop-color="#ddbbdb"/>
      <stop offset="1" stop-color="#c8b6e2"/>
    </linearGradient>
  </defs>
  <g id="_图层_1-2" data-name="图层 1">
    <g>
      <g>
        <path class="cls-1" d="M185.91,203.4H26.23c-12.83,0-23.23-10.4-23.23-23.23V26.23C3,13.4,13.4,3,26.23,3h159.68c12.82,0,23.22,10.4,23.22,23.23v153.94c0,12.83-10.4,23.23-23.22,23.23ZM179.42,101.03c0-4.91-3.98-8.89-8.89-8.89h-82.56c-2.46,0-4.68,1-6.3,2.6-1.6,1.61-2.6,3.84-2.6,6.29,0,4.92,3.98,8.9,8.9,8.9h82.56c2.46,0,4.68-.99,6.29-2.61,1.61-1.6,2.6-3.83,2.6-6.29ZM179.34,153.54c0-4.91-3.99-8.89-8.9-8.89h-82.56c-2.45,0-4.68.99-6.29,2.6s-2.61,3.83-2.61,6.29c0,4.91,3.99,8.9,8.9,8.9h82.56c2.45,0,4.68-1,6.29-2.61s2.61-3.83,2.61-6.29ZM178.19,51.05c0-4.91-3.98-8.89-8.89-8.89h-82.57c-2.46,0-4.68,1-6.29,2.6-1.61,1.61-2.6,3.84-2.6,6.29,0,4.91,3.98,8.89,8.89,8.89h82.57c2.45,0,4.68-1,6.29-2.6,1.6-1.61,2.6-3.84,2.6-6.29ZM62.6,153.75c0-5.46-4.42-9.89-9.89-9.89s-9.88,4.43-9.88,9.89,4.42,9.89,9.88,9.89,9.89-4.43,9.89-9.89ZM62.04,101.2c0-5.46-4.43-9.89-9.89-9.89s-9.89,4.43-9.89,9.89,4.43,9.89,9.89,9.89,9.89-4.43,9.89-9.89ZM60.91,51.47c0-5.46-4.43-9.88-9.89-9.88s-9.89,4.42-9.89,9.88,4.43,9.89,9.89,9.89,9.89-4.42,9.89-9.89Z"/>
        <path class="cls-3" d="M170.53,92.14c4.91,0,8.89,3.98,8.89,8.89,0,2.46-.99,4.69-2.6,6.29-1.61,1.62-3.83,2.61-6.29,2.61h-82.56c-4.92,0-8.9-3.98-8.9-8.9,0-2.45,1-4.68,2.6-6.29,1.62-1.6,3.84-2.6,6.3-2.6h82.56Z"/>
        <path class="cls-3" d="M170.44,144.65c4.91,0,8.9,3.98,8.9,8.89,0,2.46-1,4.68-2.61,6.29s-3.84,2.61-6.29,2.61h-82.56c-4.91,0-8.9-3.99-8.9-8.9,0-2.46,1-4.68,2.61-6.29s3.84-2.6,6.29-2.6h82.56Z"/>
        <path class="cls-3" d="M169.3,42.16c4.91,0,8.89,3.98,8.89,8.89,0,2.45-1,4.68-2.6,6.29-1.61,1.6-3.84,2.6-6.29,2.6h-82.57c-4.91,0-8.89-3.98-8.89-8.89,0-2.45.99-4.68,2.6-6.29,1.61-1.6,3.83-2.6,6.29-2.6h82.57Z"/>
      </g>
      <g>
        <path class="cls-4" d="M185.91,203.4H26.23c-12.83,0-23.23-10.4-23.23-23.23V26.23C3,13.4,13.4,3,26.23,3h159.68c12.82,0,23.22,10.4,23.22,23.23v153.94c0,12.83-10.4,23.23-23.22,23.23Z"/>
        <path class="cls-5" d="M170.44,162.44h-82.56c-4.91,0-8.9-3.99-8.9-8.9,0-2.46,1-4.68,2.61-6.29s3.84-2.6,6.29-2.6h82.56c4.91,0,8.9,3.98,8.9,8.89,0,2.46-1,4.68-2.61,6.29s-3.84,2.61-6.29,2.61Z"/>
        <circle class="cls-5" cx="52.15" cy="101.2" r="9.89"/>
        <path class="cls-5" d="M62.6,153.75c0,5.46-4.42,9.89-9.89,9.89s-9.88-4.43-9.88-9.89,4.42-9.89,9.88-9.89,9.89,4.43,9.89,9.89Z"/>
        <path class="cls-5" d="M60.91,51.47c0,5.47-4.43,9.89-9.89,9.89s-9.89-4.42-9.89-9.89,4.43-9.88,9.89-9.88,9.89,4.42,9.89,9.88Z"/>
        <path class="cls-6" d="M170.53,109.93h-82.56c-4.92,0-8.9-3.98-8.9-8.9,0-2.45,1-4.68,2.6-6.29,1.62-1.6,3.84-2.6,6.3-2.6h82.56c4.91,0,8.89,3.98,8.89,8.89,0,2.46-.99,4.69-2.6,6.29-1.61,1.62-3.83,2.61-6.29,2.61Z"/>
        <path class="cls-6" d="M169.3,59.94h-82.57c-4.91,0-8.89-3.98-8.89-8.89,0-2.45.99-4.68,2.6-6.29,1.61-1.6,3.83-2.6,6.29-2.6h82.57c4.91,0,8.89,3.98,8.89,8.89,0,2.45-1,4.68-2.6,6.29-1.61,1.6-3.84,2.6-6.29,2.6Z"/>
      </g>
    </g>
    <polygon class="cls-2" points="44.49 142.61 52.51 150.02 66.28 134.69 72.14 139.97 53.35 161.71 38.87 148.76 44.49 142.61"/>
    <polygon class="cls-2" points="44.13 90.2 52.15 97.62 65.92 82.29 71.78 87.56 52.99 109.31 38.5 96.36 44.13 90.2"/>
    <polygon class="cls-2" points="42.96 40.35 50.98 47.76 64.75 32.43 70.61 37.71 51.82 59.45 37.33 46.51 42.96 40.35"/>
  </g>
</svg>