<?xml version="1.0" encoding="UTF-8"?>
<svg id="_图层_2" data-name="图层 2" xmlns="http://www.w3.org/2000/svg" xmlns:xlink="http://www.w3.org/1999/xlink" viewBox="0 0 212.13 206.4">
  <defs>
    <style>
      .cls-1 {
        fill: url(#_未命名的渐变_1054);
      }

      .cls-2 {
        fill: #7edfe3;
      }

      .cls-3 {
        stroke-width: 6px;
      }

      .cls-3, .cls-4 {
        stroke-miterlimit: 10;
      }

      .cls-3, .cls-4, .cls-5 {
        fill: none;
        stroke: #8e7cc3;
      }

      .cls-4, .cls-5 {
        stroke-width: 3px;
      }

      .cls-5 {
        stroke-linecap: round;
        stroke-linejoin: round;
      }
    </style>
    <linearGradient id="_未命名的渐变_1054" data-name="未命名的渐变 1054" x1="3" y1="103.2" x2="209.13" y2="103.2" gradientUnits="userSpaceOnUse">
      <stop offset="0" stop-color="#f6c2d3"/>
      <stop offset=".28" stop-color="#efc0d5"/>
      <stop offset=".67" stop-color="#ddbbdb"/>
      <stop offset="1" stop-color="#c8b6e2"/>
    </linearGradient>
  </defs>
  <g id="_图层_1-2" data-name="图层 1">
    <g>
      <g>
        <path class="cls-1" d="M209.13,26.23v153.94c0,12.83-10.4,23.23-23.23,23.23H26.23c-12.83,0-23.23-10.4-23.23-23.23V26.23C3,13.4,13.4,3,26.23,3h159.67c12.83,0,23.23,10.4,23.23,23.23ZM179.42,101.03c0-4.91-3.98-8.89-8.89-8.89h-82.57c-2.45,0-4.68.99-6.29,2.6-1.6,1.61-2.6,3.83-2.6,6.29,0,4.92,3.98,8.9,8.89,8.9h82.57c2.46,0,4.68-1,6.29-2.6,1.61-1.62,2.6-3.84,2.6-6.3ZM178.19,51.05c0-4.91-3.99-8.89-8.9-8.89h-82.56c-2.46,0-4.68.99-6.29,2.6s-2.61,3.83-2.61,6.29c0,4.91,3.99,8.89,8.9,8.89h82.56c2.46,0,4.68-.99,6.29-2.6s2.61-3.83,2.61-6.29ZM177.97,154.43c0-4.91-3.98-8.9-8.89-8.9h-82.57c-2.46,0-4.68,1-6.29,2.61s-2.6,3.83-2.6,6.29c0,4.91,3.98,8.89,8.89,8.89h82.57c2.45,0,4.68-.99,6.29-2.6,1.6-1.61,2.6-3.83,2.6-6.29ZM62.6,153.75c0-5.46-4.43-9.89-9.89-9.89s-9.89,4.43-9.89,9.89,4.43,9.89,9.89,9.89,9.89-4.43,9.89-9.89ZM62.03,101.2c0-5.46-4.42-9.89-9.88-9.89s-9.89,4.43-9.89,9.89,4.42,9.89,9.89,9.89,9.88-4.43,9.88-9.89ZM60.9,51.47c0-5.46-4.42-9.88-9.88-9.88s-9.89,4.42-9.89,9.88,4.42,9.89,9.89,9.89,9.88-4.42,9.88-9.89Z"/>
        <path class="cls-2" d="M170.53,92.14c4.91,0,8.89,3.98,8.89,8.89,0,2.46-.99,4.68-2.6,6.3-1.61,1.6-3.83,2.6-6.29,2.6h-82.57c-4.91,0-8.89-3.98-8.89-8.9,0-2.46,1-4.68,2.6-6.29,1.61-1.61,3.84-2.6,6.29-2.6h82.57Z"/>
        <path class="cls-2" d="M169.29,42.16c4.91,0,8.9,3.98,8.9,8.89,0,2.46-1,4.68-2.61,6.29s-3.83,2.6-6.29,2.6h-82.56c-4.91,0-8.9-3.98-8.9-8.89,0-2.46,1-4.68,2.61-6.29s3.83-2.6,6.29-2.6h82.56Z"/>
        <path class="cls-2" d="M169.08,145.53c4.91,0,8.89,3.99,8.89,8.9,0,2.46-1,4.68-2.6,6.29-1.61,1.61-3.84,2.6-6.29,2.6h-82.57c-4.91,0-8.89-3.98-8.89-8.89,0-2.46.99-4.68,2.6-6.29s3.83-2.61,6.29-2.61h82.57Z"/>
      </g>
      <g>
        <rect class="cls-3" x="3" y="3" width="206.13" height="200.4" rx="23.23" ry="23.23"/>
        <path class="cls-4" d="M169.08,163.32h-82.57c-4.91,0-8.89-3.98-8.89-8.89,0-2.46.99-4.68,2.6-6.29s3.83-2.61,6.29-2.61h82.57c4.91,0,8.89,3.99,8.89,8.9,0,2.46-1,4.68-2.6,6.29-1.61,1.61-3.84,2.6-6.29,2.6Z"/>
        <path class="cls-4" d="M62.03,101.2c0,5.46-4.42,9.89-9.88,9.89s-9.89-4.43-9.89-9.89,4.42-9.89,9.89-9.89,9.88,4.43,9.88,9.89Z"/>
        <circle class="cls-4" cx="52.71" cy="153.75" r="9.89"/>
        <path class="cls-4" d="M60.9,51.47c0,5.47-4.42,9.89-9.88,9.89s-9.89-4.42-9.89-9.89,4.42-9.88,9.89-9.88,9.88,4.42,9.88,9.88Z"/>
        <path class="cls-5" d="M170.53,109.93h-82.57c-4.91,0-8.89-3.98-8.89-8.9,0-2.46,1-4.68,2.6-6.29,1.61-1.61,3.84-2.6,6.29-2.6h82.57c4.91,0,8.89,3.98,8.89,8.89,0,2.46-.99,4.68-2.6,6.3-1.61,1.6-3.83,2.6-6.29,2.6Z"/>
        <path class="cls-5" d="M169.29,59.94h-82.56c-4.91,0-8.9-3.98-8.9-8.89,0-2.46,1-4.68,2.61-6.29s3.83-2.6,6.29-2.6h82.56c4.91,0,8.9,3.98,8.9,8.89,0,2.46-1,4.68-2.61,6.29s-3.83,2.6-6.29,2.6Z"/>
      </g>
    </g>
  </g>
</svg>