<?xml version="1.0" encoding="UTF-8"?>
<svg id="_图层_2" data-name="图层 2" xmlns="http://www.w3.org/2000/svg" xmlns:xlink="http://www.w3.org/1999/xlink" viewBox="0 0 231.59 248.68">
  <defs>
    <style>
      .cls-1 {
        fill: #7edfe3;
        stroke-width: 5px;
      }

      .cls-1, .cls-2 {
        stroke: #8e7cc3;
        stroke-linecap: round;
        stroke-linejoin: round;
      }

      .cls-3 {
        fill: url(#_未命名的渐变_1208);
      }

      .cls-4 {
        fill: #c8b6e2;
      }

      .cls-5 {
        fill: url(#_未命名的渐变_1208-3);
      }

      .cls-6 {
        fill: url(#_未命名的渐变_1208-2);
      }

      .cls-2 {
        fill: none;
        stroke-width: 6px;
      }
    </style>
    <linearGradient id="_未命名的渐变_1208" data-name="未命名的渐变 1208" x1="127.7" y1="164.11" x2="228.59" y2="164.11" gradientUnits="userSpaceOnUse">
      <stop offset="0" stop-color="#f6c2d3"/>
      <stop offset=".3" stop-color="#ecbfd6"/>
      <stop offset=".8" stop-color="#d3b9de"/>
      <stop offset="1" stop-color="#c8b6e2"/>
    </linearGradient>
    <linearGradient id="_未命名的渐变_1208-2" data-name="未命名的渐变 1208" x1="8.8" y1="205.77" x2="222.04" y2="205.77" xlink:href="#_未命名的渐变_1208"/>
    <linearGradient id="_未命名的渐变_1208-3" data-name="未命名的渐变 1208" x1="3" y1="166.13" x2="102.31" y2="166.13" xlink:href="#_未命名的渐变_1208"/>
  </defs>
  <g id="_图层_1-2" data-name="图层 1">
    <g>
      <g>
        <path class="cls-3" d="M228.56,209.47c-.05,6.62.18,10.54-.42,14.77-.63,4.66-2.89,9.1-6.1,12.7l-1.48-1.88c-18.24-13.49-74.75-54.41-92.44-67.49l-.42-.54c6.58-5.22,13.24-10.15,19.93-15.96,24.69-21.42,48.79-39.8,66.64-58.05l-1.9-1.75c9.56,3.87,16.52,13.97,16.14,24.31.18,22.06-.03,65.4.05,93.89Z"/>
        <path class="cls-6" d="M220.56,235.06l1.48,1.88c-3.21,3.6-7.37,6.36-11.77,7.67l-.12.04c-2.95.88-5.46.92-8.4.94h-44.81c-35.3,0-106.95-.01-125.77,0-.36,0-.71.01-1.07.04-8.03.54-16.13-3.25-21.3-9.47l1.93-.57c17.78-13.49,73-54.93,90.24-68.02l1.34-1.71c3.11,2.43,6.22,4.88,9.32,7.36,3.75,2.91,4.51,2.94,8.21.06,2.13-1.65,4.18-3.32,6.41-5.1.48-.39.96-.77,1.45-1.15l.42.54c17.69,13.08,74.2,54,92.44,67.49Z"/>
        <path class="cls-4" d="M212.37,91.27l1.9,1.75c-17.85,18.25-41.95,36.63-66.64,58.05-6.69,5.81-13.35,10.74-19.93,15.96-.49.38-.97.76-1.45,1.15-2.23,1.78-4.28,3.45-6.41,5.1-3.7,2.88-4.46,2.85-8.21-.06-3.1-2.48-6.21-4.93-9.32-7.36-30.35-23.82-61.09-46.11-90.68-69.76,4.49-4.02,10.24-6.58,15.83-6.51,31.06.27,128.29-.66,178.57.3,1.24.03,2.47.16,3.66.48.91.24,1.81.55,2.68.9Z"/>
        <path class="cls-4" d="M117.52,3.88l94.85,87.39c-.87-.35-1.77-.66-2.68-.9-1.19-.32-2.42-.45-3.66-.48-50.28-.96-147.51-.03-178.57-.3-5.59-.07-11.34,2.49-15.83,6.51-.01-.01-.03-.02-.04-.03L110.09,4.41c3.23-2.83,7.43-.53,7.43-.53Z"/>
        <path class="cls-5" d="M102.31,165.86l-1.34,1.71c-17.24,13.09-72.46,54.53-90.24,68.02l-1.93.57c-1.89-2.28-3.39-4.88-4.35-7.71-2-6.29-1.3-10.15-1.45-18.41-.01-19.9.01-60.34,0-83.37.12-5.93-.25-11.71.43-15.88.71-5.57,3.87-10.82,8.2-14.69,29.59,23.65,60.33,45.94,90.68,69.76Z"/>
      </g>
      <g>
        <path class="cls-2" d="M222.04,236.94c-3.21,3.6-7.37,6.36-11.77,7.67l-.12.04c-2.95.88-5.46.92-8.4.94h-44.81c-35.3,0-106.95-.01-125.77,0-.36,0-.71.01-1.07.04-8.03.54-16.13-3.25-21.3-9.47-1.89-2.28-3.39-4.88-4.35-7.71-2-6.29-1.3-10.15-1.45-18.41-.01-19.9.01-60.34,0-83.37.12-5.93-.25-11.71.43-15.88.71-5.57,3.87-10.82,8.2-14.69,4.49-4.02,10.24-6.58,15.83-6.51,31.06.27,128.29-.66,178.57.3,1.24.03,2.47.16,3.66.48.91.24,1.81.55,2.68.9,9.56,3.87,16.52,13.97,16.14,24.31.18,22.06-.03,65.4.05,93.89-.05,6.62.18,10.54-.42,14.77-.63,4.66-2.89,9.1-6.1,12.7Z"/>
        <path class="cls-2" d="M212.37,91.27l1.9,1.75c-17.85,18.25-41.95,36.63-66.64,58.05-6.69,5.81-13.35,10.74-19.93,15.96-.49.38-.97.76-1.45,1.15-2.23,1.78-4.28,3.45-6.41,5.1-3.7,2.88-4.46,2.85-8.21-.06-3.1-2.48-6.21-4.93-9.32-7.36-30.35-23.82-61.09-46.11-90.68-69.76-.01-.01-.03-.02-.04-.03L110.09,4.41c3.23-2.83,7.43-.53,7.43-.53l94.85,87.39Z"/>
        <path class="cls-2" d="M10.73,235.59c17.78-13.49,73-54.93,90.24-68.02"/>
        <path class="cls-2" d="M128.12,167.57c17.69,13.08,74.2,54,92.44,67.49"/>
      </g>
    </g>
    <polygon class="cls-1" points="191.93 112.3 191.93 112.3 35.44 113.74 116.16 175.15 191.93 112.3"/>
  </g>
</svg>