<?xml version="1.0" encoding="UTF-8"?>
<svg id="_图层_2" data-name="图层 2" xmlns="http://www.w3.org/2000/svg" xmlns:xlink="http://www.w3.org/1999/xlink" viewBox="0 0 268.37 219.28">
  <defs>
    <style>
      .cls-1 {
        fill: #7edfe3;
      }

      .cls-2 {
        fill: url(#_未命名的渐变_14);
      }

      .cls-3 {
        stroke: #8e7cc3;
        stroke-width: 6px;
      }

      .cls-3, .cls-4 {
        fill: none;
        stroke-miterlimit: 10;
      }

      .cls-4 {
        stroke: #7edfe3;
        stroke-width: 8px;
      }

      .cls-5 {
        fill: #f6c2d3;
      }
    </style>
    <linearGradient id="_未命名的渐变_14" data-name="未命名的渐变 14" x1="121.02" y1="103.44" x2="249.47" y2="103.44" gradientUnits="userSpaceOnUse">
      <stop offset="0" stop-color="#f4c1d4"/>
      <stop offset="1" stop-color="#d1b8df"/>
    </linearGradient>
  </defs>
  <g id="_图层_1-2" data-name="图层 1">
    <g>
      <g>
        <path class="cls-5" d="M265.09,27.54c2.12,9.98-8.32,21.73-14.33,29.7l-1.35.14c-1.29-7.1-17.99-16.63-25.54-21.53-5.03-3.03-11.72-6.74-15.22-7.39l-.14-.03c-.96-.23-1.86-.31-2.7-.24v-1.28c13.34-21.7,17.93-32.72,42.3-15.34,7.67,5.69,14.39,8.85,16.97,15.97Z"/>
        <path class="cls-2" d="M166.38,178.7c-1.36.03-2.89-.28-4.7-1.02-4.99-1.97-9.34-4.75-15.34-8.51-6.81-4.4-14.06-9.43-18.75-13.38-3.13-2.65-5.17-4.87-6.04-6.94-.16-.4-.28-.8-.37-1.19-.66-2.98.81-5.53,2.54-8.49,13.57-20.14,40.99-58.35,60.67-86.61,1.92-2.74,3.66-5.22,5.5-7.83,5.75-7.49,9.54-15.99,15.93-16.52.85-.06,1.74.01,2.7.24l.14.03c3.5.65,10.19,4.36,15.22,7.39,7.55,4.9,24.25,14.43,25.54,21.53.47,3.75-2.02,7.22-4.15,10.76-17.14,25.58-52.52,78.51-69.45,103.42-2.86,3.87-5.29,7.08-9.44,7.14Z"/>
        <path class="cls-1" d="M110.53,188.69c5.99,4.45,13.92,10.34,20.16,14.97-3.6,2.49-7.12,4.91-10.46,7.2-5.11,3.27-8.98,5.16-11.01,4.02-4.94-4.09-.78-18.21,1.25-26.19h.05Z"/>
      </g>
      <g>
        <path class="cls-3" d="M205.82,28.19c.85-.06,1.74.01,2.7.24l.14.03c3.5.65,10.19,4.36,15.22,7.39,7.55,4.9,24.25,14.43,25.54,21.53.47,3.75-2.02,7.22-4.15,10.76-17.14,25.58-52.52,78.51-69.45,103.42-2.86,3.87-5.29,7.08-9.44,7.14-1.36.03-2.89-.28-4.7-1.02-4.99-1.97-9.34-4.75-15.34-8.51-6.81-4.4-14.06-9.43-18.75-13.38-3.13-2.65-5.17-4.87-6.04-6.94-.16-.4-.28-.8-.37-1.19-.66-2.98.81-5.53,2.54-8.49,13.57-20.14,40.99-58.35,60.67-86.61,1.92-2.74,3.66-5.22,5.5-7.83,5.75-7.49,9.54-15.99,15.93-16.52Z"/>
        <path class="cls-3" d="M121.49,146.5c-.1.38-.21.77-.3,1.15-3.35,12.52-6.74,25.48-10.07,38.36-.17.78-.39,1.67-.64,2.67-2.04,7.98-6.19,22.1-1.25,26.19,2.04,1.14,5.9-.74,11.01-4.02,3.34-2.29,6.86-4.71,10.46-7.2,11.98-8.26,24.91-17.3,35.69-24.96.71-.5,1.41-1,2.1-1.49"/>
        <path class="cls-3" d="M110.53,188.69c5.99,4.45,13.92,10.34,20.16,14.97.28.21.55.41.82.62"/>
        <path class="cls-4" d="M134.22,156.66c20.4-29.8,62.15-90.76,82.9-121.06"/>
        <path class="cls-4" d="M152.9,169.42c20.4-30.1,61.97-91.46,82.71-122.07"/>
        <path class="cls-3" d="M205.83,26.91c13.33-21.7,17.92-32.72,42.29-15.34,7.67,5.69,14.39,8.85,16.97,15.97,2.12,9.98-8.32,21.73-14.33,29.7"/>
      </g>
    </g>
    <path class="cls-4" d="M2.95,200.59s10.75,11.71,22.61,2.64c0,0,11.84-8.72,21.86,4.34.69.39,9.08,10.5,22.43.07,13.35-10.43,12.7-4.73,20.92,1.78,0,0,7.38,8.98,15.07,4.71"/>
    <text/>
  </g>
</svg>