<?xml version="1.0" encoding="UTF-8"?>
<svg id="_图层_2" data-name="图层 2" xmlns="http://www.w3.org/2000/svg" xmlns:xlink="http://www.w3.org/1999/xlink" viewBox="0 0 164.48 218.21">
  <defs>
    <style>
      .cls-1 {
        fill: #7edfe3;
      }

      .cls-2 {
        fill: url(#_未命名的渐变_14);
      }

      .cls-3 {
        stroke: #8e7cc3;
      }

      .cls-3, .cls-4 {
        fill: none;
        stroke-miterlimit: 10;
        stroke-width: 6px;
      }

      .cls-4 {
        stroke: #7edfe3;
      }

      .cls-5 {
        fill: #f6c2d3;
      }
    </style>
    <linearGradient id="_未命名的渐变_14" data-name="未命名的渐变 14" x1="17.13" y1="103.43" x2="145.58" y2="103.43" gradientUnits="userSpaceOnUse">
      <stop offset="0" stop-color="#f4c1d4"/>
      <stop offset="1" stop-color="#d1b8df"/>
    </linearGradient>
  </defs>
  <g id="_图层_1-2" data-name="图层 1">
    <g>
      <g>
        <path class="cls-5" d="M161.2,27.53c2.12,9.98-8.32,21.73-14.33,29.7l-1.35.15c-1.29-7.11-17.99-16.64-25.54-21.54-5.04-3.03-11.72-6.74-15.23-7.39l-.13-.03c-.96-.23-1.86-.31-2.7-.24v-1.28c13.34-21.7,17.93-32.71,42.29-15.33,7.68,5.68,14.4,8.85,16.98,15.96Z"/>
        <path class="cls-2" d="M62.47,178.7c-1.36.03-2.89-.29-4.69-1.03-4.99-1.96-9.34-4.75-15.35-8.51-6.79-4.4-14.05-9.43-18.73-13.38-3.13-2.64-5.17-4.87-6.04-6.94-.16-.4-.28-.8-.37-1.19-.66-2.98.81-5.53,2.54-8.48,13.57-20.15,40.99-58.36,60.66-86.62,1.93-2.74,3.67-5.22,5.51-7.83,5.75-7.49,9.54-15.99,15.93-16.52.85-.06,1.74.01,2.7.24l.13.03c3.51.65,10.19,4.36,15.23,7.39,7.55,4.9,24.25,14.43,25.54,21.54.46,3.74-2.02,7.21-4.16,10.75-17.13,25.59-52.51,78.51-69.44,103.42-2.86,3.87-5.3,7.1-9.45,7.15Z"/>
        <path class="cls-1" d="M26.8,203.66c-3.6,2.49-7.12,4.9-10.46,7.19-5.11,3.28-8.99,5.17-11.01,4.02-4.94-4.09-.79-18.21,1.25-26.18h.05c6,4.46,13.92,10.34,20.16,14.98Z"/>
      </g>
      <g>
        <path class="cls-3" d="M101.92,28.18c.85-.06,1.74.01,2.7.24l.13.03c3.51.65,10.19,4.36,15.23,7.39,7.55,4.9,24.25,14.43,25.54,21.54.46,3.74-2.02,7.21-4.16,10.75-17.13,25.59-52.51,78.51-69.44,103.42-2.86,3.87-5.3,7.1-9.45,7.15-1.36.03-2.89-.29-4.69-1.03-4.99-1.96-9.34-4.75-15.35-8.51-6.79-4.4-14.05-9.43-18.73-13.38-3.13-2.64-5.17-4.87-6.04-6.94-.16-.4-.28-.8-.37-1.19-.66-2.98.81-5.53,2.54-8.48,13.57-20.15,40.99-58.36,60.66-86.62,1.93-2.74,3.67-5.22,5.51-7.83,5.75-7.49,9.54-15.99,15.93-16.52Z"/>
        <path class="cls-3" d="M17.59,146.51c-.1.38-.2.75-.3,1.14-3.35,12.52-6.74,25.49-10.07,38.37-.17.78-.39,1.67-.64,2.67-2.05,7.97-6.19,22.09-1.25,26.18,2.02,1.15,5.9-.73,11.01-4.02,3.34-2.29,6.86-4.7,10.46-7.19,11.97-8.26,24.9-17.31,35.67-24.96.71-.51,1.42-1.01,2.11-1.5"/>
        <path class="cls-3" d="M6.63,188.7c6,4.45,13.92,10.33,20.16,14.97.28.2.54.4.81.61"/>
        <path class="cls-4" d="M30.32,156.66c20.4-29.8,62.15-90.76,82.9-121.04"/>
        <path class="cls-4" d="M49.01,169.41c20.39-30.1,61.97-91.46,82.71-122.07"/>
        <path class="cls-3" d="M101.93,26.91c13.33-21.7,17.92-32.71,42.28-15.33,7.68,5.68,14.4,8.85,16.98,15.96,2.12,9.98-8.32,21.73-14.33,29.7"/>
      </g>
    </g>
  </g>
</svg>