<?xml version="1.0" encoding="UTF-8"?>
<svg id="_图层_2" data-name="图层 2" xmlns="http://www.w3.org/2000/svg" xmlns:xlink="http://www.w3.org/1999/xlink" viewBox="0 0 246.68 248.06">
  <defs>
    <style>
      .cls-1 {
        fill: #c8b6e2;
      }

      .cls-2 {
        fill: #f2c6d3;
      }

      .cls-3 {
        fill: #7edfe3;
      }

      .cls-4 {
        fill: url(#_未命名的渐变_576);
      }

      .cls-5 {
        fill: url(#_未命名的渐变_17);
      }

      .cls-6 {
        fill: none;
        stroke: #8e7cc3;
        stroke-miterlimit: 10;
        stroke-width: 6px;
      }
    </style>
    <linearGradient id="_未命名的渐变_17" data-name="未命名的渐变 17" x1="48.06" y1="100.58" x2="245.35" y2="100.58" gradientUnits="userSpaceOnUse">
      <stop offset="0" stop-color="#42c5c8"/>
      <stop offset="0" stop-color="#43c5c8"/>
      <stop offset=".09" stop-color="#58ced2"/>
      <stop offset=".19" stop-color="#69d6d9"/>
      <stop offset=".32" stop-color="#75dbdf"/>
      <stop offset=".5" stop-color="#7cdee2"/>
      <stop offset="1" stop-color="#7edfe3"/>
    </linearGradient>
    <linearGradient id="_未命名的渐变_576" data-name="未命名的渐变 576" x1="9.25" y1="220.97" x2="231.1" y2="220.97" gradientUnits="userSpaceOnUse">
      <stop offset="0" stop-color="#f6c2d3"/>
      <stop offset=".33" stop-color="#f8d2de"/>
      <stop offset=".96" stop-color="#fefcfc"/>
      <stop offset="1" stop-color="#fff"/>
    </linearGradient>
  </defs>
  <g id="_图层_1-2" data-name="图层 1">
    <g>
      <g>
        <path class="cls-3" d="M244.95,15.64c.34,1.21.49,2.45.4,3.67v77.72c.01,14.11,0,27.89,0,41.49-.04-10.95-.06-22.02-.01-33.14V20.13c0-1.63.01-3.01-.39-4.49Z"/>
        <path class="cls-1" d="M245.35,138.52c.03,11.26.06,22.42,0,33.41v-33.41Z"/>
        <path class="cls-3" d="M245.35,173.19v.24c-.09,5.98.22,12.35-.26,18.27-.3,2.72-1.1,3.25-2.82,3.34-.23-.01-.49-.01-.75-.02h-10c4.45,0,7.9,0,10.08-.02,2.99.24,3.36-2.23,3.54-4.61.1-5.67.17-11.41.21-17.19Z"/>
        <path class="cls-5" d="M245.35,171.92v1.27c-.04,5.78-.1,11.52-.21,17.19-.18,2.38-.56,4.85-3.54,4.61-2.18.02-5.63.02-10.08.02h-3.09c-7.81,0-18.04-.01-29.67,0-27.38-.01-57.47-.01-84.24-.01h-3.49c-18.97,0-36.49,0-49.98.01h-6.24c-.5-.02-1-.02-1.49,0h-3.64c-.79-.16-1.37-.52-1.62-1.32h0c.01-.71.01-1.49.01-2.33.01-2.2.03-4.87.04-7.94.01-2.19.03-4.56.04-7.12v-.28c.76-23.8.59-62.26.5-98.21v-.87c.06-12.33.13-24.11.18-34.52,0-1.06.01-2.11.01-3.14.01-1.15.01-2.28.01-3.38.3-4.18.21-8.66.06-12.82.01-.01.01-.02,0-.04.04-5.73.06-10.48.08-13.92v-.02c.32-1.97.97-3.08,2.16-2.9,44.29-.19,144.59.07,180.57-.04l.31-.04c1.11.02,2.16.06,3.11.12,1.34.25,2.62.77,3.79,1.49.01,0,.03.01.03.01,2.2,1.47,3.92,3.72,5.16,5.83.22.42.4.83.56,1.23.1.28.19.56.27.82.4,1.49.39,2.86.39,4.49v85.24c-.05,11.12-.03,22.19.01,33.14v33.41Z"/>
        <path class="cls-2" d="M245.22,243.22c1.06,3.57.39,3.65-2.34,3.69h-.57c1.87-.06,2.39-.42,1.63-3.13-5.56-17.28-7.46-30.82.76-47.51.34,1.45-.48,3.1-.85,4.58-1.95,5.48-3.99,14.14-3.32,20.77v.23c.47,7.18,2.65,14.55,4.69,21.37Z"/>
        <path class="cls-4" d="M244.56,195.85c.05.14.1.28.14.42-8.22,16.69-6.32,30.23-.76,47.51.76,2.7.25,3.07-1.63,3.13h-12.38c-46.46,0-169.8.01-196.33-.01-5.32-.23-10.31-3.83-14.73-6.99-8.39-5.9-14.86-15.55-10.22-25.1.01-.04.04-.08.06-.12.08-.13.18-.28.27-.41,6.18-9.3,17.42-19,30.14-18.27,3.09-.16,5.85-.33,7.35-.98,1.02-.01,2.09-.01,3.23,0t.03,0c.96.18,2.21.05,3.5-.01h1.62c.19.01.4.02.59.05h184.2c1.06-.01,1.93.01,2.64-.02.96.04,1.74.11,2.29.81Z"/>
        <path class="cls-3" d="M244.67,14.82c-.16-.4-.34-.81-.56-1.23-1.24-2.11-2.96-4.36-5.16-5.83,2.62,1.62,4.7,4.23,5.71,7.06Z"/>
        <path class="cls-2" d="M242.27,195.05c-.71.04-1.58.01-2.64.02H55.44c-.19-.02-.4-.04-.59-.05h6.2c13.18,0,30.63,0,49.98-.01h3.49c40.09.01,85.88.04,113.91.01h13.09c.26.01.52.01.75.02Z"/>
        <path class="cls-1" d="M235.43,6.27c1.28.24,2.44.76,3.5,1.47-1.16-.71-2.44-1.23-3.79-1.49.1,0,.19,0,.28.01Z"/>
        <path class="cls-3" d="M232.04,6.14c1.07-.13,2.11-.08,3.11.12-.96-.06-2-.1-3.11-.12Z"/>
        <path class="cls-1" d="M49,9.11v.02s-.03.1-.03.14c0-.19.01-.4.01-.59.04-1.22-.35-2.04-1.21-2.56,33.06-.16,124.39.17,173.28.01,3.4.02,7.48-.06,10.98,0l-.31.04c-35.98.11-136.28-.16-180.57.04-1.19-.18-1.83.93-2.16,2.9Z"/>
        <path class="cls-3" d="M228.43,195.02c-28.03.02-73.83,0-113.91-.01,26.78,0,56.86,0,84.24.01,11.63-.01,21.86,0,29.67,0Z"/>
        <path class="cls-2" d="M111.03,195.01c-19.36.01-36.8.01-49.98.01,13.49-.01,31.01-.01,49.98-.01Z"/>
        <path class="cls-1" d="M54.8,195.02h-1.49c.49-.02.98-.02,1.49,0Z"/>
        <path class="cls-3" d="M53.23,195.02c-1.21,0-2.39,0-3.5.01t-.03,0s-.01-.01-.03-.01h3.55Z"/>
        <path class="cls-2" d="M49.73,195.03c1.11-.01,2.29-.01,3.5-.01-1.29.06-2.55.19-3.5.01Z"/>
        <path class="cls-2" d="M49.67,195.02s.01,0,.03.01c-1.14-.01-2.21-.01-3.23,0h.01c.52-.01,1.03-.01,1.58-.01h1.62Z"/>
        <path class="cls-1" d="M49.67,195.02h-1.62v-1.32c.25.8.83,1.16,1.62,1.32Z"/>
        <path class="cls-3" d="M48.98,9.28s.01-.1.03-.14c-.01,3.44-.04,8.19-.08,13.92-.04-1.45-.09-2.86-.13-4.2.05-3.42.1-6.63.18-9.57Z"/>
        <path class="cls-1" d="M47.77,6.13c.87.52,1.25,1.34,1.21,2.56,0,.19-.01.4-.01.59-.36,2.28-.31,5.67-.18,9.57-.22,15.93-.21,36.52-.14,58.1v.77c0,.41,0,.81-.01,1.22,0,2.1-.01,4.24-.03,6.36,0,1.15-.01,2.29-.01,3.44-.03,4.91-.05,9.88-.08,14.81-.01,1.44-.01,2.87-.03,4.3-.1,20.19-.21,39.94-.28,55.82-.01,1.29-.03,2.58-.03,3.88,0,1.67-.01,3.27-.03,4.82,0,1.36-.01,2.72-.03,4.06-.26,8.04-.62,14.37-1.14,18.3-.14.11-.32.21-.52.29h-2.18c-.3,0-.59,0-.89.01h-2.22c-5.25.04-11.89.14-17.34,2.95-6.86,3.75-13.89,10.17-17.03,17.52-.61,1.39-.98,2.78-1.16,4.15-.53.8-.47-.06-.48-1.92v-.54c.18-11.42.09-36.96-.01-65.93.01-37.51.05-78.03.04-102.25.09-8.77.23-15.91.45-20.71,1.85-8.4,8.28-16.29,16.7-19.92,6.59-2.9,14.87-2.04,21.93-2.23,1.09-.01,2.25-.01,3.5-.01Z"/>
        <path class="cls-2" d="M48.92,23.09c.14,4.17.23,8.64-.06,12.82.03-4.66.05-8.97.06-12.82Z"/>
        <path class="cls-2" d="M48.92,23.06s.01.02,0,.04c-.01,3.85-.04,8.16-.06,12.82,0,1.1,0,2.23-.01,3.38-.01,1.04-.01,2.09-.01,3.14-.05,10.41-.12,22.19-.18,34.52-.06-21.58-.08-42.17.14-58.1.04,1.34.09,2.75.13,4.2Z"/>
        <path class="cls-3" d="M48.85,39.3c0,1.03-.01,2.08-.01,3.14,0-1.05,0-2.1.01-3.14Z"/>
        <path class="cls-1" d="M48.98,9.28c-.08,2.95-.13,6.16-.18,9.57-.13-3.9-.18-7.29.18-9.57Z"/>
        <path class="cls-1" d="M48.65,77.82c.09,35.94.26,74.41-.5,98.21.01-1.18.01-2.4.01-3.66.01-1.55.03-3.15.03-4.82.01-1.27.03-2.56.03-3.88.08-15.88.18-35.63.28-55.82.01-1.44.01-2.87.03-4.3.03-4.94.05-9.9.08-14.81,0-1.15,0-2.29.01-3.44.01-2.12.03-4.26.03-6.36.01-.37.01-.75.01-1.12Z"/>
        <path class="cls-1" d="M48.65,77.73v.1c0,.37,0,.75-.01,1.12.01-.41.01-.81.01-1.22Z"/>
        <path class="cls-1" d="M48.61,85.31c-.01,1.15-.01,2.29-.01,3.44,0-1.15.01-2.29.01-3.44Z"/>
        <path class="cls-1" d="M48.52,103.56c-.01,1.42-.01,2.86-.03,4.3.01-1.42.01-2.86.03-4.3Z"/>
        <path class="cls-1" d="M48.19,167.55c0-1.29.01-2.58.03-3.88,0,1.32-.01,2.61-.03,3.88Z"/>
        <path class="cls-1" d="M48.14,176.43c.01-1.34.03-2.69.03-4.06,0,1.26,0,2.48-.01,3.66v.28s0,.07-.01.12Z"/>
        <path class="cls-3" d="M48.14,176.43s.01-.08.01-.12c-.01,2.56-.03,4.94-.04,7.12.01-2.32.03-4.65.03-7Z"/>
        <path class="cls-1" d="M48.14,176.43c0,2.35-.01,4.68-.03,7-.01,3.08-.03,5.75-.04,7.94-.19,1.01-.18,1.76-.01,2.32h0v1.33h-1.58c.19-.08.37-.18.52-.29.52-3.94.88-10.26,1.14-18.3Z"/>
        <path class="cls-3" d="M48.07,191.38c0,.85,0,1.62-.01,2.32-.17-.56-.18-1.3.01-2.32Z"/>
        <path class="cls-1" d="M47.77,6.13c-1.25,0-2.42,0-3.5.01-7.06.19-15.34-.66-21.93,2.23-8.41,3.63-14.85,11.52-16.7,19.92.01-.48.04-.95.06-1.39C11.02,8.42,26.75,2.89,45.73,5.49l.13.02c.8.12,1.43.31,1.91.62Z"/>
        <path class="cls-1" d="M46.48,195.02h-.01c-1.09.01-2.11.01-3.06.01.3-.01.59-.01.89-.01h2.18Z"/>
        <path class="cls-1" d="M43.41,195.03h3.06c-1.5.65-4.26.82-7.35.98-12.72-.74-23.96,8.97-30.14,18.27-.09.13-.19.28-.27.41,3.48-7.32,10.29-13.44,17.08-17.02,5.52-2.67,12.29-2.62,17.48-2.63h.13Z"/>
        <path class="cls-1" d="M41.18,195.03h2.09c-5.19.01-11.97-.04-17.48,2.63-6.8,3.59-13.61,9.71-17.08,17.02-1.03,1.5-1.96,3.04-2.82,4.54-.09.17-.18.31-.25.42.18-1.38.56-2.76,1.16-4.15,3.14-7.35,10.17-13.76,17.03-17.52,5.45-2.8,12.1-2.91,17.34-2.95Z"/>
        <path class="cls-2" d="M33.6,246.9h-.97c-6.23-.23-11.95-4.61-16.92-8.33-6.31-4.85-10.98-11.69-10.07-18.92.06-.11.16-.25.25-.42.85-1.5,1.78-3.04,2.82-4.54-.03.04-.05.08-.06.12-4.64,9.55,1.83,19.2,10.22,25.1,4.42,3.16,9.41,6.76,14.73,6.99Z"/>
        <path class="cls-1" d="M5.2,49c.01,24.22-.03,64.74-.04,102.25-.12-35.46-.26-76.08.04-102.25Z"/>
      </g>
      <g>
        <path class="cls-6" d="M242.93,13.76c.34,1.21.49,2.45.4,3.67v77.72c.01,14.11,0,27.89,0,41.49v33.41"/>
        <path class="cls-6" d="M236.94,5.87c2.62,1.62,4.7,4.23,5.71,7.06"/>
        <path class="cls-6" d="M46.98,7.23c.32-1.97.97-3.08,2.16-2.9,44.29-.19,144.59.07,180.57-.04l.31-.04c1.07-.13,2.11-.08,3.11.12,1.34.25,2.62.77,3.79,1.49"/>
        <path class="cls-6" d="M46.96,7.39s.01-.1.03-.14"/>
        <path class="cls-6" d="M46.91,21.17c-.04-1.45-.09-2.86-.13-4.2"/>
        <path class="cls-6" d="M46.84,34.03c.3-4.18.21-8.66.06-12.82"/>
        <path class="cls-6" d="M46.82,40.55c0-1.05,0-2.1.01-3.14"/>
        <path class="cls-6" d="M46.09,181.54c.01-2.32.03-4.65.03-7"/>
        <path class="cls-6" d="M46.04,191.81c-.17-.56-.18-1.3.01-2.32"/>
        <path class="cls-6" d="M47.68,193.15s-.01-.01-.03-.01c-.79-.16-1.37-.52-1.62-1.32"/>
        <path class="cls-6" d="M52.79,193.14c-.5-.02-1-.02-1.49,0"/>
        <path class="cls-6" d="M243.33,171.31v.24c-.09,5.98.22,12.35-.26,18.27-.3,2.72-1.1,3.25-2.82,3.34"/>
        <path class="cls-6" d="M229.5,193.14h10c.26.01.52.01.75.02.96.04,1.74.11,2.29.81.05.14.1.28.14.42.34,1.45-.48,3.1-.85,4.58-1.95,5.48-3.99,14.14-3.32,20.77v.23c.47,7.18,2.65,14.55,4.69,21.37,1.06,3.57.39,3.65-2.34,3.69h-12.95c-46.46,0-169.8.01-196.33-.01h-.97c-6.23-.23-11.95-4.61-16.92-8.33-6.31-4.85-10.98-11.69-10.07-18.92"/>
        <path class="cls-6" d="M112.5,193.12c40.09.01,85.88.04,113.91.01"/>
        <path class="cls-6" d="M59.03,193.14c13.49-.01,31.01-.01,49.98-.01"/>
        <path class="cls-6" d="M47.71,193.15c1.11-.01,2.29-.01,3.5-.01"/>
        <path class="cls-6" d="M44.45,193.15c1.02-.01,2.09-.01,3.23,0"/>
        <path class="cls-6" d="M3.15,215.3c.18-11.42.09-36.96-.01-65.93-.12-35.46-.26-76.08.04-102.25.09-8.77.23-15.91.45-20.71.01-.48.04-.95.06-1.39C9,6.54,24.73,1.01,43.71,3.6l.13.02c.8.12,1.43.31,1.91.62.87.52,1.25,1.34,1.21,2.56,0,.19-.01.4-.01.59-.08,2.95-.13,6.16-.18,9.57-.22,15.93-.21,36.52-.14,58.1"/>
        <path class="cls-6" d="M46.13,174.42s0,.07-.01.12c-.26,8.04-.62,14.37-1.14,18.3-.14.11-.32.21-.52.29h-.01c-1.5.66-4.26.83-7.35.99-12.72-.74-23.96,8.97-30.14,18.27-.09.13-.19.28-.27.41-1.03,1.5-1.96,3.04-2.82,4.54-.09.17-.18.31-.25.42-.53.8-.47-.06-.48-1.92"/>
        <path class="cls-6" d="M46.63,75.94c.09,35.94.26,74.41-.5,98.21"/>
        <path class="cls-6" d="M41.26,193.15c-5.19.01-11.97-.04-17.48,2.63-6.8,3.59-13.61,9.71-17.08,17.02-.03.04-.05.08-.06.12-4.64,9.55,1.83,19.2,10.22,25.1,4.42,3.16,9.41,6.76,14.73,6.99.05.01.12.01.17.01,21.05.06,150.11,0,197.61.02,3.93-.02,6.45.01,9.39,0,.58-.01,1.1-.01,1.54-.02,1.87-.06,2.39-.42,1.63-3.13-5.56-17.28-7.46-30.82.76-47.51.21-.41.41-.83.63-1.26"/>
        <path class="cls-6" d="M51.21,193.14h-8.93c-.3,0-.59,0-.89.01"/>
        <path class="cls-6" d="M52.79,193.14h-1.49"/>
        <path class="cls-6" d="M3.16,219.98c0-1.32,0-2.69-.01-4.13v-.54c-.03-16.66-.03-40.62-.01-65.93.01-37.51.05-78.03.04-102.25,0-5.57,0-10.27-.01-13.88-.22-2.26-.05-4.55.47-6.82,1.85-8.4,8.28-16.29,16.7-19.92,6.59-2.9,14.87-2.04,21.93-2.23,1.09-.01,2.25-.01,3.5-.01,33.06-.16,124.39.17,173.28.01,3.4.02,7.48-.06,10.98,0,1.11.02,2.16.06,3.11.12.1,0,.19,0,.28.01,1.28.24,2.44.76,3.5,1.47.01,0,.03.01.03.01,2.2,1.47,3.92,3.72,5.16,5.83.22.42.4.83.56,1.23.1.28.19.56.27.82.4,1.49.39,2.86.39,4.49v85.24c-.05,11.12-.03,22.19.01,33.14.03,11.26.06,22.42,0,33.41v1.27c-.04,5.78-.1,11.52-.21,17.19-.18,2.38-.56,4.85-3.54,4.61-2.18.02-5.63.02-10.08.02h-3.09c-7.81,0-18.04-.01-29.67,0-27.38-.01-57.47-.01-84.24-.01h-3.49c-19.36.01-36.8.01-49.98.01h-6.2"/>
        <path class="cls-6" d="M42.2,219.98h194.46"/>
        <path class="cls-6" d="M46.63,75.07c.06-12.33.13-24.11.18-34.52,0-1.06.01-2.11.01-3.14.01-1.15.01-2.28.01-3.38.03-4.66.05-8.97.06-12.82.01-.01.01-.02,0-.04.04-5.73.06-10.48.08-13.92v-.02c0-1.1.01-2.06.01-2.89"/>
        <path class="cls-6" d="M46.58,86.86c0-1.15.01-2.29.01-3.44.01-2.12.03-4.26.03-6.36.01-.37.01-.75.01-1.12v-.1"/>
        <path class="cls-6" d="M46.17,165.67c.01-1.27.03-2.56.03-3.88.08-15.88.18-35.63.28-55.82.01-1.42.01-2.86.03-4.3"/>
        <path class="cls-6" d="M46.04,193.14v-1.32h0c.01-.71.01-1.49.01-2.33.01-2.2.03-4.87.04-7.94.01-2.19.03-4.56.04-7.12v-.28c.01-1.18.01-2.4.01-3.66"/>
      </g>
    </g>
  </g>
</svg>