<?xml version="1.0" encoding="UTF-8"?>
<svg id="_图层_2" xmlns="http://www.w3.org/2000/svg" xmlns:xlink="http://www.w3.org/1999/xlink" version="1.1" viewBox="0 0 295.7 208.8">
  <!-- Generator: Adobe Illustrator 30.3.0, SVG Export Plug-In . SVG Version: 2.1.3 Build 182)  -->
  <defs>
    <style>
      .st0 {
        fill: url(#_未命名的渐变_2);
      }

      .st1 {
        fill: #c8b6e2;
      }

      .st2 {
        fill: url(#_未命名的渐变);
      }

      .st3 {
        stroke: #8e7cc3;
      }

      .st3, .st4 {
        fill: none;
        stroke-miterlimit: 10;
        stroke-width: 6px;
      }

      .st4 {
        stroke: #7edfe3;
      }
    </style>
    <linearGradient id="_未命名的渐变" data-name="未命名的渐变" x1="148.5" y1="79.6" x2="268.6" y2="79.6" gradientTransform="translate(0 180) scale(1 -1)" gradientUnits="userSpaceOnUse">
      <stop offset="0" stop-color="#42c5c8"/>
      <stop offset="0" stop-color="#51c4c8"/>
      <stop offset="0" stop-color="#c7c2d0"/>
      <stop offset="0" stop-color="#f6c2d3"/>
      <stop offset=".3" stop-color="#f6c5d5"/>
      <stop offset=".5" stop-color="#f7cedc"/>
      <stop offset=".7" stop-color="#fadee7"/>
      <stop offset=".9" stop-color="#fdf5f8"/>
      <stop offset="1" stop-color="#fff"/>
    </linearGradient>
    <linearGradient id="_未命名的渐变_2" data-name="未命名的渐变 2" x1="28.5" y1="80.1" x2="148.5" y2="80.1" gradientTransform="translate(0 180) scale(1 -1)" gradientUnits="userSpaceOnUse">
      <stop offset="0" stop-color="#fff"/>
      <stop offset="0" stop-color="#fdf5f7"/>
      <stop offset=".3" stop-color="#fadee7"/>
      <stop offset=".5" stop-color="#f7cedc"/>
      <stop offset=".7" stop-color="#f6c4d5"/>
      <stop offset="1" stop-color="#f6c2d3"/>
    </linearGradient>
  </defs>
  <g id="_图层_1-2">
    <g>
      <g>
        <path class="st1" d="M148.2,200h0c0,0-14.3.7-14.3.7,0,0-22.8-27.7-128.8-11L3.8,34.5l24.3-3.2h1.3c-.5,42.6-.8,130.7-.8,130.7,0,0,67-11.6,119,29.6.4.1.7-1.2,1-3.7.3,2.9.6,4.4,1,4.3,52-41.2,119-29.6,119-29.6,0,0-.4-89-.8-131.4l24.3,3.2-1.3,155.2c-106-16.7-128.8,11-128.8,11l-13.7-.6h0Z"/>
        <path class="st2" d="M267.7,31.2c.5,42.4.8,131.4.8,131.4,0,0-67-11.6-119,29.6-.4.1-.8-1.4-1-4.3,1.8-17.3.7-90.4,0-123.8.2-10,.3-16.3.3-16.3,0,0,70.9-45.1,118.4-38.7.2,0,.3,8.7.5,21.9h0Z"/>
        <path class="st0" d="M148.2,47.4s.1,6.5.3,16.8c-.6,32.8-1.7,105.4,0,123.8-.3,2.5-.6,3.8-1,3.7-52-41.2-119-29.6-119-29.6,0,0,.4-88.1.8-130.7,0-.2,0-.4,0-.6.1-13.2.3-21.9.5-21.9,47.5-6.4,118.4,38.6,118.4,38.6h0Z"/>
      </g>
      <g>
        <path class="st3" d="M148.5,64.2c.2-10,.3-16.3.3-16.3,0,0,70.9-45.1,118.4-38.7.2,0,.3,8.7.5,21.9.5,42.4.8,131.4.8,131.4,0,0-67-11.6-119,29.6-.4.1-.8-1.4-1-4.3-1.7-18.3-.6-90.9,0-123.8h0Z"/>
        <path class="st3" d="M267.7,31.2l24.3,3.2-1.3,155.2c-106-16.7-128.8,11-128.8,11l-13.7-.6h-.6"/>
        <path class="st3" d="M148.5,64.2c-.2-10.3-.3-16.8-.3-16.8,0,0-70.9-45.1-118.4-38.6-.2,0-.3,8.7-.5,21.9,0,.2,0,.4,0,.6-.5,42.6-.8,130.7-.8,130.7,0,0,67-11.6,119,29.6.4.1.7-1.2,1-3.7,1.8-17.3.7-90.4,0-123.8h0Z"/>
        <path class="st3" d="M28,31.3l-24.3,3.2,1.3,155.2c106-16.7,128.8,11,128.8,11l14.3-.6"/>
        <path class="st4" d="M172.3,64.7s49.4-26.4,69-21.3"/>
        <path class="st4" d="M171,93.7s52-25.1,72.2-20.6"/>
        <path class="st4" d="M174.2,122s26.7-20,65.7-21.3"/>
        <path class="st4" d="M174.9,149.1s11.1-12.2,67-19.3"/>
        <path class="st4" d="M124.9,66.4s-49.5-26.4-69-21.2"/>
        <path class="st4" d="M126.2,95.4s-52-25.1-72.2-20.6"/>
        <path class="st4" d="M122.9,123.7s-26.7-20-65.7-21.3"/>
        <path class="st4" d="M122.3,150.8s-11.1-12.2-67-19.3"/>
      </g>
    </g>
  </g>
</svg>