<?xml version="1.0" encoding="UTF-8"?>
<svg id="_图层_2" data-name="图层 2" xmlns="http://www.w3.org/2000/svg" xmlns:xlink="http://www.w3.org/1999/xlink" viewBox="0 0 192.25 206.48">
  <defs>
    <style>
      .cls-1 {
        fill: #c8b6e2;
      }

      .cls-2 {
        fill: #f2c6d3;
      }

      .cls-3 {
        fill: #7edfe3;
      }

      .cls-4 {
        fill: url(#_未命名的渐变_576);
      }

      .cls-5 {
        fill: url(#_未命名的渐变_17);
      }

      .cls-6 {
        fill: none;
        stroke: #8e7cc3;
        stroke-miterlimit: 10;
        stroke-width: 6px;
      }
    </style>
    <linearGradient id="_未命名的渐变_17" data-name="未命名的渐变 17" x1="37.87" y1="83.82" x2="190.54" y2="83.82" gradientUnits="userSpaceOnUse">
      <stop offset="0" stop-color="#42c5c8"/>
      <stop offset="0" stop-color="#43c5c8"/>
      <stop offset=".09" stop-color="#58ced2"/>
      <stop offset=".19" stop-color="#69d6d9"/>
      <stop offset=".32" stop-color="#75dbdf"/>
      <stop offset=".5" stop-color="#7cdee2"/>
      <stop offset="1" stop-color="#7edfe3"/>
    </linearGradient>
    <linearGradient id="_未命名的渐变_576" data-name="未命名的渐变 576" x1="7.84" y1="183.53" x2="179.51" y2="183.53" gradientUnits="userSpaceOnUse">
      <stop offset="0" stop-color="#f6c2d3"/>
      <stop offset=".33" stop-color="#f8d2de"/>
      <stop offset=".96" stop-color="#fefcfc"/>
      <stop offset="1" stop-color="#fff"/>
    </linearGradient>
  </defs>
  <g id="_图层_1-2" data-name="图层 1">
    <g>
      <g>
        <path class="cls-3" d="M190.23,13.47c.26,1,.38,2.03.31,3.04v64.37c0,11.69,0,23.1,0,34.36-.03-9.07-.05-18.24-.01-27.45V17.19c0-1.35.01-2.49-.3-3.72Z"/>
        <path class="cls-1" d="M190.54,115.24c.02,9.33.05,18.57,0,27.67v-27.67Z"/>
        <path class="cls-3" d="M190.54,143.96v.2c-.07,4.95.17,10.23-.2,15.13-.23,2.25-.85,2.69-2.18,2.77-.18,0-.38,0-.58-.02h-7.74c3.44,0,6.11,0,7.8-.02,2.31.2,2.6-1.85,2.74-3.82.08-4.7.13-9.45.16-14.24Z"/>
        <path class="cls-5" d="M190.54,142.91v1.05c-.03,4.79-.08,9.54-.16,14.24-.14,1.97-.43,4.02-2.74,3.82-1.69.02-4.36.02-7.8.02h-2.39c-6.04,0-13.96-.01-22.96,0-21.19-.01-44.47-.01-65.19-.01h-2.7c-14.68,0-28.24,0-38.68.01h-4.83c-.39-.02-.77-.02-1.15,0h-2.82c-.61-.13-1.06-.43-1.25-1.09h0c.01-.59.01-1.23.01-1.93,0-1.82.02-4.03.03-6.58,0-1.81.02-3.78.03-5.9v-.23c.59-19.71.46-51.57.39-81.34v-.72c.05-10.21.1-19.97.14-28.59,0-.88.01-1.75.01-2.6.01-.95.01-1.89.01-2.8.23-3.46.16-7.17.05-10.62.01,0,.01-.02,0-.03.03-4.75.05-8.68.06-11.53v-.02c.25-1.63.75-2.55,1.67-2.4,34.27-.16,111.89.06,139.73-.03l.24-.03c.86.02,1.67.05,2.41.1,1.04.21,2.03.64,2.93,1.23.01,0,.02.01.02.01,1.7,1.22,3.03,3.08,3.99,4.83.17.35.31.69.43,1.02.08.23.15.46.21.68.31,1.23.3,2.37.3,3.72v70.6c-.04,9.21-.02,18.38.01,27.45v27.67Z"/>
        <path class="cls-2" d="M190.44,201.96c.82,2.96.3,3.02-1.81,3.06h-.44c1.45-.05,1.85-.35,1.26-2.59-4.3-14.31-5.77-25.53.59-39.35.26,1.2-.37,2.57-.66,3.79-1.51,4.54-3.09,11.71-2.57,17.2v.19c.36,5.95,2.05,12.05,3.63,17.7Z"/>
        <path class="cls-4" d="M189.93,162.73c.04.12.08.23.11.35-6.36,13.82-4.89,25.04-.59,39.35.59,2.24.19,2.54-1.26,2.59h-9.58c-35.95,0-131.4.01-151.93,0-4.12-.19-7.98-3.17-11.4-5.79-6.49-4.89-11.5-12.88-7.91-20.79.01-.03.03-.07.05-.1.06-.11.14-.23.21-.34,4.78-7.7,13.48-15.74,23.32-15.13,2.39-.13,4.53-.27,5.69-.81.79-.01,1.62-.01,2.5,0t.02,0c.74.15,1.71.04,2.71-.01h1.25c.15.01.31.02.46.04h142.54c.82-.01,1.49.01,2.04-.02.74.03,1.35.09,1.77.67Z"/>
        <path class="cls-3" d="M190.02,12.79c-.12-.33-.26-.67-.43-1.02-.96-1.75-2.29-3.61-3.99-4.83,2.03,1.34,3.64,3.5,4.42,5.85Z"/>
        <path class="cls-2" d="M188.16,162.06c-.55.03-1.22.01-2.04.02H43.58c-.15-.02-.31-.03-.46-.04h4.8c10.2,0,23.7,0,38.68-.01h2.7c31.02.01,66.46.03,88.15.01h10.13c.2.01.4.01.58.02Z"/>
        <path class="cls-1" d="M182.87,5.71c.99.2,1.89.63,2.71,1.22-.9-.59-1.89-1.02-2.93-1.23.08,0,.15,0,.22.01Z"/>
        <path class="cls-3" d="M180.24,5.6c.83-.11,1.63-.07,2.41.1-.74-.05-1.55-.08-2.41-.1Z"/>
        <path class="cls-1" d="M38.6,8.06v.02s-.02.08-.02.12c0-.16.01-.33.01-.49.03-1.01-.27-1.69-.94-2.12,25.58-.13,96.26.14,134.09,0,2.63.02,5.79-.05,8.5,0l-.24.03c-27.84.09-105.46-.13-139.73.03-.92-.15-1.42.77-1.67,2.4Z"/>
        <path class="cls-3" d="M177.45,162.04c-21.69.02-57.13,0-88.15-.01,20.72,0,44,0,65.19.01,9-.01,16.92,0,22.96,0Z"/>
        <path class="cls-2" d="M86.6,162.03c-14.98.01-28.48.01-38.68.01,10.44-.01,24-.01,38.68-.01Z"/>
        <path class="cls-1" d="M43.09,162.04h-1.15c.38-.02.76-.02,1.15,0Z"/>
        <path class="cls-3" d="M41.87,162.04c-.94,0-1.85,0-2.71.01t-.02,0s0-.01-.02-.01h2.75Z"/>
        <path class="cls-2" d="M39.16,162.05c.86-.01,1.77-.01,2.71-.01-1,.05-1.97.16-2.71.01Z"/>
        <path class="cls-2" d="M39.12,162.04s.01,0,.02.01c-.88-.01-1.71-.01-2.5,0h.01c.4-.01.8-.01,1.22-.01h1.25Z"/>
        <path class="cls-1" d="M39.12,162.04h-1.25v-1.09c.19.66.64.96,1.25,1.09Z"/>
        <path class="cls-3" d="M38.58,8.2s.01-.08.02-.12c0,2.85-.03,6.78-.06,11.53-.03-1.2-.07-2.37-.1-3.48.04-2.83.08-5.49.14-7.93Z"/>
        <path class="cls-1" d="M37.65,5.59c.67.43.97,1.11.94,2.12,0,.16-.01.33-.01.49-.28,1.89-.24,4.7-.14,7.93-.17,13.19-.16,30.25-.11,48.12v.64c0,.34,0,.67-.01,1.01,0,1.74-.01,3.51-.02,5.27,0,.95-.01,1.9-.01,2.85-.02,4.07-.04,8.18-.06,12.27-.01,1.19-.01,2.38-.02,3.56-.08,16.72-.16,33.08-.22,46.23-.01,1.07-.02,2.14-.02,3.21,0,1.38-.01,2.71-.02,3.99,0,1.13-.01,2.25-.02,3.36-.2,6.66-.48,11.9-.88,15.16-.11.09-.25.17-.4.24h-1.69c-.23,0-.46,0-.69.01h-1.72c-4.06.03-9.2.12-13.42,2.44-5.31,3.11-10.75,8.42-13.18,14.51-.47,1.15-.76,2.3-.9,3.44-.41.66-.36-.05-.37-1.59v-.45c.14-9.46.07-30.61-.01-54.61.01-31.07.04-64.63.03-84.69.07-7.26.18-13.18.35-17.15,1.43-6.96,6.41-13.49,12.92-16.5,5.1-2.4,11.51-1.69,16.97-1.85.84,0,1.74,0,2.71,0Z"/>
        <path class="cls-2" d="M38.54,19.64c.11,3.45.18,7.16-.05,10.62.02-3.86.04-7.43.05-10.62Z"/>
        <path class="cls-2" d="M38.54,19.61s.01.02,0,.03c0,3.19-.03,6.76-.05,10.62,0,.91,0,1.85-.01,2.8-.01.86-.01,1.73-.01,2.6-.04,8.62-.09,18.38-.14,28.59-.05-17.87-.06-34.93.11-48.12.03,1.11.07,2.28.1,3.48Z"/>
        <path class="cls-3" d="M38.48,33.06c0,.85-.01,1.72-.01,2.6,0-.87,0-1.74.01-2.6Z"/>
        <path class="cls-1" d="M38.58,8.2c-.06,2.44-.1,5.1-.14,7.93-.1-3.23-.14-6.04.14-7.93Z"/>
        <path class="cls-1" d="M38.33,64.97c.07,29.77.2,61.63-.39,81.34.01-.98.01-1.99.01-3.03,0-1.28.02-2.61.02-3.99.01-1.05.02-2.12.02-3.21.06-13.15.14-29.51.22-46.23.01-1.19.01-2.38.02-3.56.02-4.09.04-8.2.06-12.27,0-.95,0-1.9.01-2.85.01-1.76.02-3.53.02-5.27.01-.31.01-.62.01-.93Z"/>
        <path class="cls-1" d="M38.33,64.89v.08c0,.31,0,.62-.01.93.01-.34.01-.67.01-1.01Z"/>
        <path class="cls-1" d="M38.3,71.17c-.01.95-.01,1.9-.01,2.85,0-.95.01-1.9.01-2.85Z"/>
        <path class="cls-1" d="M38.23,86.29c-.01,1.18-.01,2.37-.02,3.56.01-1.18.01-2.37.02-3.56Z"/>
        <path class="cls-1" d="M37.97,139.29c0-1.07.01-2.14.02-3.21,0,1.09-.01,2.16-.02,3.21Z"/>
        <path class="cls-1" d="M37.93,146.64c.01-1.11.02-2.23.02-3.36,0,1.04,0,2.05-.01,3.03v.23s0,.06-.01.1Z"/>
        <path class="cls-3" d="M37.93,146.64s.01-.07.01-.1c-.01,2.12-.02,4.09-.03,5.9,0-1.92.02-3.85.02-5.8Z"/>
        <path class="cls-1" d="M37.93,146.64c0,1.95-.01,3.88-.02,5.8-.01,2.55-.02,4.76-.03,6.58-.15.84-.14,1.46-.01,1.92h0v1.1h-1.22c.15-.07.29-.15.4-.24.4-3.26.68-8.5.88-15.16Z"/>
        <path class="cls-3" d="M37.88,159.02c0,.7,0,1.34-.01,1.92-.13-.46-.14-1.08.01-1.92Z"/>
        <path class="cls-1" d="M37.65,5.59c-.97,0-1.87,0-2.71,0-5.46.16-11.87-.55-16.97,1.85-6.51,3.01-11.49,9.54-12.92,16.5.01-.4.03-.79.05-1.15C9.21,7.49,21.38,2.91,36.07,5.06l.1.02c.62.1,1.11.26,1.48.51Z"/>
        <path class="cls-1" d="M36.65,162.04h-.01c-.84.01-1.63.01-2.37.01.23-.01.46-.01.69-.01h1.69Z"/>
        <path class="cls-1" d="M34.27,162.05h2.37c-1.16.54-3.3.68-5.69.81-9.84-.61-18.54,7.43-23.32,15.13-.07.11-.15.23-.21.34,2.69-6.06,7.96-11.13,13.22-14.1,4.27-2.21,9.51-2.17,13.53-2.18h.1Z"/>
        <path class="cls-1" d="M32.55,162.05h1.62c-4.02,0-9.26-.03-13.53,2.18-5.26,2.97-10.53,8.04-13.22,14.1-.8,1.24-1.52,2.52-2.18,3.76-.07.14-.14.26-.19.35.14-1.14.43-2.29.9-3.44,2.43-6.09,7.87-11.4,13.18-14.51,4.22-2.32,9.36-2.41,13.42-2.44Z"/>
        <path class="cls-2" d="M26.68,205.01h-.75c-4.82-.19-9.25-3.82-13.09-6.9-4.88-4.02-8.5-9.68-7.79-15.67.05-.09.12-.21.19-.35.66-1.24,1.38-2.52,2.18-3.76-.02.03-.04.07-.05.1-3.59,7.91,1.42,15.9,7.91,20.79,3.42,2.62,7.28,5.6,11.4,5.79Z"/>
        <path class="cls-1" d="M4.7,41.1c0,20.06-.02,53.62-.03,84.69-.09-29.37-.2-63.01.03-84.69Z"/>
      </g>
      <g>
        <path class="cls-6" d="M188.67,11.91c.26,1,.38,2.03.31,3.04v64.37c0,11.69,0,23.1,0,34.36v27.67"/>
        <path class="cls-6" d="M184.04,5.38c2.03,1.34,3.64,3.5,4.42,5.85"/>
        <path class="cls-6" d="M37.04,6.5c.25-1.63.75-2.55,1.67-2.4,34.27-.16,111.89.06,139.73-.03l.24-.03c.83-.11,1.63-.07,2.41.1,1.04.21,2.03.64,2.93,1.23"/>
        <path class="cls-6" d="M37.02,6.64s.01-.08.02-.12"/>
        <path class="cls-6" d="M36.98,18.05c-.03-1.2-.07-2.37-.1-3.48"/>
        <path class="cls-6" d="M36.93,28.7c.23-3.46.16-7.17.05-10.62"/>
        <path class="cls-6" d="M36.91,34.1c0-.87,0-1.74.01-2.6"/>
        <path class="cls-6" d="M36.35,150.88c0-1.92.02-3.85.02-5.8"/>
        <path class="cls-6" d="M36.31,159.38c-.13-.46-.14-1.08,0-1.92"/>
        <path class="cls-6" d="M37.58,160.49s-.01-.01-.02-.01c-.61-.13-1.06-.43-1.25-1.09"/>
        <path class="cls-6" d="M41.53,160.48c-.39-.02-.77-.02-1.15,0"/>
        <path class="cls-6" d="M188.98,142.4v.2c-.07,4.95.17,10.23-.2,15.13-.23,2.25-.85,2.69-2.18,2.77"/>
        <path class="cls-6" d="M178.28,160.48h7.74c.2.01.4.01.58.02.74.03,1.35.09,1.77.67.04.12.08.23.11.35.26,1.2-.37,2.57-.66,3.79-1.51,4.54-3.09,11.71-2.57,17.2v.19c.36,5.95,2.05,12.05,3.63,17.7.82,2.96.3,3.02-1.81,3.06h-10.02c-35.95,0-131.4.01-151.93,0h-.75c-4.82-.19-9.25-3.82-13.09-6.9-4.88-4.02-8.5-9.68-7.79-15.67"/>
        <path class="cls-6" d="M87.74,160.47c31.02.01,66.46.03,88.15.01"/>
        <path class="cls-6" d="M46.36,160.48c10.44-.01,24-.01,38.68-.01"/>
        <path class="cls-6" d="M37.6,160.49c.86-.01,1.77-.01,2.71-.01"/>
        <path class="cls-6" d="M35.08,160.49c.79-.01,1.62-.01,2.5,0"/>
        <path class="cls-6" d="M3.12,178.84c.14-9.46.07-30.61-.01-54.61-.09-29.37-.2-63.01.03-84.69.07-7.26.18-13.18.35-17.15.01-.4.03-.79.05-1.15C7.65,5.93,19.82,1.35,34.51,3.5l.1.02c.62.1,1.11.26,1.48.51.67.43.97,1.11.94,2.12,0,.16-.01.33-.01.49-.06,2.44-.1,5.1-.14,7.93-.17,13.19-.16,30.25-.11,48.12"/>
        <path class="cls-6" d="M36.38,144.98s0,.06-.01.1c-.2,6.66-.48,11.9-.88,15.16-.11.09-.25.17-.4.24h-.01c-1.16.55-3.3.69-5.69.82-9.84-.61-18.54,7.43-23.32,15.13-.07.11-.15.23-.21.34-.8,1.24-1.52,2.52-2.18,3.76-.07.14-.14.26-.19.35-.41.66-.36-.05-.37-1.59"/>
        <path class="cls-6" d="M36.77,63.41c.07,29.77.2,61.63-.39,81.34"/>
        <path class="cls-6" d="M32.61,160.49c-4.02,0-9.26-.03-13.53,2.18-5.26,2.97-10.53,8.04-13.22,14.1-.02.03-.04.07-.05.1-3.59,7.91,1.42,15.9,7.91,20.79,3.42,2.62,7.28,5.6,11.4,5.79.04,0,.09,0,.13,0,16.29.05,116.16,0,152.92.02,3.04-.02,4.99.01,7.27,0,.45-.01.85-.01,1.19-.02,1.45-.05,1.85-.35,1.26-2.59-4.3-14.31-5.77-25.53.59-39.35.16-.34.32-.69.49-1.04"/>
        <path class="cls-6" d="M40.31,160.48h-6.91c-.23,0-.46,0-.69.01"/>
        <path class="cls-6" d="M41.53,160.48h-1.15"/>
        <path class="cls-6" d="M3.13,182.71c0-1.09,0-2.23-.01-3.42v-.45c-.02-13.8-.02-33.64-.01-54.61.01-31.07.04-64.63.03-84.69,0-4.61,0-8.51-.01-11.5-.17-1.87-.04-3.77.36-5.65,1.43-6.96,6.41-13.49,12.92-16.5,5.1-2.4,11.51-1.69,16.97-1.85.84,0,1.74,0,2.71,0,25.58-.13,96.26.14,134.09,0,2.63.02,5.79-.05,8.5,0,.86.02,1.67.05,2.41.1.08,0,.15,0,.22.01.99.2,1.89.63,2.71,1.22.01,0,.02.01.02.01,1.7,1.22,3.03,3.08,3.99,4.83.17.35.31.69.43,1.02.08.23.15.46.21.68.31,1.23.3,2.37.3,3.72v70.6c-.04,9.21-.02,18.38.01,27.45.02,9.33.05,18.57,0,27.67v1.05c-.03,4.79-.08,9.54-.16,14.24-.14,1.97-.43,4.02-2.74,3.82-1.69.02-4.36.02-7.8.02h-2.39c-6.04,0-13.96-.01-22.96,0-21.19-.01-44.47-.01-65.19-.01h-2.7c-14.98.01-28.48.01-38.68.01h-4.8"/>
        <path class="cls-6" d="M33.34,182.71h150.48"/>
        <path class="cls-6" d="M36.77,62.69c.05-10.21.1-19.97.14-28.59,0-.88.01-1.75.01-2.6.01-.95.01-1.89.01-2.8.02-3.86.04-7.43.05-10.62.01,0,.01-.02,0-.03.03-4.75.05-8.68.06-11.53v-.02c0-.91.01-1.71.01-2.39"/>
        <path class="cls-6" d="M36.73,72.46c0-.95.01-1.9.01-2.85.01-1.76.02-3.53.02-5.27.01-.31.01-.62.01-.93v-.08"/>
        <path class="cls-6" d="M36.41,137.73c.01-1.05.02-2.12.02-3.21.06-13.15.14-29.51.22-46.23.01-1.18.01-2.37.02-3.56"/>
        <path class="cls-6" d="M36.31,160.48v-1.09h0c0-.59,0-1.23,0-1.93.01-1.82.02-4.03.03-6.58,0-1.81.02-3.78.03-5.9v-.23c.01-.98.01-1.99.01-3.03"/>
      </g>
    </g>
  </g>
</svg>