<?xml version="1.0" encoding="UTF-8"?>
<svg id="_图层_2" data-name="图层 2" xmlns="http://www.w3.org/2000/svg" xmlns:xlink="http://www.w3.org/1999/xlink" viewBox="0 0 192.97 165.17">
  <defs>
    <style>
      .cls-1 {
        fill: url(#_未命名的渐变_2);
      }

      .cls-2 {
        fill: #c8b6e2;
      }

      .cls-3 {
        fill: url(#_未命名的渐变);
      }

      .cls-4 {
        stroke: #8e7cc3;
      }

      .cls-4, .cls-5 {
        fill: none;
        stroke-miterlimit: 10;
        stroke-width: 6px;
      }

      .cls-5 {
        stroke: #7edfe3;
      }
    </style>
    <linearGradient id="_未命名的渐变" data-name="未命名的渐变" x1="96.92" y1="967.25" x2="174.79" y2="967.25" gradientTransform="translate(0 -888)" gradientUnits="userSpaceOnUse">
      <stop offset="0" stop-color="#42c5c8"/>
      <stop offset="0" stop-color="#51c4c8"/>
      <stop offset="0" stop-color="#c7c2d0"/>
      <stop offset="0" stop-color="#f6c2d3"/>
      <stop offset=".3" stop-color="#f6c5d5"/>
      <stop offset=".5" stop-color="#f7cedc"/>
      <stop offset=".7" stop-color="#fadee7"/>
      <stop offset=".9" stop-color="#fdf5f8"/>
      <stop offset="1" stop-color="#fff"/>
    </linearGradient>
    <linearGradient id="_未命名的渐变_2" data-name="未命名的渐变 2" x1="19.11" y1="966.84" x2="97.04" y2="966.84" gradientTransform="translate(0 -888)" gradientUnits="userSpaceOnUse">
      <stop offset="0" stop-color="#fff"/>
      <stop offset="0" stop-color="#fdf5f7"/>
      <stop offset=".3" stop-color="#fadee7"/>
      <stop offset=".5" stop-color="#f7cedc"/>
      <stop offset=".7" stop-color="#f6c4d5"/>
      <stop offset="1" stop-color="#f6c2d3"/>
    </linearGradient>
  </defs>
  <g id="_图层_2-2" data-name=" 图层 2">
    <g id="_图层_1-2" data-name=" 图层 1-2">
      <g>
        <g>
          <path class="cls-2" d="M96.67,161.56h0l-9.29.59s-14.79-22.88-83.57-9.02L2.96,24.87l15.72-2.64h.87c-.31,35.2-.56,108.02-.56,108.02,0,0,43.45-9.61,77.19,24.49.25.07.43-1.03.62-3.08.19,2.35.37,3.59.68,3.52,33.74-34.1,77.19-24.49,77.19-24.49,0,0-.25-73.56-.56-108.54l15.72,2.64-.87,128.26c-68.77-13.86-83.57,9.02-83.57,9.02l-8.91-.51h.19Z"/>
          <path class="cls-3" d="M174.23,22.08c.31,34.98.56,108.54.56,108.54,0,0-43.45-9.61-77.19,24.49-.25.15-.5-1.17-.68-3.52,1.18-14.23.43-74.07,0-101.86h0c.12-8.51.25-13.86.25-13.86,0,0,45.99-37.25,76.82-31.97.12,0,.19,7.19.31,18.11h0l-.06.07Z"/>
          <path class="cls-1" d="M96.92,49.65h0c-.37,27.35-1.11,86.9,0,101.94-.19,2.05-.37,3.15-.62,3.08-33.74-34.03-77.19-24.49-77.19-24.49,0,0,.25-72.82.56-108.02v-.51c.12-10.93.19-18.11.31-18.11,30.83-5.35,76.82,31.9,76.82,31.9,0,0,.12,5.5.25,14.23h-.12Z"/>
        </g>
        <g>
          <path class="cls-4" d="M96.92,49.65c.12-8.43.25-13.79.25-13.79,0,0,45.99-37.25,76.82-31.97.12,0,.19,7.19.31,18.11.31,34.98.56,108.54.56,108.54,0,0-43.45-9.61-77.19,24.49-.25.15-.5-1.17-.68-3.52-1.11-15.03-.37-74.58,0-101.86"/>
          <path class="cls-4" d="M174.23,22.08l15.72,2.64-.87,128.26c-68.77-13.86-83.57,9.02-83.57,9.02l-8.91-.51h-.37"/>
          <path class="cls-4" d="M96.92,49.65c-.12-8.65-.25-14.23-.25-14.23,0,0-45.99-37.25-76.82-31.9-.12,0-.19,7.19-.31,18.11v.51c-.31,35.2-.56,108.02-.56,108.02,0,0,43.45-9.61,77.19,24.49.25.07.43-1.03.62-3.08,1.18-14.23.43-74.07,0-101.86h0l.12-.07Z"/>
          <path class="cls-4" d="M18.74,22.15l-15.72,2.64.87,128.26c68.77-13.86,83.57,9.02,83.57,9.02l9.29-.51"/>
          <path class="cls-5" d="M112.33,49.73s32.06-21.85,44.75-17.6"/>
          <path class="cls-5" d="M111.47,73.71s33.74-20.75,46.86-17.01"/>
          <path class="cls-5" d="M113.57,97.1s17.27-16.5,42.59-17.6"/>
          <path class="cls-5" d="M114,119.47s7.18-10.12,43.45-15.99"/>
          <path class="cls-5" d="M81.57,51.12s-32.06-21.85-44.75-17.53"/>
          <path class="cls-5" d="M82.37,75.1s-33.74-20.75-46.86-17.01"/>
          <path class="cls-5" d="M80.27,98.57s-17.27-16.5-42.59-17.6"/>
          <path class="cls-5" d="M79.9,120.86s-7.18-10.12-43.45-15.99"/>
        </g>
      </g>
    </g>
  </g>
</svg>