<?xml version="1.0" encoding="UTF-8"?>
<svg id="_图层_2" data-name="图层 2" xmlns="http://www.w3.org/2000/svg" xmlns:xlink="http://www.w3.org/1999/xlink" viewBox="0 0 246.83 203.39">
  <defs>
    <style>
      .cls-1 {
        fill: #8e7cc3;
      }

      .cls-2 {
        fill: #c8b6e2;
      }

      .cls-3 {
        fill: #7edfe3;
      }

      .cls-4 {
        fill: url(#_未命名的渐变_569);
      }

      .cls-5 {
        fill: #f6c2d3;
        stroke: #f6c2d3;
      }

      .cls-5, .cls-6, .cls-7, .cls-8 {
        stroke-miterlimit: 10;
      }

      .cls-6 {
        stroke: #7edfe3;
      }

      .cls-6, .cls-8 {
        fill: none;
      }

      .cls-7 {
        fill: #f2c6d3;
      }

      .cls-7, .cls-8 {
        stroke: #8e7cc3;
        stroke-width: 6px;
      }
    </style>
    <radialGradient id="_未命名的渐变_569" data-name="未命名的渐变 569" cx="123.18" cy="128.75" fx="123.18" fy="128.75" r="171.62" gradientUnits="userSpaceOnUse">
      <stop offset="0" stop-color="#fff"/>
      <stop offset="0" stop-color="#f6c2d3"/>
      <stop offset="0" stop-color="#fefcfd"/>
      <stop offset=".39" stop-color="#fadfe8"/>
      <stop offset=".75" stop-color="#f7ccda"/>
      <stop offset="1" stop-color="#f7c6d6"/>
      <stop offset="1" stop-color="#fefcfd"/>
    </radialGradient>
  </defs>
  <g id="_图层_1-2" data-name="图层 1">
    <g>
      <g>
        <path class="cls-2" d="M243.83,55.04v124.34c0,11.59-9.1,21.01-20.28,21.01H23.29c-11.19,0-20.29-9.42-20.29-21.01V55.04c0-11.58,9.1-21.01,20.29-21.01h18.03c1.73,10.71,7.5,18.38,14.53,18.38s12.81-7.67,14.54-18.38h153.17c11.18,0,20.28,9.43,20.28,21.01ZM231.67,180.14v-99.53c0-3.19-2.38-5.79-5.3-5.79H21.32c-2.92,0-5.3,2.6-5.3,5.79v99.53c0,3.19,2.37,5.79,5.3,5.79h205.05c2.91,0,5.3-2.6,5.3-5.79Z"/>
        <path class="cls-4" d="M231.67,80.61v99.53c0,3.19-2.38,5.79-5.3,5.79H21.32c-2.92,0-5.3-2.6-5.3-5.79v-99.53c0-3.19,2.37-5.79,5.3-5.79h205.05c2.91,0,5.3,2.6,5.3,5.79Z"/>
        <path class="cls-1" d="M70.92,27.22c0,2.37-.18,4.65-.54,6.81h-5.89c.41-2.08.64-4.37.64-6.81,0-11.31-4.89-19.19-9.29-19.19s-9.28,7.88-9.28,19.19c0,2.44.23,4.73.64,6.81h-5.89c-.36-2.16-.54-4.44-.54-6.81,0-14.12,6.62-25.19,15.07-25.19s15.08,11.07,15.08,25.19Z"/>
        <path class="cls-1" d="M64.49,34.03h5.89c-1.73,10.71-7.5,18.38-14.54,18.38s-12.8-7.67-14.53-18.38h5.89c1.46,7.54,5.2,12.38,8.64,12.38s7.19-4.84,8.65-12.38Z"/>
        <path class="cls-1" d="M65.13,27.22c0,2.44-.23,4.73-.64,6.81h-17.29c-.41-2.08-.64-4.37-.64-6.81,0-11.31,4.89-19.19,9.28-19.19s9.29,7.88,9.29,19.19Z"/>
        <path class="cls-1" d="M47.21,34.03h17.29c-1.46,7.54-5.2,12.38-8.65,12.38s-7.18-4.84-8.64-12.38Z"/>
      </g>
      <g>
        <path class="cls-8" d="M41.32,34.03h-18.03c-11.19,0-20.29,9.43-20.29,21.01v124.34c0,11.59,9.1,21.01,20.29,21.01h200.26c11.18,0,20.28-9.42,20.28-21.01V55.04c0-11.58-9.1-21.01-20.28-21.01H41.32Z"/>
        <path class="cls-8" d="M21.32,74.82c-2.92,0-5.3,2.6-5.3,5.79v99.53c0,3.19,2.37,5.79,5.3,5.79h205.05c2.91,0,5.3-2.6,5.3-5.79v-99.53c0-3.19-2.38-5.79-5.3-5.79H21.32Z"/>
      </g>
    </g>
    <ellipse class="cls-7" cx="57.34" cy="27.22" rx="14.57" ry="22.94"/>
    <ellipse class="cls-7" cx="121.08" cy="25.94" rx="14.57" ry="22.94"/>
    <ellipse class="cls-7" cx="183.59" cy="28.42" rx="14.57" ry="22.94"/>
    <path class="cls-2" d="M79.55,143.48v33.29c0,1.5-1.18,2.72-2.63,2.72h0c-1.45,0-2.63-1.22-2.63-2.72v-92.97c0-1.5,1.18-2.72,2.63-2.72h0c1.45,0,2.63,1.22,2.63,2.72v55.4"/>
    <line class="cls-2" x1="79.55" y1="139.2" x2="79.55" y2="143.48"/>
    <rect class="cls-2" x="39.25" y="110.48" width="171.7" height="5.45" rx="2.72" ry="2.72"/>
    <rect class="cls-2" x="38.31" y="146.88" width="171.7" height="5.45" rx="2.72" ry="2.72"/>
    <path class="cls-2" d="M126.87,143.48v33.29c0,1.5-1.18,2.72-2.63,2.72h0c-1.45,0-2.63-1.22-2.63-2.72v-92.97c0-1.5,1.18-2.72,2.63-2.72h0c1.45,0,2.63,1.22,2.63,2.72v55.4"/>
    <path class="cls-2" d="M175.02,143.48v33.29c0,1.5-1.18,2.72-2.63,2.72h0c-1.45,0-2.63-1.22-2.63-2.72v-92.97c0-1.5,1.18-2.72,2.63-2.72h0c1.45,0,2.63,1.22,2.63,2.72v55.4"/>
    <g>
      <path class="cls-3" d="M115.44,123.17c.3.7.08,1.55-.42,2.07-2.45,2.55-11.97,11.81-16.06,15.78-1.06,1.04-2.64.94-3.6-.22l-9.44-11.33c-.6-.72-.66-1.89-.05-2.59.42-.5,1.12-.65,2.19.45l8.23,9.18c.44.5,1.13.53,1.61.09l14.99-13.9c.55-.51,1.32-.65,1.94-.26.24.16.46.39.61.73Z"/>
      <path class="cls-6" d="M88.06,127.33l8.23,9.18c.44.5,1.13.53,1.61.09l14.99-13.9c.55-.51,1.32-.65,1.94-.26.24.16.46.39.61.73.3.7.08,1.55-.42,2.07-2.45,2.55-11.97,11.81-16.06,15.78-1.06,1.04-2.64.94-3.6-.22l-9.44-11.33c-.6-.72-.66-1.89-.05-2.59.42-.5,1.12-.65,2.19.45Z"/>
    </g>
    <g>
      <text></text>
      <text/>
    </g>
    <path class="cls-5" d="M148.32,117.58c-7.63,0-13.82,6.19-13.82,13.82s6.19,13.82,13.82,13.82,13.82-6.19,13.82-13.82-6.19-13.82-13.82-13.82ZM148.32,140.53c-5.04,0-9.13-4.09-9.13-9.13s4.09-9.13,9.13-9.13,9.13,4.09,9.13,9.13-4.09,9.13-9.13,9.13Z"/>
  </g>
</svg>