<?xml version="1.0" encoding="UTF-8"?>
<svg id="_图层_2" xmlns="http://www.w3.org/2000/svg" xmlns:xlink="http://www.w3.org/1999/xlink" version="1.1" viewBox="0 0 246.8 246.1">
  <!-- Generator: Adobe Illustrator 30.3.0, SVG Export Plug-In . SVG Version: 2.1.3 Build 182)  -->
  <defs>
    <style>
      .st0, .st1, .st2 {
        fill: none;
      }

      .st3 {
        fill: #8e7cc3;
      }

      .st4 {
        fill: #c8b6e2;
      }

      .st5 {
        fill: #7edfe3;
      }

      .st6 {
        fill: url(#_未命名的渐变);
      }

      .st1 {
        stroke: #7edfe3;
      }

      .st1, .st7, .st2 {
        stroke-miterlimit: 10;
      }

      .st7 {
        fill: #f2c6d3;
      }

      .st7, .st2 {
        stroke: #8e7cc3;
        stroke-width: 6px;
      }
    </style>
    <radialGradient id="_未命名的渐变" data-name="未命名的渐变" cx="123.2" cy="97.4" fx="123.2" fy="97.4" r="171.6" gradientTransform="translate(0 248) scale(1 -1)" gradientUnits="userSpaceOnUse">
      <stop offset="0" stop-color="#fff"/>
      <stop offset="0" stop-color="#f6c2d3"/>
      <stop offset="0" stop-color="#fefcfd"/>
      <stop offset=".4" stop-color="#fadfe8"/>
      <stop offset=".8" stop-color="#f7ccda"/>
      <stop offset="1" stop-color="#f7c6d6"/>
      <stop offset="1" stop-color="#fefcfd"/>
    </radialGradient>
  </defs>
  <g id="_图层_1-2">
    <g>
      <g>
        <path class="st4" d="M243.8,76.9v124.3c0,11.6-9.1,21-20.3,21H23.3c-11.2,0-20.3-9.4-20.3-21v-124.3c0-11.6,9.1-21,20.3-21h18c1.7,10.7,7.5,18.4,14.5,18.4s12.8-7.7,14.5-18.4h153.2c11.2,0,20.3,9.4,20.3,21h0ZM231.7,202v-99.5c0-3.2-2.4-5.8-5.3-5.8H21.3c-2.9,0-5.3,2.6-5.3,5.8v99.5c0,3.2,2.4,5.8,5.3,5.8h205c2.9,0,5.3-2.6,5.3-5.8h0Z"/>
        <path class="st6" d="M231.7,102.5v99.5c0,3.2-2.4,5.8-5.3,5.8H21.3c-2.9,0-5.3-2.6-5.3-5.8v-99.5c0-3.2,2.4-5.8,5.3-5.8h205c2.9,0,5.3,2.6,5.3,5.8h0Z"/>
        <path class="st3" d="M70.9,49.1c0,2.4-.2,4.7-.5,6.8h-5.9c.4-2.1.6-4.4.6-6.8,0-11.3-4.9-19.2-9.3-19.2s-9.3,7.9-9.3,19.2.2,4.7.6,6.8h-5.9c-.4-2.1-.5-4.4-.5-6.8,0-14.1,6.6-25.2,15.1-25.2s15.1,11.1,15.1,25.2Z"/>
        <path class="st3" d="M64.5,55.9h5.9c-1.7,10.7-7.5,18.4-14.5,18.4s-12.8-7.7-14.5-18.4h5.9c1.5,7.5,5.2,12.4,8.6,12.4s7.2-4.8,8.6-12.4Z"/>
        <path class="st3" d="M65.1,49.1c0,2.4-.2,4.7-.6,6.8h-17.3c-.4-2.1-.6-4.4-.6-6.8,0-11.3,4.9-19.2,9.3-19.2s9.3,7.9,9.3,19.2Z"/>
        <path class="st3" d="M47.2,55.9h17.3c-1.5,7.5-5.2,12.4-8.6,12.4s-7.2-4.8-8.6-12.4Z"/>
      </g>
      <g>
        <path class="st2" d="M41.3,55.9h-18c-11.2,0-20.3,9.4-20.3,21v124.3c0,11.6,9.1,21,20.3,21h200.3c11.2,0,20.3-9.4,20.3-21v-124.3c0-11.6-9.1-21-20.3-21H41.3Z"/>
        <path class="st2" d="M21.3,96.7c-2.9,0-5.3,2.6-5.3,5.8v99.5c0,3.2,2.4,5.8,5.3,5.8h205c2.9,0,5.3-2.6,5.3-5.8v-99.5c0-3.2-2.4-5.8-5.3-5.8,0,0-205,0-205,0Z"/>
      </g>
    </g>
    <ellipse class="st7" cx="57.3" cy="49.1" rx="14.6" ry="22.9"/>
    <ellipse class="st7" cx="121.1" cy="47.8" rx="14.6" ry="22.9"/>
    <ellipse class="st7" cx="183.6" cy="50.3" rx="14.6" ry="22.9"/>
    <path class="st4" d="M79.5,165.3v33.3c0,1.5-1.2,2.7-2.6,2.7h0c-1.4,0-2.6-1.2-2.6-2.7v-93c0-1.5,1.2-2.7,2.6-2.7h0c1.4,0,2.6,1.2,2.6,2.7v55.4"/>
    <line class="st0" x1="79.5" y1="161" x2="79.5" y2="165.3"/>
    <rect class="st4" x="39.2" y="132.3" width="171.7" height="5.4" rx="2.7" ry="2.7"/>
    <rect class="st4" x="38.3" y="168.7" width="171.7" height="5.4" rx="2.7" ry="2.7"/>
    <path class="st4" d="M126.9,165.3v33.3c0,1.5-1.2,2.7-2.6,2.7h0c-1.4,0-2.6-1.2-2.6-2.7v-93c0-1.5,1.2-2.7,2.6-2.7h0c1.4,0,2.6,1.2,2.6,2.7v55.4"/>
    <path class="st4" d="M175,165.3v33.3c0,1.5-1.2,2.7-2.6,2.7h0c-1.4,0-2.6-1.2-2.6-2.7v-93c0-1.5,1.2-2.7,2.6-2.7h0c1.4,0,2.6,1.2,2.6,2.7v55.4"/>
    <g>
      <path class="st5" d="M115.4,145c.3.7,0,1.5-.4,2.1-2.4,2.5-12,11.8-16.1,15.8-1.1,1-2.6.9-3.6-.2l-9.4-11.3c-.6-.7-.7-1.9,0-2.6.4-.5,1.1-.7,2.2.4l8.2,9.2c.4.5,1.1.5,1.6,0l15-13.9c.6-.5,1.3-.7,1.9-.3.2.2.5.4.6.7Z"/>
      <path class="st1" d="M88,149.2l8.2,9.2c.4.5,1.1.5,1.6,0l15-13.9c.6-.5,1.3-.7,1.9-.3.2.2.5.4.6.7.3.7,0,1.5-.4,2.1-2.4,2.5-12,11.8-16.1,15.8-1.1,1-2.6.9-3.6-.2l-9.4-11.3c-.6-.7-.7-1.9,0-2.6.4-.5,1.1-.7,2.2.4h0Z"/>
    </g>
  </g>
</svg>