<?xml version="1.0" encoding="UTF-8"?>
<svg id="_图层_2" data-name="图层 2" xmlns="http://www.w3.org/2000/svg" xmlns:xlink="http://www.w3.org/1999/xlink" viewBox="0 0 282.4 207.94">
  <defs>
    <style>
      .cls-1 {
        stroke: #c8b6e2;
        stroke-linecap: round;
        stroke-linejoin: round;
        stroke-width: 3px;
      }

      .cls-1, .cls-2, .cls-3, .cls-4 {
        fill: none;
      }

      .cls-5 {
        fill: #c8b6e2;
      }

      .cls-6 {
        fill: #7edfe3;
      }

      .cls-7 {
        fill: url(#_未命名的渐变_619);
      }

      .cls-2 {
        stroke: #f6c2d3;
      }

      .cls-2, .cls-3 {
        stroke-width: 7px;
      }

      .cls-2, .cls-3, .cls-4 {
        stroke-miterlimit: 10;
      }

      .cls-3, .cls-4 {
        stroke: #8e7cc3;
      }

      .cls-4 {
        stroke-width: 5px;
      }

      .cls-8 {
        fill: #f6c2d3;
      }
    </style>
    <radialGradient id="_未命名的渐变_619" data-name="未命名的渐变 619" cx="121.41" cy="126.02" fx="121.41" fy="126.02" r="105.53" gradientUnits="userSpaceOnUse">
      <stop offset="0" stop-color="#fff"/>
      <stop offset=".29" stop-color="#fdf1f5"/>
      <stop offset=".83" stop-color="#f7cedc"/>
      <stop offset="1" stop-color="#f6c2d3"/>
    </radialGradient>
  </defs>
  <g id="_图层_1-2" data-name="图层 1">
    <g>
      <g>
        <path class="cls-6" d="M250.98,67.36c.11,1.19.13,2.42.07,3.67-.11-1.25-.13-2.48-.07-3.67Z"/>
        <path class="cls-6" d="M280.89,32.34c.5.48-28.86,12-29.91,35.02-1.92-22.83-31.71-33.41-31.22-33.9,24.46-2.6,30.19-31.74,30.19-31.74l.14-.03c.61,2.47,7.64,28.86,30.8,30.65Z"/>
        <path class="cls-7" d="M237.28,76.37v95.99c0,17.72-14.36,32.08-32.07,32.08H35.58c-17.72,0-32.08-14.36-32.08-32.08v-95.99c0-17.72,14.36-32.08,32.08-32.08h169.63c17.71,0,32.07,14.36,32.07,32.08ZM170.91,124.54c0-29.02-23.53-52.54-52.55-52.54s-52.55,23.52-52.55,52.54,23.53,52.55,52.55,52.55,52.55-23.52,52.55-52.55ZM47.21,72.73c0-4.9-3.98-8.88-8.88-8.88s-8.87,3.98-8.87,8.88,3.97,8.87,8.87,8.87,8.88-3.97,8.88-8.87Z"/>
        <path class="cls-5" d="M118.36,72c29.02,0,52.55,23.52,52.55,52.54s-23.53,52.55-52.55,52.55-52.55-23.52-52.55-52.55,23.53-52.54,52.55-52.54ZM145.99,126.22c0-14.82-12.13-26.83-27.09-26.83s-27.09,12.01-27.09,26.83,12.13,26.83,27.09,26.83,27.09-12.01,27.09-26.83Z"/>
        <path class="cls-6" d="M118.9,99.39c14.96,0,27.09,12.01,27.09,26.83s-12.13,26.83-27.09,26.83-27.09-12.01-27.09-26.83,12.13-26.83,27.09-26.83ZM124.03,126.7c0-2.75-2.03-4.98-4.54-4.98s-4.55,2.23-4.55,4.98,2.03,4.99,4.55,4.99,4.54-2.23,4.54-4.99Z"/>
        <path class="cls-8" d="M119.49,121.72c2.51,0,4.54,2.23,4.54,4.98s-2.03,4.99-4.54,4.99-4.55-2.23-4.55-4.99,2.03-4.98,4.55-4.98Z"/>
        <path class="cls-8" d="M83.21,30.91v7.24c0,.74-.6,1.34-1.34,1.34h-40.46c-.74,0-1.33-.6-1.33-1.34v-7.24c0-.74.59-1.34,1.33-1.34h40.46c.74,0,1.34.6,1.34,1.34Z"/>
        <path class="cls-6" d="M38.33,63.85c4.9,0,8.88,3.98,8.88,8.88s-3.98,8.87-8.88,8.87-8.87-3.97-8.87-8.87,3.97-8.88,8.87-8.88Z"/>
      </g>
      <g>
        <path class="cls-3" d="M205.21,204.44H35.58c-17.72,0-32.08-14.36-32.08-32.08v-95.99c0-17.72,14.36-32.08,32.08-32.08h169.63c17.71,0,32.07,14.36,32.07,32.08v95.99c0,17.72-14.36,32.08-32.07,32.08Z"/>
        <path class="cls-4" d="M47.21,72.73c0,4.9-3.98,8.87-8.88,8.87s-8.87-3.97-8.87-8.87,3.97-8.88,8.87-8.88,8.88,3.98,8.88,8.88Z"/>
        <path class="cls-3" d="M170.91,124.54c0,29.03-23.53,52.55-52.55,52.55s-52.55-23.52-52.55-52.55,23.53-52.54,52.55-52.54,52.55,23.52,52.55,52.54Z"/>
        <ellipse class="cls-3" cx="118.9" cy="126.22" rx="27.09" ry="26.83"/>
        <path class="cls-3" d="M81.87,39.49h-40.46c-.74,0-1.33-.6-1.33-1.34v-7.24c0-.74.59-1.34,1.33-1.34h40.46c.74,0,1.34.6,1.34,1.34v7.24c0,.74-.6,1.34-1.34,1.34Z"/>
        <path class="cls-2" d="M124.03,126.7c0,2.76-2.03,4.99-4.54,4.99s-4.55-2.23-4.55-4.99,2.03-4.98,4.55-4.98,4.54,2.23,4.54,4.98Z"/>
        <path class="cls-1" d="M249.95,1.72s-5.73,29.14-30.19,31.74c-.49.49,29.3,11.07,31.22,33.9.11,1.19.13,2.42.07,3.67-.02.31-.04.63-.06.95"/>
        <path class="cls-1" d="M250.05,1.5s.01.06.04.19c.61,2.47,7.64,28.86,30.8,30.65.5.48-28.86,12-29.91,35.02-.06,1.19-.04,2.42.07,3.67.02.24.04.49.07.73"/>
      </g>
    </g>
  </g>
</svg>