<?xml version="1.0" encoding="UTF-8"?>
<svg id="_图层_2" data-name="图层 2" xmlns="http://www.w3.org/2000/svg" xmlns:xlink="http://www.w3.org/1999/xlink" viewBox="0 0 247.76 197.19">
  <defs>
    <style>
      .cls-1 {
        fill: #c8b6e2;
      }

      .cls-2 {
        fill: #7edfe3;
      }

      .cls-3 {
        fill: url(#_未命名的渐变_619);
      }

      .cls-4 {
        stroke-width: 7px;
      }

      .cls-4, .cls-5 {
        fill: none;
        stroke: #8e7cc3;
        stroke-miterlimit: 10;
      }

      .cls-5 {
        stroke-width: 6px;
      }

      .cls-6 {
        fill: #f6c2d3;
      }
    </style>
    <radialGradient id="_未命名的渐变_619" data-name="未命名的渐变 619" cx="124.93" cy="113.08" fx="124.93" fy="113.08" r="109.13" gradientUnits="userSpaceOnUse">
      <stop offset="0" stop-color="#fff"/>
      <stop offset=".29" stop-color="#fdf1f5"/>
      <stop offset=".83" stop-color="#f7cedc"/>
      <stop offset="1" stop-color="#f6c2d3"/>
    </radialGradient>
  </defs>
  <g id="_图层_1-2" data-name="图层 1">
    <g>
      <g>
        <path class="cls-3" d="M244.76,60.64v101.47c0,17.71-14.36,32.08-32.08,32.08H35.08c-17.71,0-32.08-14.36-32.08-32.08V60.64c0-17.71,14.36-32.08,32.08-32.08h177.6c17.71,0,32.08,14.36,32.08,32.08ZM176.12,111.56c0-30.01-24.33-54.34-54.34-54.34s-54.34,24.33-54.34,54.34,24.32,54.34,54.34,54.34,54.34-24.33,54.34-54.34ZM56.65,62.2c0-7.4-6-13.4-13.4-13.4s-13.4,6-13.4,13.4,6,13.4,13.4,13.4,13.4-6,13.4-13.4Z"/>
        <path class="cls-1" d="M121.78,57.22c30.01,0,54.34,24.33,54.34,54.34s-24.33,54.34-54.34,54.34-54.34-24.33-54.34-54.34,24.32-54.34,54.34-54.34ZM152.98,111.66c0-17.48-14.17-31.64-31.63-31.64s-31.64,14.17-31.64,31.64,14.17,31.63,31.64,31.63,31.63-14.16,31.63-31.63Z"/>
        <path class="cls-2" d="M121.34,80.01c17.47,0,31.63,14.17,31.63,31.64s-14.17,31.63-31.63,31.63-31.64-14.16-31.64-31.63,14.17-31.64,31.64-31.64Z"/>
        <path class="cls-6" d="M85.42,4.33v17.93c0,.74-.6,1.34-1.33,1.34h-41.92c-.74,0-1.34-.6-1.34-1.34V4.33c0-.73.6-1.33,1.34-1.33h41.92c.73,0,1.33.6,1.33,1.33Z"/>
        <circle class="cls-2" cx="43.25" cy="62.2" r="13.4"/>
      </g>
      <g>
        <rect class="cls-5" x="3" y="28.56" width="241.76" height="165.62" rx="32.08" ry="32.08"/>
        <circle class="cls-5" cx="43.25" cy="62.2" r="13.4"/>
        <circle class="cls-5" cx="121.78" cy="111.56" r="54.34"/>
        <path class="cls-4" d="M152.98,111.66c0,17.48-14.17,31.63-31.63,31.63s-31.64-14.16-31.64-31.63,14.17-31.64,31.64-31.64,31.63,14.17,31.63,31.64Z"/>
        <path class="cls-5" d="M84.09,23.61h-41.92c-.74,0-1.34-.6-1.34-1.34V4.33c0-.73.6-1.33,1.34-1.33h41.92c.73,0,1.33.6,1.33,1.33v17.93c0,.74-.6,1.34-1.33,1.34Z"/>
      </g>
    </g>
  </g>
</svg>