<?xml version="1.0" encoding="UTF-8"?>
<svg id="_图层_2" xmlns="http://www.w3.org/2000/svg" xmlns:xlink="http://www.w3.org/1999/xlink" version="1.1" viewBox="0 0 250 250">
  <!-- Generator: Adobe Illustrator 30.3.0, SVG Export Plug-In . SVG Version: 2.1.3 Build 182)  -->
  <defs>
    <style>
      .st0 {
        fill: #c8b6e2;
      }

      .st1, .st2 {
        fill: #7edfe3;
      }

      .st3 {
        fill: url(#_未命名的渐变);
      }

      .st2 {
        stroke: #c8b6e2;
      }

      .st2, .st4 {
        stroke-width: 6px;
      }

      .st2, .st4, .st5 {
        stroke-miterlimit: 10;
      }

      .st4 {
        fill: none;
        stroke: #8e7cc3;
      }

      .st5 {
        stroke: #f6c2d3;
        stroke-width: 7px;
      }

      .st5, .st6 {
        fill: #f6c2d3;
      }
    </style>
    <radialGradient id="_未命名的渐变" data-name="未命名的渐变" cx="126" cy="117.4" fx="126" fy="117.4" r="109.1" gradientTransform="translate(0 251.5) scale(1 -1)" gradientUnits="userSpaceOnUse">
      <stop offset="0" stop-color="#fff"/>
      <stop offset=".3" stop-color="#fdf1f5"/>
      <stop offset=".8" stop-color="#f7cedc"/>
      <stop offset="1" stop-color="#f6c2d3"/>
    </radialGradient>
  </defs>
  <g id="_图层_1-2">
    <g>
      <g>
        <path class="st1" d="M122.5,101c17.5,0,31.6,14.2,31.6,31.6s-14.2,31.6-31.6,31.6-31.6-14.2-31.6-31.6,14.2-31.6,31.6-31.6Z"/>
        <path class="st6" d="M86.5,36.1v7.2c0,.7-.6,1.3-1.3,1.3h-41.9c-.7,0-1.3-.6-1.3-1.3v-7.2c0-.7.6-1.3,1.3-1.3h41.9c.7,0,1.3.6,1.3,1.3h0Z"/>
        <path class="st1" d="M44.4,69.8c7.4,0,13.4,6,13.4,13.4s-6,13.4-13.4,13.4-13.4-6-13.4-13.4,6-13.4,13.4-13.4Z"/>
        <path class="st0" d="M122.9,78.2c30,0,54.3,24.3,54.3,54.3s-24.3,54.3-54.3,54.3-54.3-24.3-54.3-54.3,24.3-54.3,54.3-54.3ZM154.1,132.7c0-17.5-14.2-31.6-31.6-31.6s-31.6,14.2-31.6,31.6,14.2,31.6,31.6,31.6,31.6-14.2,31.6-31.6Z"/>
        <path class="st3" d="M245.9,81.7v101.5c0,17.7-14.4,32.1-32.1,32.1H36.2c-17.7,0-32.1-14.4-32.1-32.1v-101.5c0-17.7,14.4-32.1,32.1-32.1h177.6c17.7,0,32.1,14.4,32.1,32.1ZM177.2,132.6c0-30-24.3-54.3-54.3-54.3s-54.3,24.3-54.3,54.3,24.3,54.3,54.3,54.3,54.3-24.3,54.3-54.3ZM57.8,83.2c0-7.4-6-13.4-13.4-13.4s-13.4,6-13.4,13.4,6,13.4,13.4,13.4,13.4-6,13.4-13.4Z"/>
      </g>
      <g>
        <rect class="st4" x="4.1" y="49.6" width="241.8" height="165.6" rx="32.1" ry="32.1"/>
        <path class="st4" d="M57.8,83.2c0,7.4-6,13.4-13.4,13.4s-13.4-6-13.4-13.4,6-13.4,13.4-13.4,13.4,6,13.4,13.4Z"/>
        <circle class="st4" cx="122.9" cy="132.6" r="54.3" transform="translate(-28.3 231.7) rotate(-80.4)"/>
        <path class="st4" d="M154.1,132.7c0,17.5-14.2,31.6-31.6,31.6s-31.6-14.2-31.6-31.6,14.2-31.6,31.6-31.6,31.6,14.2,31.6,31.6Z"/>
        <path class="st4" d="M85.2,44.6h-41.9c-.7,0-1.3-.6-1.3-1.3v-7.2c0-.7.6-1.3,1.3-1.3h41.9c.7,0,1.3.6,1.3,1.3v7.2c0,.7-.6,1.3-1.3,1.3h0Z"/>
      </g>
    </g>
    <ellipse class="st5" cx="122.9" cy="134.9" rx="4.5" ry="5"/>
    <path class="st2" d="M201.4,55.6s-1.5,29.9-28,42.4c0,.2,35,2.8,37.2,29.6"/>
    <path class="st2" d="M200.3,55.6c1.1,3.2,7.3,32.3,38.2,33.4,0,.2-33,12-28.1,38.5"/>
  </g>
</svg>