<?xml version="1.0" encoding="UTF-8"?>
<svg id="_图层_2" data-name="图层 2" xmlns="http://www.w3.org/2000/svg" xmlns:xlink="http://www.w3.org/1999/xlink" viewBox="0 0 243.39 183.46">
  <defs>
    <style>
      .cls-1 {
        stroke: #c8b6e2;
        stroke-linecap: round;
        stroke-linejoin: round;
        stroke-width: 3px;
      }

      .cls-1, .cls-2, .cls-3, .cls-4 {
        fill: none;
      }

      .cls-5 {
        fill: #c8b6e2;
      }

      .cls-6 {
        fill: #7edfe3;
      }

      .cls-7 {
        fill: url(#_未命名的渐变);
      }

      .cls-2 {
        stroke: #f6c2d3;
      }

      .cls-2, .cls-3 {
        stroke-width: 7px;
      }

      .cls-2, .cls-3, .cls-4 {
        stroke-miterlimit: 10;
      }

      .cls-3, .cls-4 {
        stroke: #8e7cc3;
      }

      .cls-4 {
        stroke-width: 5px;
      }

      .cls-8 {
        fill: #f6c2d3;
      }
    </style>
    <radialGradient id="_未命名的渐变" data-name="未命名的渐变" cx="92.76" cy="79.93" fx="92.76" fy="79.93" r="89.12" gradientTransform="translate(2.45 10.45) scale(1.24 1.09)" gradientUnits="userSpaceOnUse">
      <stop offset="0" stop-color="#fff"/>
      <stop offset=".29" stop-color="#fdf1f5"/>
      <stop offset=".83" stop-color="#f7cedc"/>
      <stop offset="1" stop-color="#f6c2d3"/>
    </radialGradient>
  </defs>
  <g id="_图层_2-2" data-name=" 图层 2">
    <g id="_图层_1-2" data-name=" 图层 1-2">
      <g>
        <g>
          <path class="cls-7" d="M233.78,50.98v96.36c0,17.79-14.36,32.2-32.07,32.2H32.08c-17.72,0-32.08-14.41-32.08-32.2V50.98C0,33.19,14.36,18.77,32.08,18.77h169.63c17.71,0,32.07,14.41,32.07,32.2ZM167.41,99.33c0-29.13-23.53-52.74-52.55-52.74s-52.55,23.61-52.55,52.74,23.53,52.75,52.55,52.75,52.55-23.61,52.55-52.75ZM43.71,47.32c0-4.92-3.98-8.91-8.88-8.91s-8.87,4-8.87,8.91,3.97,8.9,8.87,8.9,8.88-3.99,8.88-8.9Z"/>
          <path class="cls-5" d="M114.93,46.31c28.09,0,50.86,23.73,50.86,53.02s-22.78,53.03-50.86,53.03-50.86-23.73-50.86-53.03,22.78-53.02,50.86-53.02ZM141.67,101.03c0-14.95-11.74-27.07-26.22-27.07s-26.22,12.12-26.22,27.07,11.74,27.07,26.22,27.07,26.22-12.12,26.22-27.07Z"/>
          <path class="cls-6" d="M115.45,73.95c14.48,0,26.22,12.12,26.22,27.07s-11.74,27.07-26.22,27.07-26.22-12.12-26.22-27.07,11.74-27.07,26.22-27.07ZM120.41,101.51c0-2.77-1.96-5.03-4.39-5.03s-4.4,2.25-4.4,5.03,1.96,5.04,4.4,5.04,4.39-2.25,4.39-5.04Z"/>
          <path class="cls-8" d="M116.02,96.49c2.43,0,4.39,2.25,4.39,5.03s-1.96,5.04-4.39,5.04-4.4-2.25-4.4-5.04,1.96-5.03,4.4-5.03Z"/>
          <path class="cls-8" d="M80.9,4.85v7.31c0,.75-.58,1.35-1.3,1.35h-39.16c-.72,0-1.29-.61-1.29-1.35v-7.31c0-.75.57-1.35,1.29-1.35h39.16c.72,0,1.3.61,1.3,1.35Z"/>
          <path class="cls-6" d="M37.46,38.09c4.74,0,8.6,4.02,8.6,8.96s-3.85,8.95-8.6,8.95-8.59-4.01-8.59-8.95,3.84-8.96,8.59-8.96Z"/>
          <path class="cls-6" d="M243.29,41.63c.11,1.2.13,2.44.07,3.7-.11-1.26-.13-2.5-.07-3.7Z"/>
          <path class="cls-6" d="M222.42,55.44c.48.48-27.93,12.11-28.95,35.34-1.86-23.04-30.69-33.71-30.22-34.21,23.68-2.62,29.22-32.03,29.22-32.03l.14-.03c.59,2.49,7.39,29.12,29.81,30.93Z"/>
        </g>
        <g>
          <path class="cls-3" d="M198.99,179.96H34.8c-17.15,0-31.05-14.49-31.05-32.37V50.72c0-17.88,13.9-32.37,31.05-32.37h164.19c17.14,0,31.04,14.49,31.04,32.37v96.86c0,17.88-13.9,32.37-31.04,32.37h0Z"/>
          <path class="cls-4" d="M46.06,47.05c0,4.94-3.85,8.95-8.6,8.95s-8.59-4.01-8.59-8.95,3.84-8.96,8.59-8.96,8.6,4.02,8.6,8.96Z"/>
          <path class="cls-3" d="M165.79,99.33c0,29.29-22.78,53.03-50.86,53.03s-50.86-23.73-50.86-53.03,22.78-53.02,50.86-53.02,50.86,23.73,50.86,53.02Z"/>
          <ellipse class="cls-3" cx="115.45" cy="101.03" rx="26.22" ry="27.07"/>
          <path class="cls-3" d="M79.61,13.51h-39.16c-.72,0-1.29-.61-1.29-1.35v-7.31c0-.75.57-1.35,1.29-1.35h39.16c.72,0,1.3.61,1.3,1.35v7.31c0,.75-.58,1.35-1.3,1.35Z"/>
          <path class="cls-2" d="M120.41,101.51c0,2.79-1.96,5.04-4.39,5.04s-4.4-2.25-4.4-5.04,1.96-5.03,4.4-5.03,4.39,2.25,4.39,5.03Z"/>
          <path class="cls-1" d="M193.55,22.87s-5.55,29.4-29.22,32.03c-.47.49,28.36,11.17,30.22,34.21.11,1.2.13,2.44.07,3.7-.02.31-.04.64-.06.96"/>
          <path class="cls-1" d="M193.64,23.2s0,.06.04.19c.59,2.49,7.4,29.12,29.81,30.93.48.48-27.93,12.11-28.95,35.34-.06,1.2-.04,2.44.07,3.7.02.24.04.49.07.74"/>
        </g>
      </g>
    </g>
  </g>
</svg>