<?xml version="1.0" encoding="UTF-8"?>
<svg id="_图层_2" data-name="图层 2" xmlns="http://www.w3.org/2000/svg" xmlns:xlink="http://www.w3.org/1999/xlink" viewBox="0 0 247.91 197.62">
  <defs>
    <style>
      .cls-1 {
        fill: #7edfe3;
      }

      .cls-2 {
        fill: url(#_未命名的渐变_732);
      }

      .cls-3 {
        fill: none;
        stroke-width: 6px;
      }

      .cls-3, .cls-4 {
        stroke: #8e7cc3;
        stroke-miterlimit: 10;
      }

      .cls-5 {
        fill: url(#_未命名的渐变_732-2);
      }

      .cls-4 {
        fill: #c8b6e2;
        stroke-width: 12px;
      }
    </style>
    <linearGradient id="_未命名的渐变_732" data-name="未命名的渐变 732" x1="203.94" y1="154.28" x2="244.91" y2="154.28" gradientUnits="userSpaceOnUse">
      <stop offset="0" stop-color="#f6c2d3"/>
      <stop offset="1" stop-color="#c8b6e2"/>
    </linearGradient>
    <linearGradient id="_未命名的渐变_732-2" data-name="未命名的渐变 732" x1="3" x2="43.96" xlink:href="#_未命名的渐变_732"/>
  </defs>
  <g id="_图层_1-2" data-name="图层 1">
    <g>
      <g>
        <path class="cls-2" d="M240.47,132.4c5.08,7.49,4.89,17.54,3.85,26.2-1.2,12.96-7.3,23.94-19.96,29.67-6.37,2.94-13.44,2.61-20.42,1.77.45-.66.81-1.39,1.1-2.2,2.14-4.86,2.91-12.02,4.25-21.64,1.2-8.77,2.63-19.22,3.81-27.88.92-8.35,2.14-14.37.99-20.32l.33-.06c5.25.23,10.29,1.68,14.79,4.24,4.33,2.44,8.18,5.89,11.26,10.24Z"/>
        <path class="cls-1" d="M203.94,190.04c-4.95,7.5-18.73,5.43-21.5-3.64-1.2-3.29-1.41-7.52-1.1-12.35.48-6.91,1.73-15.3,2.6-22.75.64-5.22,1.27-10.49,1.9-15.66,2.02-13.31,1.24-21.19,7.76-27.11,5.89-4.08,15.57-2.11,18.88,4.46l.08.14c.71,1.65,1.21,3.25,1.52,4.86,1.15,5.95-.07,11.97-.99,20.32-1.17,8.67-2.61,19.11-3.81,27.88-1.35,9.62-2.12,16.78-4.25,21.64-.29.81-.65,1.54-1.1,2.2Z"/>
        <path class="cls-1" d="M43.96,190.04c-.44-.66-.81-1.39-1.1-2.2-2.14-4.86-2.89-12.02-4.25-21.64-1.2-8.77-2.62-19.22-3.81-27.88-.92-8.35-2.13-14.37-.98-20.32.32-1.61.8-3.22,1.51-4.86l.08-.14c3.32-6.58,12.99-8.55,18.89-4.46,6.52,5.93,5.73,13.8,7.76,27.11.61,5.18,1.26,10.44,1.9,15.66.87,7.45,2.11,15.84,2.59,22.75.33,4.83.1,9.06-1.09,12.35-2.77,9.07-16.56,11.14-21.51,3.64Z"/>
        <path class="cls-5" d="M42.86,187.85c.29.81.66,1.54,1.1,2.2-6.97.84-14.05,1.17-20.41-1.77-12.65-5.73-18.77-16.71-19.96-29.67-1.04-8.67-1.23-18.72,3.85-26.2,6.28-8.87,15.76-14.02,26.04-14.47l.34.06c-1.15,5.95.05,11.97.98,20.32,1.18,8.67,2.61,19.11,3.81,27.88,1.36,9.62,2.12,16.78,4.25,21.64Z"/>
      </g>
      <g>
        <path class="cls-3" d="M43.96,190.04c4.96,7.5,18.74,5.43,21.51-3.64,1.18-3.29,1.41-7.52,1.09-12.35-.48-6.91-1.72-15.3-2.59-22.75-.64-5.22-1.28-10.49-1.9-15.66-2.03-13.31-1.24-21.19-7.76-27.11-5.9-4.08-15.57-2.11-18.89,4.46l-.08.14c-.71,1.65-1.2,3.25-1.51,4.86-1.15,5.95.05,11.97.98,20.32,1.18,8.67,2.61,19.11,3.81,27.88,1.36,9.62,2.12,16.78,4.25,21.64.29.81.66,1.54,1.1,2.2Z"/>
        <path class="cls-3" d="M33.49,117.93c-10.29.45-19.76,5.6-26.04,14.47-5.08,7.49-4.89,17.54-3.85,26.2,1.18,12.96,7.3,23.94,19.96,29.67,6.36,2.94,13.43,2.61,20.41,1.77.5-.05,1-.12,1.49-.18"/>
        <path class="cls-3" d="M19.11,121.93C13.9,68.17,54.37,16.41,112.69,9.68c27.67-3,55.04,5.37,77.15,22.81,29.68,22.3,41.73,63,39.37,89.67"/>
        <path class="cls-3" d="M203.94,190.04c-4.95,7.5-18.73,5.43-21.5-3.64-1.2-3.29-1.41-7.52-1.1-12.35.48-6.91,1.73-15.3,2.6-22.75.64-5.22,1.27-10.49,1.9-15.66,2.02-13.31,1.24-21.19,7.76-27.11,5.89-4.08,15.57-2.11,18.88,4.46l.08.14c.71,1.65,1.21,3.25,1.52,4.86,1.15,5.95-.07,11.97-.99,20.32-1.17,8.67-2.61,19.11-3.81,27.88-1.35,9.62-2.12,16.78-4.25,21.64-.29.81-.65,1.54-1.1,2.2Z"/>
        <path class="cls-3" d="M214.42,117.93c5.25.23,10.29,1.68,14.79,4.24,4.33,2.44,8.18,5.89,11.26,10.24,5.08,7.49,4.89,17.54,3.85,26.2-1.2,12.96-7.3,23.94-19.96,29.67-6.37,2.94-13.44,2.61-20.42,1.77-.49-.05-.99-.12-1.48-.18"/>
      </g>
    </g>
    <path class="cls-4" d="M50.7,31.15c16.38-12.63,77.85-52.01,147.54,4.44.99.8,1.05,2.27.14,3.16-.02.02-.05.05-.07.07-1.88,1.84-4.85,1.95-6.86.25-14.38-12.18-71.57-53.29-136.97-.64-1.17.95-2.87.91-3.98-.1-.03-.03-.06-.05-.09-.08-2.15-1.95-2.01-5.33.29-7.11Z"/>
  </g>
</svg>