<?xml version="1.0" encoding="UTF-8"?>
<svg id="_图层_2" data-name="图层 2" xmlns="http://www.w3.org/2000/svg" xmlns:xlink="http://www.w3.org/1999/xlink" viewBox="0 0 330.48 202.02">
  <defs>
    <style>
      .cls-1 {
        fill: url(#_未命名的渐变_2);
      }

      .cls-2, .cls-3 {
        fill: #7edfe3;
      }

      .cls-4 {
        fill: url(#_未命名的渐变_2-2);
      }

      .cls-5 {
        fill: none;
        stroke: #8e7cc3;
        stroke-width: 6px;
      }

      .cls-5, .cls-3 {
        stroke-miterlimit: 10;
      }

      .cls-3 {
        stroke: #c8b6e2;
        stroke-width: 2px;
      }
    </style>
    <linearGradient id="_未命名的渐变_2" data-name="未命名的渐变 2" x1="238.94" y1="-1751.7" x2="276.24" y2="-1751.7" gradientTransform="translate(0 -1614.73) scale(1 -1)" gradientUnits="userSpaceOnUse">
      <stop offset="0" stop-color="#f6c2d3"/>
      <stop offset="1" stop-color="#c8b6e2"/>
    </linearGradient>
    <linearGradient id="_未命名的渐变_2-2" data-name="未命名的渐变 2" x1="55.62" y1="-1751.48" x2="92.94" y2="-1751.48" xlink:href="#_未命名的渐变_2"/>
  </defs>
  <g id="_图层_2-2" data-name=" 图层 2">
    <g id="_图层_1-2" data-name=" 图层 1-2">
      <g>
        <g>
          <path class="cls-1" d="M272.24,116.63c4.7,6.9,4.5,16.2,3.4,24.2-1.1,12-6.6,22-18.2,27.4-5.8,2.7-12.2,2.4-18.6,1.6.4-.7.7-1.3,1-2,2-4.4,2.6-11.1,3.8-19.9,1.1-8.1,2.4-17.8,3.4-25.7.8-7.7,1.9-13.2.9-18.7h.3c4.8.2,9.3,1.5,13.5,3.9,3.9,2.3,7.5,5.4,10.2,9.4h0l.2-.2h.1Z"/>
          <path class="cls-2" d="M238.94,169.83c-4.6,6.9-17,5-19.6-3.3-1.1-3-1.3-6.9-1-11.4.4-6.4,1.6-14.1,2.4-21,.6-4.8,1.1-9.6,1.7-14.5,1.8-12.3,1.1-19.6,7.1-25,5.4-3.8,14.3-1.9,17.2,4.1v.2c.7,1.5,1.1,3,1.5,4.4,1.1,5.5,0,11.1-.9,18.7-1.1,8-2.4,17.6-3.4,25.7-1.2,8.9-1.9,15.4-3.8,19.9-.2.8-.6,1.4-1,2h0v.2h-.2Z"/>
          <path class="cls-2" d="M92.94,169.83c-.4-.7-.7-1.3-1-2-1.9-4.4-2.6-11.1-3.8-19.9-1.1-8.1-2.4-17.8-3.4-25.7-.8-7.7-2-13.2-.9-18.7.3-1.5.7-2.9,1.4-4.4v-.2c3-6,11.9-7.8,17.3-4.1,6,5.5,5.3,12.8,7.1,25,.6,4.8,1.1,9.6,1.7,14.5.8,6.9,1.9,14.6,2.4,21,.3,4.4,0,8.3-1,11.4-2.5,8.3-15.1,10.3-19.6,3.3h0v-.2h-.2,0Z"/>
          <path class="cls-4" d="M91.94,167.73c.2.8.6,1.4,1,2-6.4.8-12.9,1-18.6-1.6-11.5-5.3-17.1-15.4-18.2-27.4-.9-8-1.1-17.2,3.4-24.2,2.9-4.2,6.6-7.4,10.7-9.6h0c3.9-2.3,8.4-3.5,13.1-3.7h.3c-1.1,5.6,0,11.1.9,18.7,1.1,8,2.4,17.6,3.4,25.7,1.2,8.9,1.9,15.4,3.8,19.9h0v.2h.2Z"/>
        </g>
        <g>
          <path class="cls-5" d="M92.94,169.83c4.6,6.9,17,5,19.6-3.3,1.1-3,1.3-6.9,1-11.4-.4-6.4-1.6-14.1-2.4-21-.6-4.8-1.1-9.6-1.7-14.5-1.8-12.3-1.1-19.6-7.1-25-5.4-3.8-14.3-1.9-17.2,4.1v.2c-.7,1.5-1.1,3-1.5,4.4-1.1,5.5,0,11.1.9,18.7,1.1,8,2.4,17.6,3.4,25.7,1.2,8.9,1.9,15.4,3.8,19.9.2.8.6,1.4,1,2h0v.2h.2Z"/>
          <path class="cls-5" d="M70.44,106.93c-4.1,2.3-7.8,5.5-10.7,9.6-4.7,6.9-4.5,16.2-3.4,24.2,1.1,12,6.6,22,18.2,27.4,5.8,2.7,12.2,2.4,18.6,1.6.4,0,.9,0,1.3-.2"/>
          <path class="cls-5" d="M83.44,103.23c-4.7.2-9.1,1.5-13.1,3.7"/>
          <path class="cls-5" d="M70.44,106.93h0C65.64,57.43,102.54,9.73,155.74,3.53c25.2-2.7,50.2,4.9,70.3,21.1,27,20.5,38,58.1,35.9,82.6"/>
          <path class="cls-5" d="M238.94,169.83c-4.6,6.9-17,5-19.6-3.3-1.1-3-1.3-6.9-1-11.4.4-6.4,1.6-14.1,2.4-21,.6-4.8,1.1-9.6,1.7-14.5,1.8-12.3,1.1-19.6,7.1-25,5.4-3.8,14.3-1.9,17.2,4.1v.2c.7,1.5,1.1,3,1.5,4.4,1.1,5.5,0,11.1-.9,18.7-1.1,8-2.4,17.6-3.4,25.7-1.2,8.9-1.9,15.4-3.8,19.9-.2.8-.6,1.4-1,2h0v.2h-.2Z"/>
          <path class="cls-5" d="M248.44,103.23c4.8.2,9.3,1.5,13.5,4,3.9,2.3,7.5,5.4,10.2,9.4,4.7,6.9,4.5,16.2,3.4,24.2-1.1,12-6.6,22-18.2,27.4-5.8,2.7-12.2,2.4-18.6,1.6-.4,0-.9,0-1.3-.2"/>
        </g>
      </g>
      <path class="cls-3" d="M36.54,109.53c.2,1,0,2-.2,2.9-1.4,6.8-7,39.4,8.6,61.7,0,0,2.1,3-.6,5.5-1.8,1.6-3.9-.7-5.6-2.6-5.7-6.5-18.5-33.4-8.9-64.5.3-1.1.6-1.8,1-2.6,2.3-4.7,4.8-4.8,5.6-.4h.1Z"/>
      <path class="cls-3" d="M13.94,106.23c.3,1.2,0,2.5-.2,3.7-1.7,8.7-8,50.3,15,77.7,0,0,3.1,3.7-.5,7-2.4,2.2-5.5-.7-7.9-3-8.3-7.9-27.5-41.1-15.5-81.1.4-1.4.8-2.3,1.3-3.4,3.1-6.1,6.5-6.4,7.8-.8h0v-.1Z"/>
      <path class="cls-3" d="M293.94,113.13c-.2,1,0,2,.2,2.9,1.4,6.8,7,39.4-8.6,61.7,0,0-2.1,3,.6,5.5,1.8,1.6,3.9-.7,5.6-2.6,5.7-6.5,18.5-33.4,8.9-64.5-.3-1.1-.6-1.8-1-2.6-2.3-4.7-4.8-4.8-5.6-.4h-.1,0Z"/>
      <path class="cls-3" d="M316.54,111.83c-.3,1.2,0,2.5.2,3.7,1.7,8.7,8,50.3-15,77.7,0,0-3.1,3.7.5,7,2.4,2.2,5.5-.7,7.9-3,8.3-7.9,27.5-41.1,15.5-81.1-.4-1.4-.8-2.3-1.3-3.4-3.1-6.1-6.5-6.4-7.8-.8h0v-.1Z"/>
    </g>
  </g>
</svg>