<?xml version="1.0" encoding="UTF-8"?>
<svg id="_图层_2" data-name="图层 2" xmlns="http://www.w3.org/2000/svg" xmlns:xlink="http://www.w3.org/1999/xlink" viewBox="0 0 226.61 177.28">
  <defs>
    <style>
      .cls-1 {
        fill: #7edfe3;
      }

      .cls-2 {
        fill: url(#_未命名的渐变_732);
      }

      .cls-3 {
        fill: none;
        stroke: #8e7cc3;
        stroke-miterlimit: 10;
        stroke-width: 6px;
      }

      .cls-4 {
        fill: url(#_未命名的渐变_732-2);
      }
    </style>
    <linearGradient id="_未命名的渐变_732" data-name="未命名的渐变 732" x1="186.26" y1="137.05" x2="223.61" y2="137.05" gradientUnits="userSpaceOnUse">
      <stop offset="0" stop-color="#f6c2d3"/>
      <stop offset="1" stop-color="#c8b6e2"/>
    </linearGradient>
    <linearGradient id="_未命名的渐变_732-2" data-name="未命名的渐变 732" x1="3" y1="137.05" x2="40.35" y2="137.05" xlink:href="#_未命名的渐变_732"/>
  </defs>
  <g id="_图层_1-2" data-name="图层 1">
    <g>
      <g>
        <path class="cls-2" d="M209.29,107.39c3.95,2.25,7.46,5.44,10.27,9.45,4.63,6.92,4.46,16.19,3.51,24.19-1.09,11.97-6.66,22.11-18.2,27.4-5.8,2.7-12.25,2.41-18.61,1.63.4-.61.74-1.28,1-2.03,1.94-4.5,2.64-11.1,3.87-19.98,1.09-8.1,2.4-17.75,3.47-25.75.84-7.71,1.95-13.26.9-18.75l.3-.06c4.79.21,9.38,1.55,13.49,3.9Z"/>
        <path class="cls-1" d="M186.26,170.06c-4.52,6.92-17.09,5-19.62-3.36-1.09-3.04-1.29-6.94-1-11.4.44-6.38,1.58-14.13,2.37-21.01.58-4.81,1.16-9.67,1.73-14.45,1.85-12.3,1.13-19.57,7.08-25.03,5.37-3.77,14.2-1.95,17.23,4.11l.06.14c.65,1.52,1.1,3,1.39,4.49,1.05,5.49-.06,11.04-.9,18.75-1.07,8-2.38,17.65-3.47,25.75-1.23,8.88-1.93,15.48-3.87,19.98-.26.75-.6,1.42-1,2.03Z"/>
        <path class="cls-1" d="M40.35,170.06c-.4-.61-.74-1.28-1-2.03-1.95-4.5-2.64-11.1-3.88-19.98-1.09-8.1-2.39-17.75-3.47-25.75-.84-7.7-1.94-13.26-.89-18.75.29-1.49.73-2.97,1.38-4.49l.07-.14c3.03-6.06,11.85-7.88,17.23-4.11,5.95,5.46,5.23,12.73,7.08,25.03.56,4.78,1.15,9.64,1.73,14.45.79,6.88,1.92,14.63,2.36,21.01.3,4.46.1,8.36-.99,11.4-2.53,8.36-15.1,10.28-19.62,3.36Z"/>
        <path class="cls-4" d="M39.35,168.03c.26.75.6,1.42,1,2.03-6.36.78-12.81,1.07-18.61-1.63-11.54-5.29-17.12-15.43-18.2-27.4-.95-8-1.12-17.27,3.51-24.19,2.9-4.14,6.53-7.4,10.64-9.66,4.02-2.22,8.47-3.48,13.12-3.69l.3.06c-1.05,5.49.05,11.05.89,18.75,1.08,8,2.38,17.65,3.47,25.75,1.24,8.88,1.93,15.48,3.88,19.98Z"/>
      </g>
      <g>
        <path class="cls-3" d="M40.35,170.06c4.52,6.92,17.09,5,19.62-3.36,1.09-3.04,1.29-6.94.99-11.4-.44-6.38-1.57-14.13-2.36-21.01-.58-4.81-1.17-9.67-1.73-14.45-1.85-12.3-1.13-19.57-7.08-25.03-5.38-3.77-14.2-1.95-17.23,4.11l-.07.14c-.65,1.52-1.09,3-1.38,4.49-1.05,5.49.05,11.05.89,18.75,1.08,8,2.38,17.65,3.47,25.75,1.24,8.88,1.93,15.48,3.88,19.98.26.75.6,1.42,1,2.03Z"/>
        <path class="cls-3" d="M30.81,103.49c-4.65.21-9.1,1.47-13.12,3.69-4.11,2.26-7.74,5.52-10.64,9.66-4.63,6.92-4.46,16.19-3.51,24.19,1.08,11.97,6.66,22.11,18.2,27.4,5.8,2.7,12.25,2.41,18.61,1.63.45-.05.91-.11,1.36-.17"/>
        <path class="cls-3" d="M17.69,107.18C12.94,57.55,49.85,9.77,103.03,3.55c25.23-2.76,50.19,4.96,70.36,21.06,27.07,20.59,38.06,58.15,35.9,82.78h0"/>
        <path class="cls-3" d="M186.26,170.06c-4.52,6.92-17.09,5-19.62-3.36-1.09-3.04-1.29-6.94-1-11.4.44-6.38,1.58-14.13,2.37-21.01.58-4.81,1.16-9.67,1.73-14.45,1.85-12.3,1.13-19.57,7.08-25.03,5.37-3.77,14.2-1.95,17.23,4.11l.06.14c.65,1.52,1.1,3,1.39,4.49,1.05,5.49-.06,11.04-.9,18.75-1.07,8-2.38,17.65-3.47,25.75-1.23,8.88-1.93,15.48-3.87,19.98-.26.75-.6,1.42-1,2.03Z"/>
        <path class="cls-3" d="M195.8,103.49c4.79.21,9.38,1.55,13.49,3.9,3.95,2.25,7.46,5.44,10.27,9.45,4.63,6.92,4.46,16.19,3.51,24.19-1.09,11.97-6.66,22.11-18.2,27.4-5.8,2.7-12.25,2.41-18.61,1.63-.45-.05-.91-.11-1.36-.17"/>
      </g>
    </g>
  </g>
</svg>