<?xml version="1.0" encoding="UTF-8"?>
<svg id="_图层_2" data-name="图层 2" xmlns="http://www.w3.org/2000/svg" xmlns:xlink="http://www.w3.org/1999/xlink" viewBox="0 0 226.51 177.05">
  <defs>
    <style>
      .cls-1 {
        fill: url(#_未命名的渐变_2);
      }

      .cls-2 {
        fill: #7edfe3;
      }

      .cls-3 {
        fill: url(#_未命名的渐变_2-2);
      }

      .cls-4 {
        fill: none;
        stroke: #8e7cc3;
        stroke-miterlimit: 10;
        stroke-width: 6px;
      }
    </style>
    <linearGradient id="_未命名的渐变_2" data-name="未命名的渐变 2" x1="186.25" y1="-2630.09" x2="223.55" y2="-2630.09" gradientTransform="translate(0 -2492.63) scale(1 -1)" gradientUnits="userSpaceOnUse">
      <stop offset="0" stop-color="#f6c2d3"/>
      <stop offset="1" stop-color="#c8b6e2"/>
    </linearGradient>
    <linearGradient id="_未命名的渐变_2-2" data-name="未命名的渐变 2" x1="2.93" y1="-2629.38" x2="40.25" y2="-2629.38" xlink:href="#_未命名的渐变_2"/>
  </defs>
  <g id="_图层_2-2" data-name=" 图层 2">
    <g id="uuid-219a799a-ac5b-4335-bff5-5f683f57c9a4" data-name=" 图层 2-2">
      <g id="_图层_1-2" data-name=" 图层 1-2">
        <g>
          <g>
            <path class="cls-1" d="M219.55,116.63c4.7,6.9,4.5,16.2,3.4,24.2-1.1,12-6.6,22-18.2,27.4s-12.2,2.4-18.6,1.6c.4-.7.7-1.3,1-2,2-4.4,2.6-11.1,3.8-19.9,1.1-8.1,2.4-17.8,3.4-25.7.8-7.7,1.9-13.2.9-18.7h.3c4.8.2,9.3,1.5,13.5,3.9,3.9,2.3,7.5,5.4,10.2,9.4h0l.2-.2h.1Z"/>
            <path class="cls-2" d="M186.25,169.83c-4.6,6.9-17,5-19.6-3.3-1.1-3-1.3-6.9-1-11.4.4-6.4,1.6-14.1,2.4-21,.6-4.8,1.1-9.6,1.7-14.5,1.8-12.3,1.1-19.6,7.1-25,5.4-3.8,14.3-1.9,17.2,4.1v.2c.7,1.5,1.1,3,1.5,4.4,1.1,5.5,0,11.1-.9,18.7-1.1,8-2.4,17.6-3.4,25.7-1.2,8.9-1.9,15.4-3.8,19.9-.2.8-.6,1.4-1,2h0v.2h-.2Z"/>
            <path class="cls-2" d="M40.25,169.83c-.4-.7-.7-1.3-1-2-1.9-4.4-2.6-11.1-3.8-19.9-1.1-8.1-2.4-17.8-3.4-25.7-.8-7.7-2-13.2-.9-18.7.3-1.5.7-2.9,1.4-4.4v-.2c3-6,11.9-7.8,17.3-4.1,6,5.5,5.3,12.8,7.1,25,.6,4.8,1.1,9.6,1.7,14.5.8,6.9,1.9,14.6,2.4,21,.3,4.4,0,8.3-1,11.4-2.5,8.3-15.1,10.3-19.6,3.3h0v-.2h-.2Z"/>
            <path class="cls-3" d="M39.25,167.73c.2.8.6,1.4,1,2-6.4.8-12.9,1-18.6-1.6-11.5-5.3-17.1-15.4-18.2-27.4-.9-8-1.1-17.2,3.4-24.2,2.9-4.2,6.6-7.4,10.7-9.6h0c3.9-2.3,8.4-3.5,13.1-3.7h.3c-1.1,5.6,0,11.1.9,18.7,1.1,8,2.4,17.6,3.4,25.7,1.2,8.9,1.9,15.4,3.8,19.9h0v.2s.2,0,.2,0Z"/>
          </g>
          <g>
            <path class="cls-4" d="M40.25,169.83c4.6,6.9,17,5,19.6-3.3,1.1-3,1.3-6.9,1-11.4-.4-6.4-1.6-14.1-2.4-21-.6-4.8-1.1-9.6-1.7-14.5-1.8-12.3-1.1-19.6-7.1-25-5.4-3.8-14.3-1.9-17.2,4.1v.2c-.7,1.5-1.1,3-1.5,4.4-1.1,5.5,0,11.1.9,18.7,1.1,8,2.4,17.6,3.4,25.7,1.2,8.9,1.9,15.4,3.8,19.9.2.8.6,1.4,1,2h0v.2h.2,0Z"/>
            <path class="cls-4" d="M17.75,106.93c-4.1,2.3-7.8,5.5-10.7,9.6-4.7,6.9-4.5,16.2-3.4,24.2,1.1,12,6.6,22,18.2,27.4,5.8,2.7,12.2,2.4,18.6,1.6.4,0,.9,0,1.3-.2"/>
            <path class="cls-4" d="M30.75,103.23c-4.7.2-9.1,1.5-13.1,3.7"/>
            <path class="cls-4" d="M17.75,106.93h0C12.95,57.43,49.85,9.73,103.05,3.53c25.2-2.7,50.2,4.9,70.3,21.1,27,20.5,38,58.1,35.9,82.6"/>
            <path class="cls-4" d="M186.25,169.83c-4.6,6.9-17,5-19.6-3.3-1.1-3-1.3-6.9-1-11.4.4-6.4,1.6-14.1,2.4-21,.6-4.8,1.1-9.6,1.7-14.5,1.8-12.3,1.1-19.6,7.1-25,5.4-3.8,14.3-1.9,17.2,4.1v.2c.7,1.5,1.1,3,1.5,4.4,1.1,5.5,0,11.1-.9,18.7-1.1,8-2.4,17.6-3.4,25.7-1.2,8.9-1.9,15.4-3.8,19.9-.2.8-.6,1.4-1,2h0v.2h-.2Z"/>
            <path class="cls-4" d="M195.75,103.23c4.8.2,9.3,1.5,13.5,4,3.9,2.3,7.5,5.4,10.2,9.4,4.7,6.9,4.5,16.2,3.4,24.2-1.1,12-6.6,22-18.2,27.4s-12.2,2.4-18.6,1.6c-.4,0-.9,0-1.3-.2"/>
          </g>
        </g>
      </g>
    </g>
  </g>
</svg>