<?xml version="1.0" encoding="UTF-8"?>
<svg id="_图层_2" data-name="图层 2" xmlns="http://www.w3.org/2000/svg" xmlns:xlink="http://www.w3.org/1999/xlink" viewBox="0 0 154.44 215.1">
  <defs>
    <style>
      .cls-1 {
        fill: url(#_未命名的渐变_1216);
      }

      .cls-2 {
        fill: #7edfe3;
      }

      .cls-3 {
        fill: url(#_未命名的渐变_1216-2);
      }

      .cls-4 {
        fill: none;
        stroke: #8e7cc3;
        stroke-miterlimit: 10;
        stroke-width: 6px;
      }
    </style>
    <linearGradient id="_未命名的渐变_1216" data-name="未命名的渐变 1216" x1="3" y1="14.65" x2="151.44" y2="14.65" gradientUnits="userSpaceOnUse">
      <stop offset="0" stop-color="#f6c2d3"/>
      <stop offset=".28" stop-color="#f1c0d4"/>
      <stop offset=".6" stop-color="#e3bdd9"/>
      <stop offset=".94" stop-color="#ccb7e0"/>
      <stop offset="1" stop-color="#c8b6e2"/>
    </linearGradient>
    <linearGradient id="_未命名的渐变_1216-2" data-name="未命名的渐变 1216" y1="200.45" y2="200.45" xlink:href="#_未命名的渐变_1216"/>
  </defs>
  <g id="_图层_1-2" data-name="图层 1">
    <g>
      <g>
        <path class="cls-1" d="M139.79,3c6.43,0,11.65,5.22,11.65,11.65,0,3.21-1.3,6.13-3.41,8.24s-5.03,3.41-8.24,3.41H14.65c-6.44,0-11.65-5.22-11.65-11.65,0-3.21,1.3-6.13,3.41-8.24s5.02-3.41,8.24-3.41h125.14Z"/>
        <path class="cls-3" d="M139.79,188.8c6.43,0,11.65,5.22,11.65,11.65,0,3.21-1.3,6.13-3.41,8.24s-5.03,3.41-8.24,3.41H14.65c-6.44,0-11.65-5.22-11.65-11.65,0-3.21,1.3-6.13,3.41-8.24s5.02-3.41,8.24-3.41h125.14Z"/>
        <path class="cls-2" d="M112.59,64.31c10.94.41-35.64,30.38-35.64,30.38,0,0-56.29-31.19-33.21-30.38h68.85Z"/>
        <path class="cls-2" d="M75.49,143.69s56.29,31.19,33.21,30.38H39.85c-10.94-.4,35.64-30.38,35.64-30.38Z"/>
      </g>
      <g>
        <path class="cls-4" d="M14.65,26.3c-6.44,0-11.65-5.22-11.65-11.65,0-3.21,1.3-6.13,3.41-8.24s5.02-3.41,8.24-3.41h125.14c6.43,0,11.65,5.22,11.65,11.65,0,3.21-1.3,6.13-3.41,8.24s-5.03,3.41-8.24,3.41H14.65Z"/>
        <path class="cls-4" d="M138.78,188.8h1.01c6.43,0,11.65,5.22,11.65,11.65,0,3.21-1.3,6.13-3.41,8.24s-5.03,3.41-8.24,3.41H14.65c-6.44,0-11.65-5.22-11.65-11.65,0-3.21,1.3-6.13,3.41-8.24s5.02-3.41,8.24-3.41h124.13Z"/>
        <path class="cls-4" d="M14.65,26.3s-8.42,49.96,41.4,77.91c.4.4-52.03,23.99-41.4,84.59"/>
        <path class="cls-4" d="M138.78,26.3s8.42,49.96-41.4,77.91c-.41.4,52.02,23.99,41.4,84.59"/>
        <path class="cls-4" d="M108.7,174.07H39.85c-10.94-.4,35.64-30.38,35.64-30.38,0,0,56.29,31.19,33.21,30.38Z"/>
        <path class="cls-4" d="M43.74,64.31h68.85c10.94.41-35.64,30.38-35.64,30.38,0,0-56.29-31.19-33.21-30.38Z"/>
      </g>
    </g>
  </g>
</svg>