<?xml version="1.0" encoding="UTF-8"?>
<svg id="_图层_2" data-name="图层 2" xmlns="http://www.w3.org/2000/svg" xmlns:xlink="http://www.w3.org/1999/xlink" viewBox="0 0 176.35 244.22">
  <defs>
    <style>
      .cls-1 {
        fill: url(#_未命名的渐变_1216);
      }

      .cls-2 {
        stroke-width: 2px;
      }

      .cls-2, .cls-3 {
        fill: #7edfe3;
      }

      .cls-2, .cls-4 {
        stroke-miterlimit: 10;
      }

      .cls-2, .cls-4, .cls-5 {
        stroke: #8e7cc3;
      }

      .cls-6 {
        fill: url(#_未命名的渐变_1216-2);
      }

      .cls-4, .cls-5 {
        fill: none;
        stroke-width: 6px;
      }

      .cls-5 {
        stroke-linecap: round;
        stroke-linejoin: round;
      }
    </style>
    <linearGradient id="_未命名的渐变_1216" data-name="未命名的渐变 1216" x1="3" y1="16.27" x2="173.35" y2="16.27" gradientUnits="userSpaceOnUse">
      <stop offset="0" stop-color="#f6c2d3"/>
      <stop offset=".28" stop-color="#f1c0d4"/>
      <stop offset=".6" stop-color="#e3bdd9"/>
      <stop offset=".94" stop-color="#ccb7e0"/>
      <stop offset="1" stop-color="#c8b6e2"/>
    </linearGradient>
    <linearGradient id="_未命名的渐变_1216-2" data-name="未命名的渐变 1216" y1="227.95" y2="227.95" xlink:href="#_未命名的渐变_1216"/>
  </defs>
  <g id="_图层_1-2" data-name="图层 1">
    <ellipse class="cls-2" cx="88.61" cy="125.05" rx="2.22" ry="4.05"/>
    <g>
      <g>
        <path class="cls-1" d="M3,14.64c0-6.44,5.22-11.64,11.65-11.64h147.05c6.44,0,11.65,5.21,11.65,11.64v3.25c0,6.43-5.21,11.64-11.65,11.64H14.65c-6.43,0-11.65-5.22-11.65-11.64v-3.25Z"/>
        <path class="cls-6" d="M3,226.33c0-6.44,5.22-11.66,11.65-11.66h147.05c6.44,0,11.65,5.22,11.65,11.66v3.25c0,6.43-5.21,11.64-11.65,11.64H14.65c-6.43,0-11.65-5.22-11.65-11.64v-3.25Z"/>
        <path class="cls-3" d="M137.86,61.56c15.16.71-49.41,53.24-49.41,53.24,0,0-78.05-54.67-46.04-53.24h95.46Z"/>
        <path class="cls-3" d="M87.6,143.84s78.05,52.51,46.04,51.14H38.18c-15.16-.68,49.41-51.14,49.41-51.14Z"/>
      </g>
      <g>
        <path class="cls-4" d="M16.37,29.54h-1.72c-6.43,0-11.65-5.22-11.65-11.64v-3.25c0-6.44,5.22-11.64,11.65-11.64h147.05c6.44,0,11.65,5.21,11.65,11.64v3.25c0,6.43-5.21,11.64-11.65,11.64H16.37Z"/>
        <path class="cls-4" d="M158.83,214.68h2.87c6.44,0,11.65,5.22,11.65,11.66v3.25c0,6.43-5.21,11.64-11.65,11.64H14.65c-6.43,0-11.65-5.22-11.65-11.64v-3.25c0-6.44,5.22-11.66,11.65-11.66h144.18Z"/>
        <path class="cls-4" d="M16.37,29.54s-9.65,56.92,47.51,88.77c.47.46-59.7,27.33-47.51,96.38"/>
        <path class="cls-4" d="M158.83,29.54s9.65,56.92-47.52,88.77c-.46.46,59.71,27.33,47.52,96.38"/>
        <path class="cls-4" d="M42.41,61.56h95.46c15.16.71-49.41,53.24-49.41,53.24,0,0-78.05-54.67-46.04-53.24Z"/>
        <path class="cls-5" d="M133.64,194.99H38.18c-15.16-.68,49.41-51.14,49.41-51.14,0,0,78.05,52.51,46.04,51.14Z"/>
      </g>
    </g>
    <ellipse class="cls-2" cx="88.61" cy="135.73" rx="2.81" ry="2.79"/>
  </g>
</svg>