<?xml version="1.0" encoding="UTF-8"?>
<svg id="_图层_2" data-name="图层 2" xmlns="http://www.w3.org/2000/svg" xmlns:xlink="http://www.w3.org/1999/xlink" viewBox="0 0 175.39 244.6">
  <defs>
    <style>
      .cls-1 {
        fill: url(#_未命名的渐变_1216);
      }

      .cls-2 {
        fill: #7edfe3;
      }

      .cls-3 {
        fill: url(#_未命名的渐变_1216-2);
      }

      .cls-4 {
        stroke-miterlimit: 10;
      }

      .cls-4, .cls-5 {
        fill: none;
        stroke: #8e7cc3;
        stroke-width: 6px;
      }

      .cls-5 {
        stroke-linecap: round;
        stroke-linejoin: round;
      }
    </style>
    <linearGradient id="_未命名的渐变_1216" data-name="未命名的渐变 1216" x1="3" y1="16.29" x2="172.39" y2="16.29" gradientUnits="userSpaceOnUse">
      <stop offset="0" stop-color="#f6c2d3"/>
      <stop offset=".28" stop-color="#f1c0d4"/>
      <stop offset=".6" stop-color="#e3bdd9"/>
      <stop offset=".94" stop-color="#ccb7e0"/>
      <stop offset="1" stop-color="#c8b6e2"/>
    </linearGradient>
    <linearGradient id="_未命名的渐变_1216-2" data-name="未命名的渐变 1216" y1="228.31" y2="228.31" xlink:href="#_未命名的渐变_1216"/>
  </defs>
  <g id="_图层_1-2" data-name="图层 1">
    <g>
      <g>
        <path class="cls-2" d="M39.19,51.18h94.92c15.07.82-49.14,61.69-49.14,61.69,0,0-77.61-63.34-45.78-61.69Z"/>
        <path class="cls-1" d="M14.65,3h146.09c6.44,0,11.65,5.21,11.65,11.64v3.29c0,6.44-5.21,11.65-11.65,11.65H14.65c-6.44,0-11.65-5.21-11.65-11.65v-3.29c0-6.42,5.21-11.64,11.65-11.64Z"/>
        <path class="cls-2" d="M130.91,194.99H35.99c-15.07-.82,49.14-61.69,49.14-61.69,0,0,77.61,63.34,45.78,61.69Z"/>
        <path class="cls-3" d="M160.74,241.6H14.65c-6.44,0-11.65-5.21-11.65-11.65v-3.29c0-6.42,5.21-11.64,11.65-11.64h146.09c6.44,0,11.65,5.21,11.65,11.64v3.29c0,6.44-5.21,11.65-11.65,11.65Z"/>
      </g>
      <g>
        <path class="cls-4" d="M16.29,29.58h-1.64c-6.44,0-11.65-5.21-11.65-11.65v-3.29c0-6.42,5.21-11.64,11.65-11.64h146.09c6.44,0,11.65,5.21,11.65,11.64v3.29c0,6.44-5.21,11.65-11.65,11.65H16.29Z"/>
        <path class="cls-4" d="M157.95,215.02h2.78c6.44,0,11.65,5.21,11.65,11.64v3.29c0,6.44-5.21,11.65-11.65,11.65H14.65c-6.44,0-11.65-5.21-11.65-11.65v-3.29c0-6.42,5.21-11.64,11.65-11.64h143.3Z"/>
        <path class="cls-4" d="M16.29,29.58s-9.6,57.02,47.24,88.91c.47.47-59.36,27.39-47.24,96.54"/>
        <path class="cls-4" d="M157.95,29.58s9.6,57.02-47.24,88.91c-.47.47,59.36,27.39,47.24,96.54"/>
        <path class="cls-4" d="M39.19,51.18h94.92c15.07.82-49.14,61.69-49.14,61.69,0,0-77.61-63.34-45.78-61.69Z"/>
        <path class="cls-5" d="M130.91,194.99H35.99c-15.07-.82,49.14-61.69,49.14-61.69,0,0,77.61,63.34,45.78,61.69Z"/>
      </g>
    </g>
  </g>
</svg>