<?xml version="1.0" encoding="UTF-8"?>
<svg id="_图层_2" data-name="图层 2" xmlns="http://www.w3.org/2000/svg" xmlns:xlink="http://www.w3.org/1999/xlink" viewBox="0 0 243.49 236.87">
  <defs>
    <style>
      .cls-1 {
        fill: url(#_未命名的渐变_1054);
      }

      .cls-2 {
        fill: #7edfe3;
      }

      .cls-3 {
        stroke-miterlimit: 10;
      }

      .cls-3, .cls-4 {
        fill: none;
        stroke: #8e7cc3;
        stroke-width: 6px;
      }

      .cls-4 {
        stroke-linecap: round;
        stroke-linejoin: round;
      }
    </style>
    <linearGradient id="_未命名的渐变_1054" data-name="未命名的渐变 1054" x1="3" y1="118.44" x2="240.49" y2="118.44" gradientUnits="userSpaceOnUse">
      <stop offset="0" stop-color="#f6c2d3"/>
      <stop offset=".28" stop-color="#efc0d5"/>
      <stop offset=".67" stop-color="#ddbbdb"/>
      <stop offset="1" stop-color="#c8b6e2"/>
    </linearGradient>
  </defs>
  <g id="_图层_1-2" data-name="图层 1">
    <g>
      <g>
        <path class="cls-2" d="M206.26,117.29c0,4.92-3.97,8.89-8.89,8.89h-97.83c-4.91,0-8.89-3.97-8.89-8.89v-2.7c0-4.92,3.99-8.89,8.89-8.89h97.83c4.92,0,8.89,3.97,8.89,8.89v2.7Z"/>
        <path class="cls-2" d="M99.43,186.68c-4.91,0-8.89-3.99-8.89-8.89v-2.71c0-4.91,3.99-8.89,8.89-8.89h97.83c4.92,0,8.89,3.99,8.89,8.89v2.71c0,4.91-3.97,8.89-8.89,8.89h-97.83Z"/>
        <path class="cls-2" d="M98.12,68.6c-4.92,0-8.89-3.99-8.89-8.89v-2.71c0-4.91,3.97-8.89,8.89-8.89h97.83c4.91,0,8.89,3.99,8.89,8.89v2.71c0,4.91-3.99,8.89-8.89,8.89h-97.83Z"/>
        <path class="cls-1" d="M26.23,233.87c-12.82,0-23.23-10.39-23.23-23.23V26.23C3,13.39,13.4,3,26.23,3h191.03c12.82,0,23.23,10.39,23.23,23.23v184.42c0,12.83-10.4,23.23-23.23,23.23H26.23ZM89.23,59.71c0,4.91,3.97,8.89,8.89,8.89h97.83c4.91,0,8.89-3.99,8.89-8.89v-2.71c0-4.91-3.99-8.89-8.89-8.89h-97.83c-4.92,0-8.89,3.99-8.89,8.89v2.71ZM206.26,114.6c0-4.92-3.97-8.89-8.89-8.89h-97.83c-4.91,0-8.89,3.97-8.89,8.89v2.7c0,4.92,3.99,8.89,8.89,8.89h97.83c4.92,0,8.89-3.97,8.89-8.89v-2.7ZM99.43,166.19c-4.91,0-8.89,3.99-8.89,8.89v2.71c0,4.91,3.99,8.89,8.89,8.89h97.83c4.92,0,8.89-3.99,8.89-8.89v-2.71c0-4.91-3.97-8.89-8.89-8.89h-97.83ZM71.02,116.13c0-6.29-5.1-11.39-11.39-11.39s-11.39,5.1-11.39,11.39,5.1,11.39,11.39,11.39,11.39-5.1,11.39-11.39ZM71.02,176.25c0-6.29-5.1-11.39-11.39-11.39s-11.38,5.1-11.38,11.39,5.09,11.39,11.38,11.39,11.39-5.1,11.39-11.39ZM69.72,58.84c0-6.29-5.1-11.39-11.39-11.39s-11.39,5.1-11.39,11.39,5.1,11.39,11.39,11.39,11.39-5.1,11.39-11.39Z"/>
      </g>
      <g>
        <path class="cls-3" d="M217.26,233.87H26.23c-12.82,0-23.23-10.39-23.23-23.23V26.23C3,13.39,13.4,3,26.23,3h191.03c12.82,0,23.23,10.39,23.23,23.23v184.42c0,12.83-10.4,23.23-23.23,23.23Z"/>
        <path class="cls-3" d="M197.26,186.68h-97.83c-4.91,0-8.89-3.99-8.89-8.89v-2.71c0-4.91,3.99-8.89,8.89-8.89h97.83c4.92,0,8.89,3.99,8.89,8.89v2.71c0,4.91-3.97,8.89-8.89,8.89Z"/>
        <circle class="cls-3" cx="59.63" cy="116.13" r="11.39"/>
        <path class="cls-3" d="M71.02,176.25c0,6.29-5.1,11.39-11.39,11.39s-11.38-5.1-11.38-11.39,5.09-11.39,11.38-11.39,11.39,5.1,11.39,11.39Z"/>
        <circle class="cls-3" cx="58.33" cy="58.84" r="11.39"/>
        <path class="cls-4" d="M197.36,126.19h-97.83c-4.91,0-8.89-3.97-8.89-8.89v-2.7c0-4.92,3.99-8.89,8.89-8.89h97.83c4.92,0,8.89,3.97,8.89,8.89v2.7c0,4.92-3.97,8.89-8.89,8.89Z"/>
        <path class="cls-4" d="M195.95,68.6h-97.83c-4.92,0-8.89-3.99-8.89-8.89v-2.71c0-4.91,3.97-8.89,8.89-8.89h97.83c4.91,0,8.89,3.99,8.89,8.89v2.71c0,4.91-3.99,8.89-8.89,8.89Z"/>
      </g>
    </g>
  </g>
</svg>