<?xml version="1.0" encoding="UTF-8"?>
<svg id="_图层_2" xmlns="http://www.w3.org/2000/svg" xmlns:xlink="http://www.w3.org/1999/xlink" version="1.1" viewBox="0 0 243.5 236.9">
  <!-- Generator: Adobe Illustrator 30.3.0, SVG Export Plug-In . SVG Version: 2.1.3 Build 182)  -->
  <defs>
    <style>
      .st0 {
        fill: url(#_未命名的渐变_5);
      }

      .st1, .st2 {
        fill: #7edfe3;
      }

      .st3, .st4 {
        fill: none;
        stroke: #8e7cc3;
      }

      .st3, .st4, .st2 {
        stroke-width: 6px;
      }

      .st3, .st2 {
        stroke-miterlimit: 10;
      }

      .st4 {
        stroke-linecap: round;
        stroke-linejoin: round;
      }

      .st2 {
        stroke: #7edfe3;
      }
    </style>
    <linearGradient id="_未命名的渐变_5" data-name="未命名的渐变 5" x1="3" y1="133.6" x2="240.5" y2="133.6" gradientTransform="translate(0 252) scale(1 -1)" gradientUnits="userSpaceOnUse">
      <stop offset="0" stop-color="#f6c2d3"/>
      <stop offset=".3" stop-color="#efc0d5"/>
      <stop offset=".7" stop-color="#ddbbdb"/>
      <stop offset="1" stop-color="#c8b6e2"/>
    </linearGradient>
  </defs>
  <g id="_图层_1-2">
    <g>
      <g>
        <path class="st1" d="M206.3,117.3c0,4.9-4,8.9-8.9,8.9h-97.8c-4.9,0-8.9-4-8.9-8.9v-2.7c0-4.9,4-8.9,8.9-8.9h97.8c4.9,0,8.9,4,8.9,8.9v2.7Z"/>
        <path class="st1" d="M99.4,186.7c-4.9,0-8.9-4-8.9-8.9v-2.7c0-4.9,4-8.9,8.9-8.9h97.8c4.9,0,8.9,4,8.9,8.9v2.7c0,4.9-4,8.9-8.9,8.9h-97.8Z"/>
        <path class="st1" d="M98.1,68.6c-4.9,0-8.9-4-8.9-8.9v-2.7c0-4.9,4-8.9,8.9-8.9h97.8c4.9,0,8.9,4,8.9,8.9v2.7c0,4.9-4,8.9-8.9,8.9h-97.8Z"/>
        <path class="st0" d="M26.2,233.9c-12.8,0-23.2-10.4-23.2-23.2V26.2C3,13.4,13.4,3,26.2,3h191c12.8,0,23.2,10.4,23.2,23.2v184.4c0,12.8-10.4,23.2-23.2,23.2H26.2ZM89.2,59.7c0,4.9,4,8.9,8.9,8.9h97.8c4.9,0,8.9-4,8.9-8.9v-2.7c0-4.9-4-8.9-8.9-8.9h-97.8c-4.9,0-8.9,4-8.9,8.9,0,0,0,2.7,0,2.7ZM206.3,114.6c0-4.9-4-8.9-8.9-8.9h-97.8c-4.9,0-8.9,4-8.9,8.9v2.7c0,4.9,4,8.9,8.9,8.9h97.8c4.9,0,8.9-4,8.9-8.9v-2.7ZM99.4,166.2c-4.9,0-8.9,4-8.9,8.9v2.7c0,4.9,4,8.9,8.9,8.9h97.8c4.9,0,8.9-4,8.9-8.9v-2.7c0-4.9-4-8.9-8.9-8.9h-97.8ZM71,116.1c0-6.3-5.1-11.4-11.4-11.4s-11.4,5.1-11.4,11.4,5.1,11.4,11.4,11.4,11.4-5.1,11.4-11.4ZM71,176.2c0-6.3-5.1-11.4-11.4-11.4s-11.4,5.1-11.4,11.4,5.1,11.4,11.4,11.4,11.4-5.1,11.4-11.4ZM69.7,58.8c0-6.3-5.1-11.4-11.4-11.4s-11.4,5.1-11.4,11.4,5.1,11.4,11.4,11.4,11.4-5.1,11.4-11.4Z"/>
      </g>
      <g>
        <path class="st3" d="M217.3,233.9H26.2c-12.8,0-23.2-10.4-23.2-23.2V26.2C3,13.4,13.4,3,26.2,3h191c12.8,0,23.2,10.4,23.2,23.2v184.4c0,12.8-10.4,23.2-23.2,23.2h0Z"/>
        <path class="st3" d="M197.3,186.7h-97.8c-4.9,0-8.9-4-8.9-8.9v-2.7c0-4.9,4-8.9,8.9-8.9h97.8c4.9,0,8.9,4,8.9,8.9v2.7c0,4.9-4,8.9-8.9,8.9Z"/>
        <circle class="st3" cx="59.6" cy="116.1" r="11.4"/>
        <path class="st3" d="M71,176.2c0,6.3-5.1,11.4-11.4,11.4s-11.4-5.1-11.4-11.4,5.1-11.4,11.4-11.4,11.4,5.1,11.4,11.4Z"/>
        <circle class="st3" cx="58.3" cy="58.8" r="11.4"/>
        <path class="st4" d="M197.4,126.2h-97.8c-4.9,0-8.9-4-8.9-8.9v-2.7c0-4.9,4-8.9,8.9-8.9h97.8c4.9,0,8.9,4,8.9,8.9v2.7c0,4.9-4,8.9-8.9,8.9Z"/>
        <path class="st4" d="M196,68.6h-97.8c-4.9,0-8.9-4-8.9-8.9v-2.7c0-4.9,4-8.9,8.9-8.9h97.8c4.9,0,8.9,4,8.9,8.9v2.7c0,4.9-4,8.9-8.9,8.9Z"/>
      </g>
    </g>
  </g>
  <path class="st2" d="M39.8,103.8l.8-.7c1.5-1.2,3.6-1.1,4.8.3l8.5,9.6c1.1,1.1,2.7,1.2,3.9,0l25.2-25.6c1.5-1.5,3.8-1.6,5.4-.2l.9.8c1.5,1.2,1.6,3.5.2,5l-28.4,31.1c-2.2,2.4-5.8,2.4-8,.1l-13.5-13.8c-1.8-1.9-1.7-4.9.2-6.7h-.1Z"/>
</svg>