<?xml version="1.0" encoding="UTF-8"?>
<svg id="_图层_2" data-name="图层 2" xmlns="http://www.w3.org/2000/svg" xmlns:xlink="http://www.w3.org/1999/xlink" viewBox="0 0 245.8 172.07">
  <defs>
    <style>
      .cls-1 {
        fill: url(#_未命名的渐变_1208);
      }

      .cls-2 {
        fill: #7edfe3;
      }

      .cls-3 {
        fill: url(#_未命名的渐变_1208-3);
      }

      .cls-4 {
        fill: url(#_未命名的渐变_1208-2);
      }

      .cls-5 {
        fill: none;
        stroke: #8e7cc3;
        stroke-linecap: round;
        stroke-linejoin: round;
        stroke-width: 6px;
      }
    </style>
    <linearGradient id="_未命名的渐变_1208" data-name="未命名的渐变 1208" x1="135.91" y1="84.98" x2="242.8" y2="84.98" gradientUnits="userSpaceOnUse">
      <stop offset="0" stop-color="#f6c2d3"/>
      <stop offset=".3" stop-color="#ecbfd6"/>
      <stop offset=".8" stop-color="#d3b9de"/>
      <stop offset="1" stop-color="#c8b6e2"/>
    </linearGradient>
    <linearGradient id="_未命名的渐变_1208-2" data-name="未命名的渐变 1208" x1="9.17" y1="126.86" x2="235.85" y2="126.86" xlink:href="#_未命名的渐变_1208"/>
    <linearGradient id="_未命名的渐变_1208-3" data-name="未命名的渐变 1208" x1="3" y1="85.3" x2="108.18" y2="85.3" xlink:href="#_未命名的渐变_1208"/>
  </defs>
  <g id="_图层_1-2" data-name="图层 1">
    <g>
      <g>
        <path class="cls-1" d="M233.73,10.18c5.7,5.27,9.28,12.87,8.99,20.61.18,23.44-.04,69.52.04,99.79-.05,7.04.19,11.2-.45,15.71-.66,4.96-3.06,9.67-6.47,13.49l-1.57-1.99c-19.39-14.34-79.47-57.84-98.27-71.74l-.1-.13c6.87-5.02,13.84-9.79,20.84-15.39,26.23-20.98,54.07-42.91,76.95-60.31l.03-.04Z"/>
        <path class="cls-4" d="M135.91,85.92l.1.13c18.8,13.9,78.88,57.4,98.27,71.74l1.57,1.99c-3.41,3.83-7.83,6.76-12.52,8.16l-.12.03c-3.15.94-5.81.99-8.94,1h-47.62c-37.89.01-115.16,0-134.26,0-8.72.8-17.59-3.26-23.22-10.01l2.05-.61c18.9-14.35,77.6-58.39,95.92-72.3l1.04-1.41c3.44,2.55,6.88,5.09,10.29,7.6,3.99,2.85,4.79,2.87,8.74.06,2.25-1.63,4.44-3.25,6.81-5.01.63-.46,1.25-.92,1.88-1.37Z"/>
        <path class="cls-3" d="M10.56,11.64l.64.6c31.36,23.1,64.68,48.47,96.99,72.4l-1.04,1.41c-18.33,13.91-77.02,57.95-95.92,72.3l-2.05.61c-2.01-2.42-3.6-5.19-4.62-8.2-2.12-6.7-1.38-10.8-1.54-19.57-.01-21.15.01-64.14,0-88.63.13-6.3-.27-12.45.46-16.87.67-5.21,3.34-10.14,7.1-14.05Z"/>
        <path class="cls-2" d="M10.56,11.64C15.51,6.48,22.36,3.08,29,3.16c33.38.29,138.6-.73,191.52.35,4.97.84,9.53,3.26,13.21,6.66l-.03.04c-22.88,17.4-50.71,39.33-76.95,60.31-7,5.6-13.98,10.37-20.84,15.39-.63.45-1.25.91-1.88,1.37-2.37,1.75-4.56,3.38-6.81,5.01-3.94,2.81-4.75,2.78-8.74-.06-3.41-2.51-6.85-5.05-10.29-7.6C75.88,60.71,42.56,35.34,11.2,12.24l-.64-.6Z"/>
      </g>
      <g>
        <path class="cls-5" d="M235.85,159.78c-3.41,3.83-7.83,6.76-12.52,8.16l-.12.03c-3.15.94-5.81.99-8.94,1h-47.62c-37.89.01-115.16,0-134.26,0-8.72.8-17.59-3.26-23.22-10.01-2.01-2.42-3.6-5.19-4.62-8.2-2.12-6.7-1.38-10.8-1.54-19.57-.01-21.15.01-64.14,0-88.63.13-6.3-.27-12.45.46-16.87.67-5.21,3.34-10.14,7.1-14.05C15.51,6.48,22.36,3.08,29,3.16c33.38.29,138.6-.73,191.52.35,4.97.84,9.53,3.26,13.21,6.66,5.7,5.27,9.28,12.87,8.99,20.61.18,23.44-.04,69.52.04,99.79-.05,7.04.19,11.2-.45,15.71-.66,4.96-3.06,9.67-6.47,13.49Z"/>
        <path class="cls-5" d="M233.7,10.22c-22.88,17.4-50.71,39.33-76.95,60.31-7,5.6-13.98,10.37-20.84,15.39-.63.45-1.25.91-1.88,1.37-2.37,1.75-4.56,3.38-6.81,5.01-3.94,2.81-4.75,2.78-8.74-.06-3.41-2.51-6.85-5.05-10.29-7.6C75.88,60.71,42.56,35.34,11.2,12.24"/>
        <path class="cls-5" d="M11.22,158.35c18.9-14.35,77.6-58.39,95.92-72.3"/>
        <path class="cls-5" d="M136,86.05c18.8,13.9,78.88,57.4,98.27,71.74"/>
      </g>
    </g>
  </g>
</svg>