<?xml version="1.0" encoding="UTF-8"?>
<svg id="_图层_2" data-name="图层 2" xmlns="http://www.w3.org/2000/svg" xmlns:xlink="http://www.w3.org/1999/xlink" viewBox="0 0 231.6 162.24">
  <defs>
    <style>
      .cls-1 {
        fill: url(#_未命名的渐变_1208);
      }

      .cls-2 {
        fill: #7edfe3;
      }

      .cls-3 {
        fill: url(#_未命名的渐变_1208-3);
      }

      .cls-4 {
        fill: url(#_未命名的渐变_1208-2);
      }

      .cls-5 {
        fill: none;
        stroke: #8e7cc3;
        stroke-linecap: round;
        stroke-linejoin: round;
        stroke-width: 6px;
      }
    </style>
    <linearGradient id="_未命名的渐变_1208" data-name="未命名的渐变 1208" x1="128.04" y1="80.13" x2="228.6" y2="80.13" gradientUnits="userSpaceOnUse">
      <stop offset="0" stop-color="#f6c2d3"/>
      <stop offset=".3" stop-color="#ecbfd6"/>
      <stop offset=".8" stop-color="#d3b9de"/>
      <stop offset="1" stop-color="#c8b6e2"/>
    </linearGradient>
    <linearGradient id="_未命名的渐变_1208-2" data-name="未命名的渐变 1208" x1="8.81" y1="119.52" x2="222.05" y2="119.52" xlink:href="#_未命名的渐变_1208"/>
    <linearGradient id="_未命名的渐变_1208-3" data-name="未命名的渐变 1208" x1="3" y1="80.43" x2="101.95" y2="80.43" xlink:href="#_未命名的渐变_1208"/>
  </defs>
  <g id="_图层_1-2" data-name="图层 1">
    <g>
      <g>
        <path class="cls-2" d="M147.64,66.54c-6.59,5.27-13.13,9.75-19.6,14.47-.6.43-1.19.86-1.78,1.3-2.23,1.64-4.29,3.17-6.41,4.7-3.71,2.65-4.46,2.63-8.22-.06-3.21-2.36-6.44-4.74-9.68-7.14C71.57,57.3,40.22,33.43,10.71,11.7l-.6-.56C14.76,6.28,21.21,3.08,27.46,3.15c31.4.27,130.39-.68,180.17.33,4.68.79,8.98,3.07,12.45,6.28l-.04.04c-21.52,16.37-47.72,37-72.4,56.74Z"/>
        <path class="cls-1" d="M228.52,29.14c.18,22.06-.03,65.4.04,93.89-.05,6.62.19,10.54-.42,14.77-.62,4.67-2.88,9.1-6.09,12.7l-1.48-1.88c-18.24-13.49-74.75-54.41-92.44-67.49l-.09-.12c6.47-4.72,13.01-9.2,19.6-14.47,24.68-19.74,50.88-40.37,72.4-56.74l.04-.04c5.34,4.96,8.71,12.11,8.44,19.38Z"/>
        <path class="cls-4" d="M220.57,148.62l1.48,1.88c-3.21,3.59-7.37,6.35-11.78,7.67l-.11.04c-2.95.88-5.47.92-8.4.94h-44.81c-35.65,0-108.34-.01-126.31,0-8.2.75-16.55-3.08-21.83-9.43l1.93-.57c17.78-13.49,72.99-54.93,90.23-68.02l.98-1.32c3.24,2.4,6.47,4.78,9.68,7.14,3.76,2.69,4.51,2.71,8.22.06,2.12-1.53,4.18-3.06,6.41-4.7.59-.44,1.18-.87,1.78-1.3l.09.12c17.69,13.08,74.2,54,92.44,67.49Z"/>
        <path class="cls-3" d="M100.97,81.13c-17.24,13.09-72.45,54.53-90.23,68.02l-1.93.57c-1.9-2.28-3.4-4.88-4.36-7.71-1.99-6.29-1.3-10.15-1.45-18.41-.01-19.9,0-60.34,0-83.37.12-5.93-.25-11.71.44-15.88.62-4.89,3.13-9.53,6.67-13.21l.6.56c29.51,21.73,60.86,45.6,91.24,68.11l-.98,1.32Z"/>
      </g>
      <g>
        <path class="cls-5" d="M222.05,150.5c-3.21,3.59-7.37,6.35-11.78,7.67l-.11.04c-2.95.88-5.47.92-8.4.94h-44.81c-35.65,0-108.34-.01-126.31,0-8.2.75-16.55-3.08-21.83-9.43-1.9-2.28-3.4-4.88-4.36-7.71-1.99-6.29-1.3-10.15-1.45-18.41-.01-19.9,0-60.34,0-83.37.12-5.93-.25-11.71.44-15.88.62-4.89,3.13-9.53,6.67-13.21C14.76,6.28,21.21,3.08,27.46,3.15c31.4.27,130.39-.68,180.17.33,4.68.79,8.98,3.07,12.45,6.28,5.34,4.96,8.71,12.11,8.44,19.38.18,22.06-.03,65.4.04,93.89-.05,6.62.19,10.54-.42,14.77-.62,4.67-2.88,9.1-6.09,12.7Z"/>
        <path class="cls-5" d="M220.04,9.8c-21.52,16.37-47.72,37-72.4,56.74-6.59,5.27-13.13,9.75-19.6,14.47-.6.43-1.19.86-1.78,1.3-2.23,1.64-4.29,3.17-6.41,4.7-3.71,2.65-4.46,2.63-8.22-.06-3.21-2.36-6.44-4.74-9.68-7.14C71.57,57.3,40.22,33.43,10.71,11.7"/>
        <path class="cls-5" d="M10.74,149.15c17.78-13.49,72.99-54.93,90.23-68.02"/>
        <path class="cls-5" d="M128.13,81.13c17.69,13.08,74.2,54,92.44,67.49"/>
      </g>
    </g>
  </g>
</svg>