<?xml version="1.0" encoding="UTF-8"?>
<svg id="_图层_2" xmlns="http://www.w3.org/2000/svg" xmlns:xlink="http://www.w3.org/1999/xlink" version="1.1" viewBox="0 0 254.4 278">
  <!-- Generator: Adobe Illustrator 30.3.0, SVG Export Plug-In . SVG Version: 2.1.3 Build 182)  -->
  <defs>
    <style>
      .st0 {
        fill: #7edfe3;
        stroke-width: 5px;
      }

      .st0, .st1 {
        stroke: #8e7cc3;
        stroke-linecap: round;
        stroke-linejoin: round;
      }

      .st2 {
        fill: url(#_未命名的渐变_2);
      }

      .st3 {
        fill: url(#_未命名的渐变_3);
      }

      .st4 {
        fill: #c8b6e2;
      }

      .st5 {
        fill: url(#_未命名的渐变);
      }

      .st1 {
        fill: none;
        stroke-width: 6px;
      }
    </style>
    <linearGradient id="_未命名的渐变" data-name="未命名的渐变" x1="138.8" y1="15.3" x2="247.1" y2="15.3" gradientTransform="translate(0 192) scale(1 -1)" gradientUnits="userSpaceOnUse">
      <stop offset="0" stop-color="#f6c2d3"/>
      <stop offset=".3" stop-color="#ecbfd6"/>
      <stop offset=".8" stop-color="#d3b9de"/>
      <stop offset="1" stop-color="#c8b6e2"/>
    </linearGradient>
    <linearGradient id="_未命名的渐变_2" data-name="未命名的渐变 2" x1="11.2" y1="-28.4" x2="240" y2="-28.4" gradientTransform="translate(0 192) scale(1 -1)" gradientUnits="userSpaceOnUse">
      <stop offset="0" stop-color="#f6c2d3"/>
      <stop offset=".3" stop-color="#ecbfd6"/>
      <stop offset=".8" stop-color="#d3b9de"/>
      <stop offset="1" stop-color="#c8b6e2"/>
    </linearGradient>
    <linearGradient id="_未命名的渐变_3" data-name="未命名的渐变 3" x1="5" y1="13.2" x2="111.6" y2="13.2" gradientTransform="translate(0 192) scale(1 -1)" gradientUnits="userSpaceOnUse">
      <stop offset="0" stop-color="#f6c2d3"/>
      <stop offset=".3" stop-color="#ecbfd6"/>
      <stop offset=".8" stop-color="#d3b9de"/>
      <stop offset="1" stop-color="#c8b6e2"/>
    </linearGradient>
  </defs>
  <g id="_图层_1-2">
    <g>
      <g>
        <path class="st5" d="M247,224.2c0,6.9.2,11-.5,15.5-.7,4.9-3.1,9.5-6.5,13.3l-1.6-2c-19.6-14.1-80.2-57-99.2-70.7l-.5-.6c7.1-5.5,14.2-10.6,21.4-16.7,26.5-22.4,52.4-41.7,71.5-60.8l-2-1.8c10.3,4.1,17.7,14.6,17.3,25.5.2,23.1,0,68.5,0,98.3h0Z"/>
        <path class="st2" d="M238.4,251l1.6,2c-3.4,3.8-7.9,6.7-12.6,8h-.1c-3.2,1-5.9,1-9,1H35.2c-.4,0-.8,0-1.1,0-8.6.6-17.3-3.4-22.9-9.9l2.1-.6c19.1-14.1,78.3-57.5,96.8-71.2l1.4-1.8c3.3,2.5,6.7,5.1,10,7.7,4,3,4.8,3.1,8.8,0,2.3-1.7,4.5-3.5,6.9-5.3.5-.4,1-.8,1.6-1.2l.5.6c19,13.7,79.6,56.6,99.2,70.7h0Z"/>
        <path class="st4" d="M229.7,100.4l2,1.8c-19.2,19.1-45,38.4-71.5,60.8-7.2,6.1-14.3,11.2-21.4,16.7-.5.4-1,.8-1.6,1.2-2.4,1.9-4.6,3.6-6.9,5.3-4,3-4.8,3-8.8,0-3.3-2.6-6.7-5.2-10-7.7-32.6-24.9-65.5-48.3-97.3-73.1,4.8-4.2,11-6.9,17-6.8,33.3.3,137.7-.7,191.6.3,1.3,0,2.7.2,3.9.5,1,.3,1.9.6,2.9.9h0Z"/>
        <path class="st4" d="M127.9,8.9l101.8,91.5c-.9-.4-1.9-.7-2.9-.9-1.3-.3-2.6-.5-3.9-.5-54-1-158.3,0-191.6-.3-6,0-12.2,2.6-17,6.8,0,0,0,0,0,0L119.9,9.5c3.5-3,8-.6,8-.6Z"/>
        <path class="st3" d="M111.6,178.6l-1.4,1.8c-18.5,13.7-77.7,57.1-96.8,71.2l-2.1.6c-2-2.4-3.6-5.1-4.7-8.1-2.1-6.6-1.4-10.6-1.6-19.3v-87.3c.1-6.2-.3-12.3.5-16.6.8-5.8,4.2-11.3,8.8-15.4,31.7,24.8,64.7,48.1,97.3,73.1h0Z"/>
      </g>
      <g>
        <path class="st1" d="M240,253c-3.4,3.8-7.9,6.7-12.6,8h-.1c-3.2,1-5.9,1-9,1H35.2c-.4,0-.8,0-1.1,0-8.6.6-17.3-3.4-22.9-9.9-2-2.4-3.6-5.1-4.7-8.1-2.1-6.6-1.4-10.6-1.6-19.3v-87.3c.1-6.2-.3-12.3.5-16.6.8-5.8,4.2-11.3,8.8-15.4,4.8-4.2,11-6.9,17-6.8,33.3.3,137.7-.7,191.6.3,1.3,0,2.7.2,3.9.5,1,.3,1.9.6,2.9.9,10.3,4.1,17.7,14.6,17.3,25.5.2,23.1,0,68.5,0,98.3,0,6.9.2,11-.5,15.5-.7,4.9-3.1,9.5-6.5,13.3h0Z"/>
        <path class="st1" d="M229.7,100.4l2,1.8c-19.2,19.1-45,38.4-71.5,60.8-7.2,6.1-14.3,11.2-21.4,16.7-.5.4-1,.8-1.6,1.2-2.4,1.9-4.6,3.6-6.9,5.3-4,3-4.8,3-8.8,0-3.3-2.6-6.7-5.2-10-7.7-32.6-24.9-65.5-48.3-97.3-73.1,0,0,0,0,0,0L119.9,9.5c3.5-3,8-.6,8-.6l101.8,91.5h0Z"/>
        <path class="st1" d="M13.3,251.6c19.1-14.1,78.3-57.5,96.8-71.2"/>
        <path class="st1" d="M139.3,180.3c19,13.7,79.6,56.6,99.2,70.7"/>
      </g>
    </g>
    <polygon class="st0" points="207.7 122.5 207.7 122.5 39.8 124 126.4 188.3 207.7 122.5"/>
  </g>
</svg>