<?xml version="1.0" encoding="UTF-8"?>
<svg id="_图层_2" data-name="图层 2" xmlns="http://www.w3.org/2000/svg" xmlns:xlink="http://www.w3.org/1999/xlink" viewBox="0 0 184.64 245.21">
  <defs>
    <style>
      .cls-1 {
        fill: #7edfe3;
      }

      .cls-2 {
        fill: url(#_未命名的渐变_14);
      }

      .cls-3 {
        stroke: #8e7cc3;
      }

      .cls-3, .cls-4 {
        fill: none;
        stroke-miterlimit: 10;
        stroke-width: 6px;
      }

      .cls-4 {
        stroke: #7edfe3;
      }

      .cls-5 {
        fill: #f6c2d3;
      }
    </style>
    <linearGradient id="_未命名的渐变_14" data-name="未命名的渐变 14" x1="18.93" y1="116.22" x2="163.72" y2="116.22" gradientUnits="userSpaceOnUse">
      <stop offset="0" stop-color="#f4c1d4"/>
      <stop offset="1" stop-color="#d1b8df"/>
    </linearGradient>
  </defs>
  <g id="_图层_1-2" data-name="图层 1">
    <g>
      <g>
        <path class="cls-5" d="M181.33,30.67c2.39,11.24-9.38,24.48-16.15,33.48l-1.52.16c-1.46-8-20.28-18.74-28.79-24.27-5.68-3.42-13.21-7.6-17.17-8.34l-.14-.02c-1.08-.26-2.09-.35-3.05-.28v-1.45c15.04-24.46,20.21-36.87,47.69-17.28,8.65,6.41,16.22,9.98,19.13,18Z"/>
        <path class="cls-2" d="M70.04,201.06c-1.53.04-3.26-.31-5.28-1.15-5.62-2.22-10.53-5.36-17.31-9.6-7.66-4.96-15.84-10.63-21.12-15.09-3.53-2.98-5.82-5.49-6.81-7.82-.18-.46-.32-.91-.41-1.34-.74-3.37.92-6.24,2.86-9.57,15.3-22.71,46.2-65.77,68.39-97.64,2.16-3.09,4.13-5.88,6.2-8.83,6.48-8.45,10.75-18.02,17.95-18.62.95-.07,1.96.01,3.05.28l.14.02c3.95.74,11.48,4.92,17.17,8.34,8.51,5.52,27.33,16.26,28.79,24.27.53,4.23-2.28,8.14-4.68,12.13-19.32,28.83-59.2,88.5-78.29,116.58-3.22,4.36-5.98,7.98-10.65,8.05Z"/>
        <path class="cls-1" d="M29.82,229.2c-4.06,2.82-8.02,5.54-11.79,8.11-5.77,3.69-10.12,5.81-12.41,4.53-5.57-4.61-.89-20.53,1.41-29.53h.06c6.75,5.03,15.7,11.67,22.73,16.88Z"/>
      </g>
      <g>
        <path class="cls-3" d="M114.51,31.4c.95-.07,1.96.01,3.05.28l.14.02c3.95.74,11.48,4.92,17.17,8.34,8.51,5.52,27.33,16.26,28.79,24.27.53,4.23-2.28,8.14-4.68,12.13-19.32,28.83-59.2,88.5-78.29,116.58-3.22,4.36-5.98,7.98-10.65,8.05-1.53.04-3.26-.31-5.28-1.15-5.62-2.22-10.53-5.36-17.31-9.6-7.66-4.96-15.84-10.63-21.12-15.09-3.53-2.98-5.82-5.49-6.81-7.82-.18-.46-.32-.91-.41-1.34-.74-3.37.92-6.24,2.86-9.57,15.3-22.71,46.2-65.77,68.39-97.64,2.16-3.09,4.13-5.88,6.2-8.83,6.48-8.45,10.75-18.02,17.95-18.62Z"/>
        <path class="cls-3" d="M19.45,164.77c-.12.43-.24.86-.34,1.29-3.78,14.12-7.6,28.72-11.35,43.25-.19.87-.44,1.88-.72,3.01-2.31,9-6.98,24.91-1.41,29.53,2.29,1.28,6.65-.84,12.41-4.53,3.76-2.58,7.73-5.3,11.79-8.11,13.49-9.31,28.07-19.5,40.21-28.14.8-.58,1.6-1.14,2.38-1.69"/>
        <path class="cls-3" d="M7.09,212.33c6.75,5.02,15.7,11.66,22.73,16.87.32.24.62.47.93.69"/>
        <path class="cls-4" d="M33.8,176.22c23-33.59,70.06-102.32,93.45-136.46"/>
        <path class="cls-4" d="M54.86,190.6c22.99-33.95,69.85-103.1,93.23-137.6"/>
        <path class="cls-3" d="M114.52,29.95c15.02-24.46,20.2-36.87,47.67-17.28,8.65,6.41,16.22,9.98,19.13,18,2.39,11.24-9.38,24.48-16.15,33.48"/>
      </g>
    </g>
  </g>
</svg>