<?xml version="1.0" encoding="UTF-8"?>
<svg id="_图层_2" xmlns="http://www.w3.org/2000/svg" xmlns:xlink="http://www.w3.org/1999/xlink" version="1.1" viewBox="0 0 236.7 245.2">
  <!-- Generator: Adobe Illustrator 30.3.0, SVG Export Plug-In . SVG Version: 2.1.3 Build 182)  -->
  <defs>
    <style>
      .st0 {
        fill: #7edfe3;
      }

      .st1 {
        fill: url(#_未命名的渐变);
      }

      .st2 {
        stroke: #8e7cc3;
      }

      .st2, .st3 {
        fill: none;
        stroke-miterlimit: 10;
        stroke-width: 6px;
      }

      .st3 {
        stroke: #7edfe3;
      }

      .st4 {
        fill: #f6c2d3;
      }
    </style>
    <linearGradient id="_未命名的渐变" data-name="未命名的渐变" x1="45.8" y1="130.5" x2="190.6" y2="130.5" gradientTransform="translate(0 246.7) scale(1 -1)" gradientUnits="userSpaceOnUse">
      <stop offset="0" stop-color="#f4c1d4"/>
      <stop offset="1" stop-color="#d1b8df"/>
    </linearGradient>
  </defs>
  <g id="_图层_1-2">
    <path class="st0" d="M9.3,44.9c.5-.6,1.1-1.1,1.6-1.7.3-.3.6-.5.9-.8.8-.7-.6.5,0,0,1.2-.8,2.3-1.7,3.6-2.3.2-.1.8-.6,1-.5-.3,0-1.1.5-.1,0,.6-.3,1.3-.5,1.9-.7.7-.2,1.4-.4,2.1-.6.1,0,1.1-.2,1.1-.2,0,.1-1.4.2,0,0l-5.4-5.8c0,1.1,0,2.1,0,3.2,0,.5,0,.9-.1,1.4,0,.2-.1,1.1,0,.2.1-1,0,.3,0,.4-.3,2-.8,4-1.3,5.9-1.2,4-2.7,7.8-4.2,11.7s-3,7.8-4.1,11.8-2.3,9.2-.8,13.4c1.1,3,3.3,5.7,6.4,6.3,3.4.7,6.2-.7,8.8-2.9,1.8-1.6,3.2-3.7,4.6-5.6s2.7-3.8,3.9-5.8c2.5-3.9,5-7.8,7.5-11.6.6-.9,1.2-1.8,1.8-2.7.3-.5.7-.9,1-1.4.2-.3.4-.9,0,.1.1-.2.3-.5.5-.7,1.3-1.7,2.6-3.4,4-5,1.5-1.7,3-3.3,4.7-4.8.4-.4.9-.8,1.3-1.1.3-.2.6-.7-.2.2.2-.2.5-.4.7-.6.8-.7,1.7-1.3,2.6-1.9s1.9-1.2,2.8-1.7c.5-.3,1-.5,1.4-.7.2,0,.9-.4.2,0-.8.4.2,0,.3-.1,2-.8,4.1-1.4,6.2-1.7l-6.7-4.1v.4c.2.7.2.6,0-.3,0,.2,0,.6,0,.8,0,.7,0,1.4,0,2.1,0,0,0,.7,0,.8v-.7c0,.2,0,.4,0,.6-.1.8-.3,1.5-.5,2.3-.2.7-.4,1.4-.6,2,0,.3-.2.5-.3.8-.5,1.4.5-1.1,0,.2s-1.2,2.6-1.9,3.9c-2.6,5-5.6,9.8-8.3,14.7-5.5,10.1-10.5,20.5-14.4,31.5-1.9,5.3-3.5,10.7-4.6,16.2-.6,2.8-1.1,5.7-1.5,8.5-.5,3.5-.9,7.2.3,10.6s3.8,6.8,7.3,7.9,7.4-.4,9.8-3.4c2-2.3,3.6-5.1,5.3-7.7,1.5-2.4,3-4.8,4.4-7.2,11.3-19.5,19.8-40.7,32.3-59.4.7-1.1,1.5-2.2,2.3-3.3.2-.2.3-.4.5-.7.8-1.1-.5.7,0,0,.4-.6.9-1.2,1.3-1.8,1.6-2.1,3.2-4.1,5-6.1s3.5-3.9,5.3-5.7c.8-.8,1.7-1.6,2.5-2.4.5-.4,1-.8,1.4-1.3.2-.2.4-.3.6-.5.2-.2.4-.3.6-.5-.6.5-.7.6-.4.3,1-.8,1.9-1.5,2.9-2.2.6-.4,1.1-.8,1.7-1.1,0,0,.7-.4.7-.4-.7.3-.8.3-.2.1h.4c1.2-.6-1.2,0,0-.1.3,0,1.1.1-.3,0,1.2.1-.8-.4-.3-.1.6.4-1-1.1-.3-.3,0,0,.3.4.4.4l-.5-.7c.1.2.2.4.3.5.2.4.2.9-.2-.5,0,.3.2.6.3,1,0,.2.2,1.3,0,.2s0,0,0,.2c0,.2,0,.4,0,.7,0,1.1.3-1.3,0,0-.1.6-.3,1.2-.5,1.8,0,.3-.2.7-.3,1,.3-.7.3-.8.2-.4,0,.2-.2.4-.2.6-1.2,2.7-2.5,5.2-3.8,7.8-10.3,21.7-18.9,44.3-25.4,67.6-.8,2.8-1.6,5.7-2.3,8.5s.9,6.4,3.8,7.1,5.9-.9,6.7-4.1c3-11.7,6.6-23.2,10.6-34.6,1-2.8,2-5.6,3.1-8.5.5-1.3,1-2.7,1.5-4,.2-.6.5-1.3.7-1.9-.5,1.4,0,0,.1-.3.2-.4.3-.8.5-1.2,2.2-5.5,4.6-11,7.1-16.4,1.2-2.7,2.5-5.4,3.8-8.1s2.7-5.3,3.8-8.1c1.3-3.4,1.9-6.8,1.3-10.4-.5-3.2-2.4-6.4-5-8.1-6.5-4.3-13,1.1-18,5.3-3.9,3.3-7.6,7-11,10.9-14.6,17-24,37.9-34.3,57.9-2.6,5.1-5.3,10.2-8.2,15.2-1.5,2.5-2.9,5-4.5,7.4-.8,1.2-1.6,2.4-2.4,3.6-.2.2-.3.5-.5.7l-.2.4c-.3.5-.3.4.2-.3,0,0-1.2,1.3-1.2,1.3l.6-.5c-.2.1-.4.3-.6.4,0-.1,1.3-.4.4-.2h.8c-.4-.1-.4-.1.1,0h.4c-.5-.1-.4,0,.4.3,0,0-.5-.3-.5-.3.3,0,1,.9.2.2-.5-.5-.2-.7.1.2,0-.2-.4-.8-.5-.9l.3.7c0-.2-.1-.4-.2-.6,0-.3-.3-.8-.2-1.1-.2.7,0,.9,0,.3s0-.9,0-1.3c0-.7,0-1.3.1-2v-.2c0-.7,0-.6,0,.2.1-.3.1-1,.2-1.3.8-5.7,2.1-11.3,3.8-16.8.8-2.7,1.7-5.4,2.7-8.1.2-.7.5-1.3.8-2,.1-.3.2-.5.3-.8,0,0,.5-1.4.2-.5s.2-.4.2-.5c.1-.3.2-.5.3-.8.3-.8.7-1.6,1-2.3,2.2-5.2,4.7-10.3,7.3-15.3s5.3-9.8,8.1-14.6c2.9-5.1,6-10.5,7.2-16.4.7-3.6.7-7,0-10.6-.3-1.3-1.4-2.8-2.5-3.5-1.4-.8-2.7-.8-4.2-.6-7.9,1.2-15.1,5.9-21,11.5-6.2,5.9-11.1,13.2-15.8,20.5-2.4,3.7-4.7,7.4-7.2,11-.3.5-.7,1-1,1.4-.1.2-.3.4-.4.5-.6.8,0,0,0-.1-.6.9-1.3,1.7-2,2.5-.1.2-1.2,1.2-.6.6.7-.7-.6.4-.6.4,0-.1,1.3-.4.4-.2,0,0,1.3,0,.7,0s1.2.3.5,0c-.3,0-.2,0,.2,0,.4.1.7.4,1,.7-.2-.2-.4-.5,0,.2.5.8.1.2,0,0-.2-.6.2.8.3.7,0-.1-.1-.5-.2-.6,0-.2,0-.5-.1-.6,0,0,0,1.3.1.7,0-.5,0-1,0-1.5,0-.2,0-.3,0-.5,0-.8-.2,1.3,0,.6,0-.4.1-.9.2-1.3.2-1,.4-2.1.7-3.1,1-3.9,2.4-7.6,3.9-11.3,3.4-8.6,6.9-17.4,6.6-26.9,0-2.9-2.4-6.1-5.4-5.8-7.5.8-14.4,4.2-19.7,10-2,2.2-2.2,6.1,0,8.2s5.6,2.3,7.7,0h0Z"/>
    <path class="st0" d="M172.7,88.7c.8-1.1-.8,1,0,0,.2-.3.5-.6.7-.8.5-.5.9-1,1.4-1.4.2-.1,1.2-.9.4-.4s.2,0,.3-.2c.6-.4,1.2-.8,1.9-1.2.3-.2.6-.4,1-.5l.3-.2q.4-.2,0,0t0,0h.3c.3-.3.7-.4,1.1-.5.7-.2,1.4-.4,2.2-.6.2,0,1,0,1.1-.2h-.8c.2,0,.5,0,.7,0l-5.5-4.3c.2.5.3,1.1.4,1.6.3,1.1,0-.3,0-.3,0,.1,0,.7,0,.8,0,.5,0,1.1,0,1.6,0,.3,0,.5,0,.8,0,.2-.1,1.4,0,.4,0-.8,0-.1,0,0,0,.3-.1.5-.2.8-.1.5-.3,1.1-.4,1.6s-.3,1.1-.5,1.6c0,.1-.3.8-.3.8,0-.1.5-1.2,0,0-1.9,4.4-4.6,8.4-7.2,12.4-5.6,8.5-11.1,17.1-16.5,25.7-10.9,17.3-21.4,34.8-31.3,52.7-2.6,4.7-5.1,9.4-7.2,14.4-2.4,5.8-4.1,11.6-4.8,17.9-.1,1.3.5,2.6,1.2,3.6.8,1.1,1.7,1.6,3,2.1,5,2.1,10.8.7,15.2-2.2s7.8-6.9,11-11.2c5.7-7.9,10.8-16.2,15.5-24.8,9.5-17.1,18-35,28.8-51.3,1.5-2.3,3.1-4.6,4.7-6.8.1-.2.7-.9.2-.3-.5.7.2-.3.3-.4.4-.6.9-1.1,1.3-1.7.8-1,1.6-2,2.5-2.9s1.7-1.8,2.6-2.6c.2-.2.9-.6.2-.1-.8.5.2-.1.3-.2.5-.4,1-.7,1.6-1,.2-.1.4-.2.6-.3.2,0,.3-.2.5-.2.4-.2.2-.1-.5.2.6,0,1.1-.4,1.7-.5.2,0,.5,0,.7-.1h-.8c.2,0,.5,0,.7,0,.5,0,2.4.3.6,0l-4.2-5.7c0,1.7,0,3.3-.2,5,0,.8-.2,1.6-.2,2.4,0,0,.2-1.3,0-.7,0,.2,0,.4,0,.5,0,.5-.2,1-.2,1.5-.6,3.3-1.4,6.5-2.4,9.7-.5,1.6-1,3.2-1.6,4.8-.3.8-.6,1.5-.9,2.3-.1.3-.3.7-.4,1.1,0,.2-.2.5-.3.7-.3.7,0,0,.2-.4-1.4,3.1-2.7,6.3-4.1,9.4-5.9,13.1-12,26.1-13.7,40.5-.5,3.9-.6,7.9.3,11.7.9,4.3,3.5,8.7,7.5,10.6,2.1,1,5.2,1.2,6.9-.9,5.9-7.5,9.7-16.2,14.9-24.1.3-.5.6-.9.9-1.4.2-.2.3-.5.5-.7.1-.2.7-.9.2-.2s0,0,.2-.2.3-.3.4-.5c.4-.5.8-1,1.2-1.4.6-.7,1.3-1.4,2-2.1.3-.3.6-.6.9-.9.2-.2.4-.3.5-.5.7-.6.3-.1-.2.1,1.7-1.1,3.2-2.3,5-3.2.4-.2.9-.4,1.3-.6.7-.3-1.1.4-.4.2.2,0,.4-.2.7-.3.9-.4,1.9-.7,2.8-.9.5-.1,1-.2,1.5-.3.2,0,1-.2,0,0-1,.1,0,0,.3,0,1,0,2,0,3,0,.2,0,.5,0,.7,0-1.2.1-.9-.1-.2,0,.5,0,1,.2,1.5.4s1,.4,1.4.5c-.1,0-1.3-.6-.4-.2.3.2.6.3.9.5,2.6,1.5,6.3.8,7.8-2.1,1.4-2.7.8-6.5-2-8.1-8.7-4.8-19-3-27.1,2.2s-13.6,13.9-18.4,22.5c-1.3,2.3-2.6,4.6-3.9,6.9-.7,1.2-1.5,2.4-2.2,3.5-.3.5-.7,1-1.1,1.5-.2.3-.7,1.1,0,0-.2.3-.5.7-.8,1l6.9-.9c-.3-.1-.6-.3-.9-.4-.1,0-.4-.3-.5-.3,0,0,.9.8.6.4-.2-.2-.4-.5-.6-.7-.4-.3.4.5.4.6,0-.2-.2-.4-.3-.5-.2-.3-.3-.7-.5-1-.3-.5.3.7.3.7,0-.1-.1-.3-.2-.5-.2-.7-.4-1.4-.6-2.1,0-.2-.3-1.6-.1-.5s0-.1,0-.4c0-.8,0-1.5,0-2.3,0-1.6.2-3.2.3-4.8,0-.2,0-.4,0-.6,0,0-.2,1.3,0,.7,0-.4.1-.9.2-1.3.1-.8.3-1.6.4-2.4.3-1.6.7-3.1,1.1-4.7.9-3.2,1.9-6.3,3.1-9.4.3-.7.5-1.4.8-2.1,0-.2.6-1.5.3-.7s.2-.5.3-.7c.6-1.5,1.3-3,1.9-4.5,1.4-3.1,2.8-6.1,4.1-9.2,2.9-6.4,5.7-12.8,7.8-19.4,2.4-7.3,3.8-14.9,3.8-22.6,0-2.4-1.7-5.3-4.2-5.7-2.8-.5-5.7-.5-8.5.4s-5.1,2.5-7.4,4.3c-3.8,3.1-6.7,7.2-9.6,11.2-5.7,7.9-10.8,16.2-15.5,24.8-9.6,17.1-18,35-28.8,51.3-1.5,2.3-3.1,4.6-4.7,6.8-.1.2-.7.9-.2.2.6-.7-.1.2-.3.3-.4.5-.8,1-1.2,1.5-.9,1-1.8,2-2.8,2.8-.2.2-.4.4-.6.5-.1.1-1,.8-.3.3.8-.6-.3.2-.4.2-.3.2-.5.4-.8.5-.5.3-1,.6-1.5.9-.3.1-.6.3-.8.4-.6.3,1.2-.4.2,0-.6.2-1.1.3-1.7.5-.9.2.4,0,.5,0-.3,0-.7,0-1,0s-.5,0-.7,0c-1.1,0,1.3.4.1,0-.6-.2-1.2-.3-1.7-.6l4.2,5.7c.1-1.2,0,.1,0,.2,0-.2,0-.7.1-.9,0-.6.2-1.2.3-1.7.2-1.2.5-2.4.9-3.6.3-1.1.6-2.1,1-3.2.2-.6.4-1.1.6-1.7s.2-.6.3-.8c0-.2.2-.4.2-.6.2-.4.1-.3-.2.4.1-1,.9-2.2,1.3-3.1.5-1.2,1.1-2.3,1.6-3.4,1.1-2.1,2.2-4.2,3.3-6.3,4.9-9,10.1-18,15.3-26.8,10.5-17.7,21.5-35,32.7-52.2,6.2-9.4,13.6-20.4,10-32.5-.7-2.3-3-4.6-5.5-4.3-8.3.8-15.5,4.9-20.5,11.9-1.8,2.5-.5,6.7,2,8.1,3,1.6,5.9.5,7.8-2.1h0Z"/>
    <g id="_图层_1-21" data-name="_图层_1-2">
      <g>
        <g>
          <path class="st4" d="M208.2,30.7c2.4,11.2-9.4,24.5-16.1,33.5l-1.5.2c-1.5-8-20.3-18.7-28.8-24.3-5.7-3.4-13.2-7.6-17.2-8.3h-.1c-1.1-.3-2.1-.4-3.1-.3v-1.5c15-24.5,20.2-36.9,47.7-17.3,8.6,6.4,16.2,10,19.1,18Z"/>
          <path class="st1" d="M96.9,201.1c-1.5,0-3.3-.3-5.3-1.1-5.6-2.2-10.5-5.4-17.3-9.6-7.7-5-15.8-10.6-21.1-15.1-3.5-3-5.8-5.5-6.8-7.8-.2-.5-.3-.9-.4-1.3-.7-3.4.9-6.2,2.9-9.6,15.3-22.7,46.2-65.8,68.4-97.6,2.2-3.1,4.1-5.9,6.2-8.8,6.5-8.5,10.8-18,17.9-18.6.9,0,2,0,3.1.3h.1c3.9.8,11.5,4.9,17.2,8.4,8.5,5.5,27.3,16.3,28.8,24.3.5,4.2-2.3,8.1-4.7,12.1-19.3,28.8-59.2,88.5-78.3,116.6-3.2,4.4-6,8-10.7,8.1h0Z"/>
          <path class="st0" d="M56.7,229.2c-4.1,2.8-8,5.5-11.8,8.1-5.8,3.7-10.1,5.8-12.4,4.5-5.6-4.6-.9-20.5,1.4-29.5h0c6.7,5,15.7,11.7,22.7,16.9h0Z"/>
        </g>
        <g>
          <path class="st2" d="M141.4,31.4c.9,0,2,0,3.1.3h.1c3.9.8,11.5,4.9,17.2,8.4,8.5,5.5,27.3,16.3,28.8,24.3.5,4.2-2.3,8.1-4.7,12.1-19.3,28.8-59.2,88.5-78.3,116.6-3.2,4.4-6,8-10.7,8.1-1.5,0-3.3-.3-5.3-1.1-5.6-2.2-10.5-5.4-17.3-9.6-7.7-5-15.8-10.6-21.1-15.1-3.5-3-5.8-5.5-6.8-7.8-.2-.5-.3-.9-.4-1.3-.7-3.4.9-6.2,2.9-9.6,15.3-22.7,46.2-65.8,68.4-97.6,2.2-3.1,4.1-5.9,6.2-8.8,6.5-8.5,10.8-18,17.9-18.6h0Z"/>
          <path class="st2" d="M46.4,164.8c-.1.4-.2.9-.3,1.3-3.8,14.1-7.6,28.7-11.4,43.2-.2.9-.4,1.9-.7,3-2.3,9-7,24.9-1.4,29.5,2.3,1.3,6.7-.8,12.4-4.5,3.8-2.6,7.7-5.3,11.8-8.1,13.5-9.3,28.1-19.5,40.2-28.1.8-.6,1.6-1.1,2.4-1.7"/>
          <path class="st2" d="M34,212.3c6.8,5,15.7,11.7,22.7,16.9.3.2.6.5.9.7"/>
          <path class="st3" d="M60.7,176.2c23-33.6,70.1-102.3,93.5-136.5"/>
          <path class="st3" d="M81.8,190.6c23-33.9,69.8-103.1,93.2-137.6"/>
          <path class="st2" d="M141.4,29.9c15-24.5,20.2-36.9,47.7-17.3,8.6,6.4,16.2,10,19.1,18,2.4,11.2-9.4,24.5-16.1,33.5"/>
        </g>
      </g>
    </g>
  </g>
</svg>