<?xml version="1.0" encoding="UTF-8"?>
<svg id="_图层_2" data-name="图层 2" xmlns="http://www.w3.org/2000/svg" xmlns:xlink="http://www.w3.org/1999/xlink" viewBox="0 0 244.72 188.19">
  <defs>
    <style>
      .cls-1 {
        fill: url(#_未命名的渐变_1233);
      }

      .cls-2, .cls-3 {
        fill: #7edfe3;
      }

      .cls-3, .cls-4 {
        stroke-miterlimit: 10;
      }

      .cls-3, .cls-4, .cls-5 {
        stroke: #8e7cc3;
        stroke-width: 6px;
      }

      .cls-4, .cls-6 {
        fill: #f6c2d3;
      }

      .cls-5 {
        fill: none;
        stroke-linecap: round;
        stroke-linejoin: round;
      }
    </style>
    <linearGradient id="_未命名的渐变_1233" data-name="未命名的渐变 1233" x1="71.92" y1="114.82" x2="241.72" y2="114.82" gradientUnits="userSpaceOnUse">
      <stop offset=".29" stop-color="#c8b6e2"/>
      <stop offset=".48" stop-color="#ccb7e0"/>
      <stop offset=".69" stop-color="#d9badc"/>
      <stop offset=".91" stop-color="#efc0d5"/>
      <stop offset=".96" stop-color="#f6c2d3"/>
    </linearGradient>
  </defs>
  <g id="_图层_1-2" data-name="图层 1">
    <rect class="cls-3" x="11.69" y="21.9" width="154.79" height="104.04" rx="15.78" ry="15.78" transform="translate(-19.92 34.94) rotate(-20.01)"/>
    <rect class="cls-4" x="40.21" y="39.46" width="157.35" height="115.32" rx="19.11" ry="19.11" transform="translate(-18.54 28.71) rotate(-12.78)"/>
    <g>
      <g>
        <path class="cls-2" d="M103.29,185.19l40.54-42.98,16.07-17.04s15.27-20.8,29.52-3.22c-.35,0,46.2,44.32,51.75,49.6-1.96,7.83-9.04,13.63-17.48,13.63h-120.41Z"/>
        <path class="cls-6" d="M203.98,84.79c6.53,0,11.82,5.19,11.82,11.6s-5.29,11.6-11.82,11.6-11.82-5.2-11.82-11.6,5.29-11.6,11.82-11.6Z"/>
        <path class="cls-2" d="M103.29,185.19h-13.34c-9.95,0-18.02-8.07-18.02-18.02v-.78l39.07-35.04s16.12-12.17,25.3,1.32c.33.33,6.55,8.64,6.55,8.64l.99.9-40.54,42.98Z"/>
        <path class="cls-1" d="M71.92,76.11c0-9.96,8.07-18.03,18.02-18.03h133.75c9.96,0,18.02,8.07,18.02,18.03v91.06c0,1.51-.19,2.99-.54,4.39-5.55-5.29-52.1-49.6-51.75-49.6-14.25-17.59-29.52,3.22-29.52,3.22l-16.07,17.04-.99-.9s-6.22-8.31-6.55-8.64c-9.18-13.49-25.3-1.32-25.3-1.32l-39.07,35.04v-90.28ZM215.8,96.38c0-6.41-5.29-11.6-11.82-11.6s-11.82,5.19-11.82,11.6,5.29,11.6,11.82,11.6,11.82-5.2,11.82-11.6Z"/>
      </g>
      <g>
        <path class="cls-5" d="M241.18,171.56c-1.96,7.83-9.04,13.63-17.48,13.63H89.95c-9.95,0-18.02-8.07-18.02-18.02v-91.06c0-9.96,8.07-18.03,18.02-18.03h133.75c9.96,0,18.02,8.07,18.02,18.03v91.06c0,1.51-.19,2.99-.54,4.39Z"/>
        <path class="cls-5" d="M215.8,96.38c0,6.41-5.29,11.6-11.82,11.6s-11.82-5.2-11.82-11.6,5.29-11.6,11.82-11.6,11.82,5.19,11.82,11.6Z"/>
        <path class="cls-5" d="M71.75,166.54l.17-.16,39.07-35.04s16.12-12.17,25.3,1.32c.33.33,6.55,8.64,6.55,8.64"/>
        <path class="cls-5" d="M103.29,185.19l40.54-42.98,16.07-17.04s15.27-20.8,29.52-3.22c-.35,0,46.2,44.32,51.75,49.6.35.34.54.52.54.52"/>
      </g>
    </g>
  </g>
</svg>