<?xml version="1.0" encoding="UTF-8"?>
<svg id="_图层_2" data-name="图层 2" xmlns="http://www.w3.org/2000/svg" xmlns:xlink="http://www.w3.org/1999/xlink" viewBox="0 0 337.78 259.61">
  <defs>
    <style>
      .cls-1 {
        fill: url(#_未命名的渐变_1233);
      }

      .cls-2, .cls-3 {
        fill: #7edfe3;
      }

      .cls-3, .cls-4 {
        stroke-miterlimit: 10;
      }

      .cls-3, .cls-4, .cls-5 {
        stroke: #8e7cc3;
        stroke-width: 6px;
      }

      .cls-4, .cls-6 {
        fill: #f6c2d3;
      }

      .cls-5 {
        fill: none;
        stroke-linecap: round;
        stroke-linejoin: round;
      }
    </style>
    <linearGradient id="_未命名的渐变_1233" data-name="未命名的渐变 1233" x1="100" y1="159.67" x2="334.78" y2="159.67" gradientUnits="userSpaceOnUse">
      <stop offset=".29" stop-color="#c8b6e2"/>
      <stop offset=".48" stop-color="#ccb7e0"/>
      <stop offset=".69" stop-color="#d9badc"/>
      <stop offset=".91" stop-color="#efc0d5"/>
      <stop offset=".96" stop-color="#f6c2d3"/>
    </linearGradient>
  </defs>
  <g id="_图层_1-2" data-name="图层 1">
    <rect class="cls-3" x="16.71" y="30.83" width="214.02" height="143.86" rx="15.78" ry="15.78" transform="translate(-27.69 48.54) rotate(-20.01)"/>
    <rect class="cls-4" x="56.15" y="55.12" width="217.57" height="159.45" rx="19.11" ry="19.11" transform="translate(-25.75 39.84) rotate(-12.78)"/>
    <g>
      <g>
        <path class="cls-1" d="M334.78,98.88v139.6s-72.82-69.31-72.31-69.31c-19.7-24.32-40.82,4.45-40.82,4.45l-22.22,23.56-1.37-1.25s-8.6-11.49-9.06-11.95c-12.69-18.66-34.98-1.83-34.98-1.83l-54.02,48.45V98.88c0-9.95,8.07-18.03,18.02-18.03h198.74c9.95,0,18.02,8.08,18.02,18.03ZM298.94,133.82c0-8.86-7.32-16.04-16.35-16.04s-16.34,7.17-16.34,16.04,7.32,16.05,16.34,16.05,16.35-7.18,16.35-16.05Z"/>
        <path class="cls-2" d="M316.76,256.61h-173.39l56.06-59.42,22.22-23.56s21.12-28.76,40.82-4.45c-.51,0,72.31,69.31,72.31,69.31v.11c0,9.95-8.07,18.02-18.02,18.02Z"/>
        <path class="cls-6" d="M282.59,117.79c9.03,0,16.35,7.17,16.35,16.04s-7.32,16.05-16.35,16.05-16.34-7.18-16.34-16.05,7.32-16.04,16.34-16.04Z"/>
        <path class="cls-2" d="M199.43,197.19l-56.06,59.42h-25.35c-9.95,0-18.02-8.07-18.02-18.02v-7.98l54.02-48.45s22.29-16.83,34.98,1.83c.46.46,9.06,11.95,9.06,11.95l1.37,1.25Z"/>
      </g>
      <g>
        <path class="cls-5" d="M334.78,238.49v.11c0,9.95-8.07,18.02-18.02,18.02H118.02c-9.95,0-18.02-8.07-18.02-18.02V98.88c0-9.95,8.07-18.03,18.02-18.03h198.74c9.95,0,18.02,8.08,18.02,18.03v139.6Z"/>
        <path class="cls-5" d="M298.94,133.82c0,8.86-7.32,16.05-16.35,16.05s-16.34-7.18-16.34-16.05,7.32-16.04,16.34-16.04,16.35,7.17,16.35,16.04Z"/>
        <path class="cls-5" d="M99.76,230.83l.24-.22,54.02-48.45s22.29-16.83,34.98,1.83c.46.46,9.06,11.95,9.06,11.95"/>
        <path class="cls-5" d="M143.37,256.61l56.06-59.42,22.22-23.56s21.12-28.76,40.82-4.45c-.51,0,72.31,69.31,72.31,69.31"/>
      </g>
    </g>
  </g>
</svg>