<?xml version="1.0" encoding="UTF-8"?>
<svg id="_图层_2" data-name="图层 2" xmlns="http://www.w3.org/2000/svg" xmlns:xlink="http://www.w3.org/1999/xlink" viewBox="0 0 241.02 181.75">
  <defs>
    <style>
      .cls-1 {
        fill: url(#_未命名的渐变_1233);
      }

      .cls-2 {
        fill: #7edfe3;
      }

      .cls-3 {
        fill: none;
        stroke: #8e7cc3;
        stroke-linecap: round;
        stroke-linejoin: round;
        stroke-width: 6px;
      }

      .cls-4 {
        fill: #f6c2d3;
      }
    </style>
    <linearGradient id="_未命名的渐变_1233" data-name="未命名的渐变 1233" x1="3.24" y1="81.81" x2="238.02" y2="81.81" gradientUnits="userSpaceOnUse">
      <stop offset=".29" stop-color="#c8b6e2"/>
      <stop offset=".48" stop-color="#ccb7e0"/>
      <stop offset=".69" stop-color="#d9badc"/>
      <stop offset=".91" stop-color="#efc0d5"/>
      <stop offset=".96" stop-color="#f6c2d3"/>
    </linearGradient>
  </defs>
  <g id="_图层_1-2" data-name="图层 1">
    <g>
      <g>
        <path class="cls-2" d="M238.02,160.63v.1c0,9.95-8.07,18.02-18.02,18.02H46.61l56.06-59.42,22.22-23.56s21.12-28.76,40.82-4.44c-.51,0,72.31,69.31,72.31,69.31Z"/>
        <path class="cls-1" d="M238.02,21.02v139.61s-72.82-69.31-72.31-69.31c-19.7-24.33-40.82,4.44-40.82,4.44l-22.22,23.56-1.37-1.25s-8.61-11.49-9.06-11.94c-12.69-18.67-34.98-1.84-34.98-1.84L3.24,152.75V21.02C3.24,11.07,11.31,3,21.26,3h198.74c9.95,0,18.02,8.07,18.02,18.02ZM202.18,55.96c0-8.85-7.32-16.04-16.35-16.04s-16.35,7.18-16.35,16.04,7.32,16.05,16.35,16.05,16.35-7.18,16.35-16.05Z"/>
        <path class="cls-4" d="M185.83,39.92c9.03,0,16.35,7.18,16.35,16.04s-7.32,16.05-16.35,16.05-16.35-7.18-16.35-16.05,7.32-16.04,16.35-16.04Z"/>
        <path class="cls-2" d="M102.67,119.32l-56.06,59.42h-25.35c-9.95,0-18.02-8.07-18.02-18.02v-7.98l54.02-48.45s22.29-16.83,34.98,1.84c.45.45,9.06,11.94,9.06,11.94l1.37,1.25Z"/>
      </g>
      <g>
        <path class="cls-3" d="M238.02,160.63v.1c0,9.95-8.07,18.02-18.02,18.02H21.26c-9.95,0-18.02-8.07-18.02-18.02V21.02C3.24,11.07,11.31,3,21.26,3h198.74c9.95,0,18.02,8.07,18.02,18.02v139.61Z"/>
        <path class="cls-3" d="M202.18,55.96c0,8.86-7.32,16.05-16.35,16.05s-16.35-7.18-16.35-16.05,7.32-16.04,16.35-16.04,16.35,7.18,16.35,16.04Z"/>
        <path class="cls-3" d="M3,152.97l.24-.22,54.02-48.45s22.29-16.83,34.98,1.84c.45.45,9.06,11.94,9.06,11.94"/>
        <path class="cls-3" d="M46.61,178.75l56.06-59.42,22.22-23.56s21.12-28.76,40.82-4.44c-.51,0,72.31,69.31,72.31,69.31"/>
      </g>
    </g>
  </g>
</svg>