<?xml version="1.0" encoding="UTF-8"?>
<svg id="_图层_2" data-name="图层 2" xmlns="http://www.w3.org/2000/svg" xmlns:xlink="http://www.w3.org/1999/xlink" viewBox="0 0 244.7 184.5">
  <defs>
    <style>
      .cls-1 {
        fill: url(#_未命名的渐变_1233);
      }

      .cls-2 {
        fill: #7edfe3;
      }

      .cls-3 {
        fill: none;
        stroke: #8e7cc3;
        stroke-linecap: round;
        stroke-linejoin: round;
        stroke-width: 6px;
      }

      .cls-4 {
        fill: #f6c2d3;
      }
    </style>
    <linearGradient id="_未命名的渐变_1233" data-name="未命名的渐变 1233" x1="3.24" y1="83.05" x2="241.7" y2="83.05" gradientUnits="userSpaceOnUse">
      <stop offset=".29" stop-color="#c8b6e2"/>
      <stop offset=".48" stop-color="#ccb7e0"/>
      <stop offset=".69" stop-color="#d9badc"/>
      <stop offset=".91" stop-color="#efc0d5"/>
      <stop offset=".96" stop-color="#f6c2d3"/>
    </linearGradient>
  </defs>
  <g id="_图层_1-2" data-name="图层 1">
    <g>
      <g>
        <path class="cls-4" d="M205.29,56.79c0,9-7.43,16.3-16.6,16.3s-16.61-7.3-16.61-16.3,7.43-16.3,16.61-16.3,16.6,7.3,16.6,16.3Z"/>
        <path class="cls-2" d="M126.8,97.21s21.44-29.2,41.45-4.51c-.51,0,73.45,70.39,73.45,70.39v.39c0,9.95-8.07,18.02-18.03,18.02H47.29l56.94-60.36,22.58-23.93Z"/>
        <path class="cls-1" d="M205.29,56.79c0-9-7.43-16.3-16.6-16.3s-16.61,7.3-16.61,16.3,7.43,16.3,16.61,16.3,16.6-7.3,16.6-16.3ZM93.64,107.74c-12.89-18.95-35.54-1.85-35.54-1.85L3.24,155.09V21.03C3.24,11.07,11.32,3,21.27,3h202.4c9.95,0,18.03,8.07,18.03,18.03v142.06s-73.96-70.39-73.45-70.39c-20.01-24.7-41.45,4.51-41.45,4.51l-22.58,23.93-1.38-1.26s-8.74-11.67-9.2-12.14Z"/>
        <path class="cls-2" d="M21.27,181.5c-9.95,0-18.03-8.07-18.03-18.02v-8.39l54.86-49.2s22.65-17.09,35.54,1.85c.46.47,9.2,12.14,9.2,12.14l1.38,1.26-56.94,60.36h-26.02Z"/>
      </g>
      <g>
        <path class="cls-3" d="M241.7,163.09v.39c0,9.95-8.07,18.02-18.03,18.02H21.27c-9.95,0-18.03-8.07-18.03-18.02V21.03C3.24,11.07,11.32,3,21.27,3h202.4c9.95,0,18.03,8.07,18.03,18.03v142.06Z"/>
        <path class="cls-3" d="M205.29,56.79c0,9-7.43,16.3-16.6,16.3s-16.61-7.3-16.61-16.3,7.43-16.3,16.61-16.3,16.6,7.3,16.6,16.3Z"/>
        <path class="cls-3" d="M3,155.31l.24-.22,54.86-49.2s22.65-17.09,35.54,1.85c.46.47,9.2,12.14,9.2,12.14"/>
        <path class="cls-3" d="M47.29,181.5l56.94-60.36,22.58-23.93s21.44-29.2,41.45-4.51c-.51,0,73.45,70.39,73.45,70.39"/>
      </g>
    </g>
  </g>
</svg>